<svg width="693" height="665" viewBox="0 0 693 665" fill="none" xmlns="http://www.w3.org/2000/svg">
<path opacity="0.04" d="M478.614 283.682C737.141 379.022 346.461 665.373 307.396 476.593C287.962 382.657 105.87 440.75 111.344 343.85C116.818 246.95 198.802 255.307 280.202 207.824C381.599 148.151 410.164 258.441 478.614 283.682Z" stroke="url(#paint0_linear_94_1051)" stroke-width="1.37" stroke-miterlimit="10"/>
<path opacity="0.07" d="M480.615 278.825C723.153 378.838 359.295 660.36 307.478 480.819C281.938 392.324 102.784 430.202 113.732 336.517C124.585 242.907 204.344 243.735 283.994 204.534C383.308 155.646 414.546 251.583 480.615 278.825Z" stroke="url(#paint1_linear_94_1051)" stroke-width="1.37" stroke-miterlimit="10"/>
<path opacity="0.11" d="M482.623 273.968C709.112 378.187 372.347 655.551 307.559 485.045C276.037 402.085 99.6905 419.633 116.12 329.178C132.366 238.824 209.73 232.013 287.738 201.244C384.882 162.945 418.873 244.637 482.623 273.968Z" stroke="url(#paint2_linear_94_1051)" stroke-width="1.37" stroke-miterlimit="10"/>
<path opacity="0.15" d="M484.624 269.132C695.057 376.987 385.683 650.925 307.64 489.292C270.278 411.887 96.6042 409.058 118.501 321.845C140.174 234.761 215.082 220.292 291.516 197.954C386.395 170.237 423.133 237.589 484.624 269.132Z" stroke="url(#paint3_linear_94_1051)" stroke-width="1.37" stroke-miterlimit="10"/>
<path opacity="0.19" d="M486.625 264.261C681.036 375.23 399.337 646.332 307.722 493.497C264.695 421.757 93.5109 398.49 120.888 314.512C147.974 230.69 220.393 208.55 295.288 194.664C387.853 177.509 427.353 230.426 486.625 264.261Z" stroke="url(#paint4_linear_94_1051)" stroke-width="1.37" stroke-miterlimit="10"/>
<path opacity="0.23" d="M488.626 259.404C667.116 372.842 413.331 641.747 307.803 497.723C259.289 431.531 90.4245 387.921 123.297 307.172C155.795 226.62 225.677 196.774 299.073 191.374C389.264 184.74 431.552 223.134 488.626 259.404Z" stroke="url(#paint5_linear_94_1051)" stroke-width="1.37" stroke-miterlimit="10"/>
<path opacity="0.26" d="M490.628 254.547C653.373 369.817 427.726 637.032 307.885 501.949C254.059 441.286 87.3381 377.353 125.664 299.806C163.583 222.516 230.887 184.923 302.817 188.05C390.635 191.91 435.75 215.686 490.628 254.547Z" stroke="url(#paint6_linear_94_1051)" stroke-width="1.37" stroke-miterlimit="10"/>
<path opacity="0.3" d="M492.629 249.691C639.888 366.147 442.432 632.094 307.966 506.182C248.999 450.925 84.2449 366.812 128.045 292.507C171.384 218.487 236.11 173.073 306.582 184.795C391.991 199.006 439.997 208.082 492.629 249.691Z" stroke="url(#paint7_linear_94_1051)" stroke-width="1.37" stroke-miterlimit="10"/>
<path opacity="0.34" d="M494.63 244.841C626.735 361.873 457.321 626.844 308.047 510.408C243.979 460.422 81.1585 356.209 130.433 285.167C179.184 214.417 241.333 161.127 310.347 181.505C393.355 206.047 444.318 200.267 494.63 244.841Z" stroke="url(#paint8_linear_94_1051)" stroke-width="1.37" stroke-miterlimit="10"/>
<path opacity="0.38" d="M496.631 239.963C613.982 357.016 472.401 621.227 308.129 514.614C239.047 469.803 78.0585 345.641 132.82 277.835C186.992 210.347 246.597 149.121 314.118 178.235C394.759 212.966 448.795 192.27 496.631 239.963Z" stroke="url(#paint9_linear_94_1051)" stroke-width="1.37" stroke-miterlimit="10"/>
<path opacity="0.41" d="M498.625 235.127C601.766 351.725 487.514 615.285 308.197 518.86C234.123 479.028 74.9652 335.072 135.222 270.502C194.806 206.277 251.895 137.074 317.89 174.925C396.197 219.864 453.475 184.075 498.625 235.127Z" stroke="url(#paint10_linear_94_1051)" stroke-width="1.37" stroke-miterlimit="10"/>
<path opacity="0.45" d="M500.66 230.277C590.125 346.075 502.634 608.977 308.291 523.086C229.198 488.125 71.8924 324.497 137.589 263.162C202.594 202.214 257.26 125.006 321.648 171.635C397.737 226.736 458.454 175.691 500.66 230.277Z" stroke="url(#paint11_linear_94_1051)" stroke-width="1.37" stroke-miterlimit="10"/>
<path opacity="0.49" d="M502.641 225.42C579.109 340.228 517.659 602.403 308.373 527.312C224.212 497.119 68.7991 313.901 139.977 255.829C210.401 198.171 262.667 112.938 325.413 168.324C399.317 233.607 463.813 167.13 502.641 225.42Z" stroke="url(#paint12_linear_94_1051)" stroke-width="1.37" stroke-miterlimit="10"/>
<path opacity="0.53" d="M504.642 220.563C568.778 334.394 532.542 595.586 308.455 531.538C219.152 506.026 65.7129 303.36 142.365 248.49C218.202 194.074 268.121 100.871 329.178 165.055C400.945 240.492 469.64 158.441 504.642 220.563Z" stroke="url(#paint13_linear_94_1051)" stroke-width="1.37" stroke-miterlimit="10"/>
<path opacity="0.56" d="M506.643 215.706C559.126 328.777 547.302 588.586 308.536 535.764C214.044 514.865 62.6263 292.785 144.752 241.157C226.003 190.011 273.635 88.8306 332.942 161.792C402.614 247.425 476.003 149.704 506.643 215.706Z" stroke="url(#paint14_linear_94_1051)" stroke-width="1.37" stroke-miterlimit="10"/>
<path opacity="0.6" d="M508.644 210.856C550.131 323.608 561.9 581.463 308.61 539.99C208.855 523.663 59.5331 282.223 147.167 233.824C233.811 185.941 279.11 76.8037 336.707 158.475C404.337 254.33 482.942 141.001 508.644 210.856Z" stroke="url(#paint15_linear_94_1051)" stroke-width="1.37" stroke-miterlimit="10"/>
<path d="M373.133 549.419C188.159 925.507 -44.1365 254.046 200.593 261.806C323.147 265.686 281.423 -20.2996 401.311 2.95364C521.2 26.2069 478.119 144.725 521.967 277.808C576.749 443.999 420.949 452.234 373.133 549.419Z" stroke="url(#paint16_linear_94_1051)" stroke-width="1.37" stroke-miterlimit="10"/>
<g style="mix-blend-mode:hard-light" opacity="0.94">
<path d="M378.397 553.441C191.462 905.863 -41.5927 273.629 195.525 260.937C313.332 254.636 294.956 -22.3143 409.431 8.10892C523.907 38.5322 490.872 155.239 524.863 284.055C567.849 444.542 427.746 460.422 378.397 553.441Z" stroke="url(#paint17_linear_94_1051)" stroke-width="1.37" stroke-miterlimit="10"/>
</g>
<g style="mix-blend-mode:hard-light" opacity="0.88">
<path d="M383.648 557.464C195.234 886.191 -39.4763 293.416 190.445 260.076C303.319 243.708 308.475 -24.3289 417.544 13.2643C526.566 50.7083 503.156 165.835 527.746 290.235C558.38 445.207 434.631 468.514 383.648 557.464Z" stroke="url(#paint18_linear_94_1051)" stroke-width="1.37" stroke-miterlimit="10"/>
</g>
<g style="mix-blend-mode:hard-light" opacity="0.81">
<path d="M388.898 561.493C199.548 866.519 -37.7398 313.535 185.357 259.214C293.151 232.963 321.994 -26.364 425.657 18.406C529.252 62.9182 515.678 176.336 530.629 296.448C549.208 445.749 441.645 476.559 388.898 561.493Z" stroke="url(#paint19_linear_94_1051)" stroke-width="1.37" stroke-miterlimit="10"/>
</g>
<g style="mix-blend-mode:hard-light" opacity="0.75">
<path d="M394.162 565.516C204.452 846.909 -36.2747 334.096 180.276 258.346C282.868 222.462 335.513 -28.3583 433.763 23.5749C531.931 75.1282 528.221 186.795 533.478 302.655C540.064 446.238 448.72 484.557 394.162 565.516Z" stroke="url(#paint20_linear_94_1051)" stroke-width="1.37" stroke-miterlimit="10"/>
</g>
<g style="mix-blend-mode:hard-light" opacity="0.69">
<path d="M399.392 569.538C210.021 827.407 -34.9383 355.185 175.196 257.505C272.543 212.226 349.032 -30.3729 441.876 28.7303C534.611 87.379 540.79 197.222 536.388 308.882C530.954 446.685 455.965 492.507 399.392 569.538Z" stroke="url(#paint21_linear_94_1051)" stroke-width="1.37" stroke-miterlimit="10"/>
</g>
<g style="mix-blend-mode:hard-light" opacity="0.63">
<path d="M404.642 573.561C216.303 808.094 -33.5613 376.783 170.115 256.616C262.246 202.261 362.551 -32.3876 449.989 33.8856C537.29 99.6093 553.407 207.607 539.271 315.082C521.905 447.099 463.352 500.443 404.642 573.561Z" stroke="url(#paint22_linear_94_1051)" stroke-width="1.37" stroke-miterlimit="10"/>
</g>
<g style="mix-blend-mode:hard-light" opacity="0.56">
<path d="M409.892 577.583C223.351 789.054 -31.9877 398.904 165.014 255.755C252.024 192.534 376.05 -34.4022 458.054 39.041C540.003 111.846 566.078 217.979 542.154 321.295C512.931 447.479 470.935 508.393 409.892 577.583Z" stroke="url(#paint23_linear_94_1051)" stroke-width="1.37" stroke-miterlimit="10"/>
</g>
<g style="mix-blend-mode:hard-light" opacity="0.5">
<path d="M415.143 581.606C231.145 770.42 -30.0816 421.438 159.947 254.887C242.025 182.983 389.59 -36.4236 466.207 44.1896C542.649 124.077 578.811 228.337 545.037 327.495C504.052 447.866 478.709 516.391 415.143 581.606Z" stroke="url(#paint24_linear_94_1051)" stroke-width="1.37" stroke-miterlimit="10"/>
</g>
<g style="mix-blend-mode:hard-light" opacity="0.44">
<path d="M420.393 585.635C239.719 752.227 -27.7617 444.284 154.866 254.025C232.108 173.561 403.109 -38.4316 474.32 49.3515C545.328 136.314 591.618 238.729 547.92 333.716C495.233 448.266 486.7 524.497 420.393 585.635Z" stroke="url(#paint25_linear_94_1051)" stroke-width="1.37" stroke-miterlimit="10"/>
</g>
<g style="mix-blend-mode:hard-light" opacity="0.38">
<path d="M425.643 589.658C248.998 734.658 -25.0076 467.307 149.785 253.164C222.401 164.2 416.628 -40.4461 482.426 54.507C548.008 148.551 604.479 249.148 550.796 339.929C486.469 448.707 494.921 532.779 425.643 589.658Z" stroke="url(#paint26_linear_94_1051)" stroke-width="1.37" stroke-miterlimit="10"/>
</g>
<g style="mix-blend-mode:hard-light" opacity="0.31">
<path d="M430.894 593.68C258.95 717.815 -21.826 490.404 144.705 252.295C212.857 154.853 430.147 -42.4608 490.54 59.6487C550.687 160.768 617.388 259.608 553.679 346.129C477.773 449.216 503.374 541.347 430.894 593.68Z" stroke="url(#paint27_linear_94_1051)" stroke-width="1.37" stroke-miterlimit="10"/>
</g>
<g style="mix-blend-mode:hard-light" opacity="0.25">
<path d="M436.144 597.703C269.348 701.82 -18.2649 513.495 139.624 251.434C203.455 145.485 443.68 -44.4754 498.625 64.8177C553.339 173.019 630.296 270.156 556.534 352.356C469.111 449.799 512.076 550.301 436.144 597.703Z" stroke="url(#paint28_linear_94_1051)" stroke-width="1.37" stroke-miterlimit="10"/>
</g>
<g style="mix-blend-mode:hard-light" opacity="0.19">
<path d="M441.394 601.725C280.052 686.761 -14.3917 536.51 134.536 250.572C194.175 136.07 457.186 -46.49 506.765 69.973C556.053 185.249 643.273 280.752 559.451 358.563C460.455 450.45 521.01 559.784 441.394 601.725Z" stroke="url(#paint29_linear_94_1051)" stroke-width="1.37" stroke-miterlimit="10"/>
</g>
<g style="mix-blend-mode:hard-light" opacity="0.13">
<path d="M446.644 605.748C290.723 672.74 -10.2538 559.411 129.456 249.704C184.991 126.593 470.705 -48.5048 514.905 75.1283C558.759 197.486 656.236 291.401 562.388 364.777C451.82 451.169 530.012 569.952 446.644 605.748Z" stroke="url(#paint30_linear_94_1051)" stroke-width="1.37" stroke-miterlimit="10"/>
</g>
<g style="mix-blend-mode:hard-light" opacity="0.06">
<path d="M451.895 609.777C301.02 659.689 -5.91236 582.176 124.375 248.843C175.888 117.049 484.224 -50.5194 522.984 80.2836C561.405 209.716 669.124 302.099 565.204 370.99C443.104 451.936 539.067 580.934 451.895 609.777Z" stroke="url(#paint31_linear_94_1051)" stroke-width="1.37" stroke-miterlimit="10"/>
</g>
<path opacity="0.03" d="M165.97 457.824C-241.328 409.458 242.941 -112.2 357.593 136.083C414.62 259.574 663.216 120.577 684.733 256.243C706.249 391.91 583.769 406.833 479.204 498.652C349.134 613.793 273.717 470.597 165.97 457.824Z" stroke="url(#paint32_linear_94_1051)" stroke-width="1.37" stroke-miterlimit="10"/>
<path opacity="0.05" d="M164.526 465.17C-221.039 405.117 225.65 -101.238 356.189 130.263C420.461 244.223 670.935 134.198 683.478 267.164C696.156 400.009 579.245 424.538 474.7 504.405C344.359 603.97 269.349 481.497 164.526 465.17Z" stroke="url(#paint33_linear_94_1051)" stroke-width="1.37" stroke-miterlimit="10"/>
<path opacity="0.07" d="M163.074 472.53C-200.506 401.407 207.953 -90.446 354.819 124.457C426.125 228.832 678.729 147.812 682.257 278.079C685.988 408.19 574.944 442.493 470.196 510.171C339.895 594.393 265.048 492.473 163.074 472.53Z" stroke="url(#paint34_linear_94_1051)" stroke-width="1.37" stroke-miterlimit="10"/>
<path opacity="0.1" d="M161.629 479.883C-179.783 398.436 189.78 -79.8098 353.374 118.643C431.47 213.386 686.435 161.419 680.968 288.98C675.813 416.289 570.698 460.422 465.692 515.936C335.432 584.808 260.883 503.564 161.629 479.883Z" stroke="url(#paint35_linear_94_1051)" stroke-width="1.37" stroke-miterlimit="10"/>
<path opacity="0.13" d="M160.177 487.236C-158.911 396.245 171.085 -69.1601 351.969 112.83C436.591 197.974 694.168 175.026 679.74 299.887C665.665 424.429 566.533 478.357 461.215 521.702C331.077 575.236 256.819 514.797 160.177 487.236Z" stroke="url(#paint36_linear_94_1051)" stroke-width="1.37" stroke-miterlimit="10"/>
<path opacity="0.15" d="M158.726 494.589C-137.971 394.935 151.881 -58.3337 350.565 107.01C441.462 182.658 701.901 188.634 678.458 310.781C655.469 432.563 562.388 496.326 456.684 527.455C326.796 565.706 252.838 526.22 158.726 494.589Z" stroke="url(#paint37_linear_94_1051)" stroke-width="1.37" stroke-miterlimit="10"/>
<path opacity="0.18" d="M157.281 501.942C-117.037 394.562 132.223 -47.1821 349.154 101.203C446.102 167.517 709.641 202.275 677.203 321.696C645.322 440.702 558.312 514.342 452.18 533.214C322.584 556.25 248.903 537.813 157.281 501.942Z" stroke="url(#paint38_linear_94_1051)" stroke-width="1.37" stroke-miterlimit="10"/>
<path opacity="0.2" d="M155.829 509.295C-96.2325 395.159 112.219 -35.5757 347.75 95.3901C450.592 152.574 717.381 215.855 675.948 332.596C635.126 448.836 554.248 532.447 447.676 538.973C318.412 546.889 244.976 549.663 155.829 509.295Z" stroke="url(#paint39_linear_94_1051)" stroke-width="1.37" stroke-miterlimit="10"/>
<path opacity="0.23" d="M154.385 516.649C-75.6654 396.747 91.9779 -23.4403 346.353 89.5768C455.008 137.861 725.121 229.463 674.7 343.497C624.951 456.976 550.253 550.64 443.171 544.732C314.261 537.63 241.001 561.799 154.385 516.649Z" stroke="url(#paint40_linear_94_1051)" stroke-width="1.37" stroke-miterlimit="10"/>
<path opacity="0.25" d="M152.933 524.002C-55.4918 399.283 71.7229 -10.7623 344.942 83.7634C459.384 123.358 732.854 243.07 673.438 354.418C614.783 465.122 546.21 568.921 438.667 550.504C310.082 528.472 236.904 574.253 152.933 524.002Z" stroke="url(#paint41_linear_94_1051)" stroke-width="1.37" stroke-miterlimit="10"/>
<path opacity="0.28" d="M151.488 531.355C-35.8541 402.682 51.4949 2.41778 343.531 77.9502C463.806 109.059 740.593 256.678 672.183 365.306C604.608 473.249 542.12 587.27 434.183 556.25C305.843 519.437 232.59 587.067 151.488 531.355Z" stroke="url(#paint42_linear_94_1051)" stroke-width="1.37" stroke-miterlimit="10"/>
<path opacity="0.3" d="M150.036 538.708C-16.9083 406.833 31.4229 16.0453 342.127 72.1367C468.297 94.9152 748.326 270.285 670.929 376.213C594.44 481.382 537.968 605.653 429.652 562.015C301.535 510.394 227.929 600.253 150.036 538.708Z" stroke="url(#paint43_linear_94_1051)" stroke-width="1.37" stroke-miterlimit="10"/>
<path opacity="0.33" d="M148.605 546.061C1.19651 411.473 11.5818 30.0258 340.723 66.3099C472.903 80.8805 756.066 283.879 669.674 387.101C584.265 489.529 533.742 624.063 425.148 567.761C297.16 501.406 222.794 613.827 148.605 546.061Z" stroke="url(#paint44_linear_94_1051)" stroke-width="1.37" stroke-miterlimit="10"/>
<path opacity="0.35" d="M147.14 553.414C18.3176 416.391 -8.04924 44.2776 339.312 60.5101C477.597 66.9882 763.799 297.499 668.425 398.015C574.096 497.655 529.462 642.5 420.617 573.534C292.683 492.425 217.035 627.76 147.14 553.414Z" stroke="url(#paint45_linear_94_1051)" stroke-width="1.37" stroke-miterlimit="10"/>
<path opacity="0.38" d="M145.688 560.767C34.3466 421.268 -27.4156 58.7058 337.908 54.7308C482.433 53.1435 771.539 311.141 667.171 408.956C563.921 505.829 525.128 660.957 416.14 579.327C288.159 483.431 210.51 641.978 145.688 560.767Z" stroke="url(#paint46_linear_94_1051)" stroke-width="1.37" stroke-miterlimit="10"/>
<path opacity="0.4" d="M144.243 568.127C49.2292 425.718 -46.5379 73.256 336.503 48.8835C487.358 39.2783 779.279 324.755 665.916 419.83C553.746 513.928 520.752 679.32 411.636 585.052C283.593 474.416 203.109 656.351 144.243 568.127Z" stroke="url(#paint47_linear_94_1051)" stroke-width="1.37" stroke-miterlimit="10"/>
<defs>
<linearGradient id="paint0_linear_94_1051" x1="111.223" y1="190.353" x2="551.466" y2="557.579" gradientUnits="userSpaceOnUse">
<stop stop-color="#1813BF"/>
<stop offset="0.463542" stop-color="#954DC8"/>
<stop offset="1" stop-color="#FF8153"/>
</linearGradient>
<linearGradient id="paint1_linear_94_1051" x1="113.25" y1="190.87" x2="551.744" y2="553.209" gradientUnits="userSpaceOnUse">
<stop stop-color="#1813BF"/>
<stop offset="0.463542" stop-color="#954DC8"/>
<stop offset="1" stop-color="#FF8153"/>
</linearGradient>
<linearGradient id="paint2_linear_94_1051" x1="115.042" y1="191.217" x2="552.065" y2="548.824" gradientUnits="userSpaceOnUse">
<stop stop-color="#1813BF"/>
<stop offset="0.463542" stop-color="#954DC8"/>
<stop offset="1" stop-color="#FF8153"/>
</linearGradient>
<linearGradient id="paint3_linear_94_1051" x1="116.599" y1="191.411" x2="552.417" y2="544.465" gradientUnits="userSpaceOnUse">
<stop stop-color="#1813BF"/>
<stop offset="0.463542" stop-color="#954DC8"/>
<stop offset="1" stop-color="#FF8153"/>
</linearGradient>
<linearGradient id="paint4_linear_94_1051" x1="117.94" y1="191.328" x2="552.863" y2="540.002" gradientUnits="userSpaceOnUse">
<stop stop-color="#1813BF"/>
<stop offset="0.463542" stop-color="#954DC8"/>
<stop offset="1" stop-color="#FF8153"/>
</linearGradient>
<linearGradient id="paint5_linear_94_1051" x1="119.085" y1="190.621" x2="553.785" y2="535.016" gradientUnits="userSpaceOnUse">
<stop stop-color="#1813BF"/>
<stop offset="0.463542" stop-color="#954DC8"/>
<stop offset="1" stop-color="#FF8153"/>
</linearGradient>
<linearGradient id="paint6_linear_94_1051" x1="119.999" y1="187.87" x2="556.438" y2="527.827" gradientUnits="userSpaceOnUse">
<stop stop-color="#1813BF"/>
<stop offset="0.463542" stop-color="#954DC8"/>
<stop offset="1" stop-color="#FF8153"/>
</linearGradient>
<linearGradient id="paint7_linear_94_1051" x1="120.73" y1="182.959" x2="560.84" y2="518.213" gradientUnits="userSpaceOnUse">
<stop stop-color="#1813BF"/>
<stop offset="0.463542" stop-color="#954DC8"/>
<stop offset="1" stop-color="#FF8153"/>
</linearGradient>
<linearGradient id="paint8_linear_94_1051" x1="121.284" y1="177.115" x2="565.752" y2="507.676" gradientUnits="userSpaceOnUse">
<stop stop-color="#1813BF"/>
<stop offset="0.463542" stop-color="#954DC8"/>
<stop offset="1" stop-color="#FF8153"/>
</linearGradient>
<linearGradient id="paint9_linear_94_1051" x1="121.662" y1="170.799" x2="570.748" y2="496.821" gradientUnits="userSpaceOnUse">
<stop stop-color="#1813BF"/>
<stop offset="0.463542" stop-color="#954DC8"/>
<stop offset="1" stop-color="#FF8153"/>
</linearGradient>
<linearGradient id="paint10_linear_94_1051" x1="121.882" y1="164.162" x2="575.808" y2="485.84" gradientUnits="userSpaceOnUse">
<stop stop-color="#1813BF"/>
<stop offset="0.463542" stop-color="#954DC8"/>
<stop offset="1" stop-color="#FF8153"/>
</linearGradient>
<linearGradient id="paint11_linear_94_1051" x1="121.929" y1="157.34" x2="580.832" y2="474.981" gradientUnits="userSpaceOnUse">
<stop stop-color="#1813BF"/>
<stop offset="0.463542" stop-color="#954DC8"/>
<stop offset="1" stop-color="#FF8153"/>
</linearGradient>
<linearGradient id="paint12_linear_94_1051" x1="121.826" y1="150.377" x2="585.885" y2="464.244" gradientUnits="userSpaceOnUse">
<stop stop-color="#1813BF"/>
<stop offset="0.463542" stop-color="#954DC8"/>
<stop offset="1" stop-color="#FF8153"/>
</linearGradient>
<linearGradient id="paint13_linear_94_1051" x1="121.574" y1="143.327" x2="591.018" y2="453.764" gradientUnits="userSpaceOnUse">
<stop stop-color="#1813BF"/>
<stop offset="0.463542" stop-color="#954DC8"/>
<stop offset="1" stop-color="#FF8153"/>
</linearGradient>
<linearGradient id="paint14_linear_94_1051" x1="121.178" y1="136.22" x2="596.289" y2="443.586" gradientUnits="userSpaceOnUse">
<stop stop-color="#1813BF"/>
<stop offset="0.463542" stop-color="#954DC8"/>
<stop offset="1" stop-color="#FF8153"/>
</linearGradient>
<linearGradient id="paint15_linear_94_1051" x1="120.651" y1="129.036" x2="601.791" y2="433.684" gradientUnits="userSpaceOnUse">
<stop stop-color="#1813BF"/>
<stop offset="0.463542" stop-color="#954DC8"/>
<stop offset="1" stop-color="#FF8153"/>
</linearGradient>
<linearGradient id="paint16_linear_94_1051" x1="94.8989" y1="1.60852" x2="704.659" y2="260.032" gradientUnits="userSpaceOnUse">
<stop stop-color="#1813BF"/>
<stop offset="0.463542" stop-color="#954DC8"/>
<stop offset="1" stop-color="#FF8153"/>
</linearGradient>
<linearGradient id="paint17_linear_94_1051" x1="95.1207" y1="5.77502" x2="701.899" y2="265.598" gradientUnits="userSpaceOnUse">
<stop stop-color="#1813BF"/>
<stop offset="0.463542" stop-color="#954DC8"/>
<stop offset="1" stop-color="#FF8153"/>
</linearGradient>
<linearGradient id="paint18_linear_94_1051" x1="95.1514" y1="9.6543" x2="699.311" y2="271.151" gradientUnits="userSpaceOnUse">
<stop stop-color="#1813BF"/>
<stop offset="0.463542" stop-color="#954DC8"/>
<stop offset="1" stop-color="#FF8153"/>
</linearGradient>
<linearGradient id="paint19_linear_94_1051" x1="95.0171" y1="13.2242" x2="697.325" y2="277.082" gradientUnits="userSpaceOnUse">
<stop stop-color="#1813BF"/>
<stop offset="0.463542" stop-color="#954DC8"/>
<stop offset="1" stop-color="#FF8153"/>
</linearGradient>
<linearGradient id="paint20_linear_94_1051" x1="94.767" y1="16.5247" x2="696.154" y2="283.65" gradientUnits="userSpaceOnUse">
<stop stop-color="#1813BF"/>
<stop offset="0.463542" stop-color="#954DC8"/>
<stop offset="1" stop-color="#FF8153"/>
</linearGradient>
<linearGradient id="paint21_linear_94_1051" x1="94.4583" y1="19.5092" x2="697.311" y2="292.459" gradientUnits="userSpaceOnUse">
<stop stop-color="#1813BF"/>
<stop offset="0.463542" stop-color="#954DC8"/>
<stop offset="1" stop-color="#FF8153"/>
</linearGradient>
<linearGradient id="paint22_linear_94_1051" x1="94.1561" y1="22.1926" x2="700.895" y2="303.768" gradientUnits="userSpaceOnUse">
<stop stop-color="#1813BF"/>
<stop offset="0.463542" stop-color="#954DC8"/>
<stop offset="1" stop-color="#FF8153"/>
</linearGradient>
<linearGradient id="paint23_linear_94_1051" x1="93.9066" y1="24.5759" x2="704.759" y2="315.152" gradientUnits="userSpaceOnUse">
<stop stop-color="#1813BF"/>
<stop offset="0.463542" stop-color="#954DC8"/>
<stop offset="1" stop-color="#FF8153"/>
</linearGradient>
<linearGradient id="paint24_linear_94_1051" x1="93.7627" y1="26.6531" x2="708.698" y2="326.246" gradientUnits="userSpaceOnUse">
<stop stop-color="#1813BF"/>
<stop offset="0.463542" stop-color="#954DC8"/>
<stop offset="1" stop-color="#FF8153"/>
</linearGradient>
<linearGradient id="paint25_linear_94_1051" x1="93.7159" y1="28.4444" x2="712.67" y2="337.001" gradientUnits="userSpaceOnUse">
<stop stop-color="#1813BF"/>
<stop offset="0.463542" stop-color="#954DC8"/>
<stop offset="1" stop-color="#FF8153"/>
</linearGradient>
<linearGradient id="paint26_linear_94_1051" x1="93.7397" y1="29.9304" x2="716.684" y2="347.339" gradientUnits="userSpaceOnUse">
<stop stop-color="#1813BF"/>
<stop offset="0.463542" stop-color="#954DC8"/>
<stop offset="1" stop-color="#FF8153"/>
</linearGradient>
<linearGradient id="paint27_linear_94_1051" x1="93.7955" y1="31.1097" x2="720.762" y2="357.258" gradientUnits="userSpaceOnUse">
<stop stop-color="#1813BF"/>
<stop offset="0.463542" stop-color="#954DC8"/>
<stop offset="1" stop-color="#FF8153"/>
</linearGradient>
<linearGradient id="paint28_linear_94_1051" x1="93.808" y1="32.004" x2="724.884" y2="366.79" gradientUnits="userSpaceOnUse">
<stop stop-color="#1813BF"/>
<stop offset="0.463542" stop-color="#954DC8"/>
<stop offset="1" stop-color="#FF8153"/>
</linearGradient>
<linearGradient id="paint29_linear_94_1051" x1="93.707" y1="32.5925" x2="729.131" y2="376.04" gradientUnits="userSpaceOnUse">
<stop stop-color="#1813BF"/>
<stop offset="0.463542" stop-color="#954DC8"/>
<stop offset="1" stop-color="#FF8153"/>
</linearGradient>
<linearGradient id="paint30_linear_94_1051" x1="93.4313" y1="32.8842" x2="733.473" y2="384.994" gradientUnits="userSpaceOnUse">
<stop stop-color="#1813BF"/>
<stop offset="0.463542" stop-color="#954DC8"/>
<stop offset="1" stop-color="#FF8153"/>
</linearGradient>
<linearGradient id="paint31_linear_94_1051" x1="92.9174" y1="32.8831" x2="737.839" y2="393.629" gradientUnits="userSpaceOnUse">
<stop stop-color="#1813BF"/>
<stop offset="0.463542" stop-color="#954DC8"/>
<stop offset="1" stop-color="#FF8153"/>
</linearGradient>
<linearGradient id="paint32_linear_94_1051" x1="5.78418" y1="69.4186" x2="610.679" y2="626.286" gradientUnits="userSpaceOnUse">
<stop stop-color="#1813BF"/>
<stop offset="0.463542" stop-color="#954DC8"/>
<stop offset="1" stop-color="#FF8153"/>
</linearGradient>
<linearGradient id="paint33_linear_94_1051" x1="11.0532" y1="70.0403" x2="614.452" y2="619.823" gradientUnits="userSpaceOnUse">
<stop stop-color="#1813BF"/>
<stop offset="0.463542" stop-color="#954DC8"/>
<stop offset="1" stop-color="#FF8153"/>
</linearGradient>
<linearGradient id="paint34_linear_94_1051" x1="16.3237" y1="70.517" x2="618.531" y2="613.772" gradientUnits="userSpaceOnUse">
<stop stop-color="#1813BF"/>
<stop offset="0.463542" stop-color="#954DC8"/>
<stop offset="1" stop-color="#FF8153"/>
</linearGradient>
<linearGradient id="paint35_linear_94_1051" x1="21.552" y1="70.8274" x2="622.795" y2="608.23" gradientUnits="userSpaceOnUse">
<stop stop-color="#1813BF"/>
<stop offset="0.463542" stop-color="#954DC8"/>
<stop offset="1" stop-color="#FF8153"/>
</linearGradient>
<linearGradient id="paint36_linear_94_1051" x1="26.6954" y1="71.0079" x2="627.172" y2="603.087" gradientUnits="userSpaceOnUse">
<stop stop-color="#1813BF"/>
<stop offset="0.463542" stop-color="#954DC8"/>
<stop offset="1" stop-color="#FF8153"/>
</linearGradient>
<linearGradient id="paint37_linear_94_1051" x1="31.7035" y1="71.0762" x2="631.604" y2="598.221" gradientUnits="userSpaceOnUse">
<stop stop-color="#1813BF"/>
<stop offset="0.463542" stop-color="#954DC8"/>
<stop offset="1" stop-color="#FF8153"/>
</linearGradient>
<linearGradient id="paint38_linear_94_1051" x1="36.531" y1="71.0417" x2="636.086" y2="593.717" gradientUnits="userSpaceOnUse">
<stop stop-color="#1813BF"/>
<stop offset="0.463542" stop-color="#954DC8"/>
<stop offset="1" stop-color="#FF8153"/>
</linearGradient>
<linearGradient id="paint39_linear_94_1051" x1="41.1101" y1="70.8619" x2="640.708" y2="589.519" gradientUnits="userSpaceOnUse">
<stop stop-color="#1813BF"/>
<stop offset="0.463542" stop-color="#954DC8"/>
<stop offset="1" stop-color="#FF8153"/>
</linearGradient>
<linearGradient id="paint40_linear_94_1051" x1="45.3812" y1="70.4698" x2="646.217" y2="585.469" gradientUnits="userSpaceOnUse">
<stop stop-color="#1813BF"/>
<stop offset="0.463542" stop-color="#954DC8"/>
<stop offset="1" stop-color="#FF8153"/>
</linearGradient>
<linearGradient id="paint41_linear_94_1051" x1="49.2737" y1="69.7489" x2="658.474" y2="580.441" gradientUnits="userSpaceOnUse">
<stop stop-color="#1813BF"/>
<stop offset="0.463542" stop-color="#954DC8"/>
<stop offset="1" stop-color="#FF8153"/>
</linearGradient>
<linearGradient id="paint42_linear_94_1051" x1="52.6868" y1="68.5433" x2="671.711" y2="575.103" gradientUnits="userSpaceOnUse">
<stop stop-color="#1813BF"/>
<stop offset="0.463542" stop-color="#954DC8"/>
<stop offset="1" stop-color="#FF8153"/>
</linearGradient>
<linearGradient id="paint43_linear_94_1051" x1="55.5226" y1="66.6675" x2="685.546" y2="569.343" gradientUnits="userSpaceOnUse">
<stop stop-color="#1813BF"/>
<stop offset="0.463542" stop-color="#954DC8"/>
<stop offset="1" stop-color="#FF8153"/>
</linearGradient>
<linearGradient id="paint44_linear_94_1051" x1="57.6864" y1="63.8887" x2="699.806" y2="562.996" gradientUnits="userSpaceOnUse">
<stop stop-color="#1813BF"/>
<stop offset="0.463542" stop-color="#954DC8"/>
<stop offset="1" stop-color="#FF8153"/>
</linearGradient>
<linearGradient id="paint45_linear_94_1051" x1="59.0509" y1="59.9954" x2="714.42" y2="555.932" gradientUnits="userSpaceOnUse">
<stop stop-color="#1813BF"/>
<stop offset="0.463542" stop-color="#954DC8"/>
<stop offset="1" stop-color="#FF8153"/>
</linearGradient>
<linearGradient id="paint46_linear_94_1051" x1="59.5693" y1="54.7235" x2="729.438" y2="547.873" gradientUnits="userSpaceOnUse">
<stop stop-color="#1813BF"/>
<stop offset="0.463542" stop-color="#954DC8"/>
<stop offset="1" stop-color="#FF8153"/>
</linearGradient>
<linearGradient id="paint47_linear_94_1051" x1="59.2098" y1="48.6469" x2="744.163" y2="539.62" gradientUnits="userSpaceOnUse">
<stop stop-color="#1813BF"/>
<stop offset="0.463542" stop-color="#954DC8"/>
<stop offset="1" stop-color="#FF8153"/>
</linearGradient>
</defs>
</svg>
