<svg width="788" height="523" viewBox="0 0 788 523" fill="none" xmlns="http://www.w3.org/2000/svg">
<g filter="url(#filter0_f_70_11)">
<path d="M731.111 332.812C785.705 360.718 721.506 248.223 707.972 180.204C692.243 101.155 733.228 68.435 678.634 40.5287C624.04 12.6225 557.161 34.2569 529.255 88.8506C501.349 143.444 676.517 304.906 731.111 332.812Z" fill="url(#paint0_linear_70_11)" fill-opacity="0.35"/>
</g>
<g filter="url(#filter1_f_70_11)">
<path d="M669.438 336.434C677.86 362.976 636.302 439.974 578.537 437.808C511.405 435.291 468.821 459.094 460.4 432.552C451.978 406.009 492.528 369.461 550.97 350.919C609.411 332.377 661.017 309.891 669.438 336.434Z" fill="url(#paint1_linear_70_11)" fill-opacity="0.3"/>
</g>
<g filter="url(#filter2_f_70_11)">
<path d="M556.826 295.751C634.388 293.051 606.79 249.366 501.085 247.373C475.442 246.889 446.049 228.667 368.486 231.367C290.924 234.068 182.49 122.006 184.623 183.282C186.757 244.557 479.263 298.452 556.826 295.751Z" fill="url(#paint2_linear_70_11)" fill-opacity="0.3"/>
</g>
<defs>
<filter id="filter0_f_70_11" x="507.264" y="9.3396" width="264.505" height="346.834" filterUnits="userSpaceOnUse" color-interpolation-filters="sRGB">
<feFlood flood-opacity="0" result="BackgroundImageFix"/>
<feBlend mode="normal" in="SourceGraphic" in2="BackgroundImageFix" result="shape"/>
<feGaussianBlur stdDeviation="9.5" result="effect1_foregroundBlur_70_11"/>
</filter>
<filter id="filter1_f_70_11" x="440.293" y="305.271" width="249.231" height="158.951" filterUnits="userSpaceOnUse" color-interpolation-filters="sRGB">
<feFlood flood-opacity="0" result="BackgroundImageFix"/>
<feBlend mode="normal" in="SourceGraphic" in2="BackgroundImageFix" result="shape"/>
<feGaussianBlur stdDeviation="9.5" result="effect1_foregroundBlur_70_11"/>
</filter>
<filter id="filter2_f_70_11" x="139.592" y="119.933" width="506.603" height="220.915" filterUnits="userSpaceOnUse" color-interpolation-filters="sRGB">
<feFlood flood-opacity="0" result="BackgroundImageFix"/>
<feBlend mode="normal" in="SourceGraphic" in2="BackgroundImageFix" result="shape"/>
<feGaussianBlur stdDeviation="22.5" result="effect1_foregroundBlur_70_11"/>
</filter>
<linearGradient id="paint0_linear_70_11" x1="579.784" y1="-10" x2="573.712" y2="338.137" gradientUnits="userSpaceOnUse">
<stop stop-color="#1813BF"/>
<stop offset="0.463542" stop-color="#744794"/>
<stop offset="1" stop-color="#E28462"/>
</linearGradient>
<linearGradient id="paint1_linear_70_11" x1="444.998" y1="384.009" x2="603.607" y2="513.556" gradientUnits="userSpaceOnUse">
<stop stop-color="#1813BF"/>
<stop offset="0.463542" stop-color="#744794"/>
<stop offset="1" stop-color="#E28462"/>
</linearGradient>
<linearGradient id="paint2_linear_70_11" x1="184" y1="165.381" x2="241.473" y2="387.433" gradientUnits="userSpaceOnUse">
<stop stop-color="#1813BF"/>
<stop offset="0.463542" stop-color="#744794"/>
<stop offset="1" stop-color="#E28462"/>
</linearGradient>
</defs>
</svg>
