<svg width="691" height="809" viewBox="0 0 691 809" fill="none" xmlns="http://www.w3.org/2000/svg">
<path opacity="0.04" d="M430.613 344.585C745.672 460.773 269.562 809.742 221.954 579.681C198.27 465.204 -23.64 536 -16.9688 417.911C-10.2976 299.821 89.6133 310.006 188.813 252.139C312.383 179.417 347.194 313.825 430.613 344.585Z" stroke="url(#paint0_linear_72_193)" stroke-width="1.37" stroke-miterlimit="10"/>
<path opacity="0.07" d="M433.052 338.667C728.627 460.55 285.203 803.633 222.054 584.831C190.93 476.984 -27.4014 523.145 -14.059 408.975C-0.832305 294.895 96.3672 295.903 193.434 248.13C314.467 188.552 352.535 305.468 433.052 338.667Z" stroke="url(#paint1_linear_72_193)" stroke-width="1.37" stroke-miterlimit="10"/>
<path opacity="0.11" d="M435.499 332.748C711.515 459.757 301.108 797.772 222.153 589.981C183.738 488.88 -31.171 510.266 -11.1491 400.03C8.64955 289.918 102.931 281.618 197.998 244.121C316.384 197.447 357.809 297.002 435.499 332.748Z" stroke="url(#paint2_linear_72_193)" stroke-width="1.37" stroke-miterlimit="10"/>
<path opacity="0.15" d="M437.938 326.853C694.386 458.293 317.36 792.134 222.252 595.156C176.719 500.825 -34.9323 497.378 -8.24749 391.094C18.1645 284.966 109.453 267.333 202.602 240.111C318.228 206.334 363 288.413 437.938 326.853Z" stroke="url(#paint3_linear_72_193)" stroke-width="1.37" stroke-miterlimit="10"/>
<path opacity="0.19" d="M440.376 320.918C677.299 456.152 334.001 786.538 222.351 600.282C169.916 512.853 -38.7019 484.499 -5.33766 382.157C27.6711 280.006 115.926 253.024 207.198 236.102C320.005 215.195 368.142 279.684 440.376 320.918Z" stroke="url(#paint4_linear_72_193)" stroke-width="1.37" stroke-miterlimit="10"/>
<path opacity="0.23" d="M442.815 314.999C660.336 453.242 351.055 780.95 222.45 605.432C163.327 524.766 -42.4632 471.619 -2.40289 373.213C37.2027 275.046 122.366 238.673 211.811 232.092C321.725 224.008 373.259 270.797 442.815 314.999Z" stroke="url(#paint5_linear_72_193)" stroke-width="1.37" stroke-miterlimit="10"/>
<path opacity="0.26" d="M445.254 309.08C643.587 449.555 368.597 775.204 222.55 610.582C156.954 536.653 -46.2246 458.74 0.482103 364.235C46.6928 270.045 128.715 224.231 216.374 228.042C323.395 232.746 378.376 261.72 445.254 309.08Z" stroke="url(#paint6_linear_72_193)" stroke-width="1.37" stroke-miterlimit="10"/>
<path opacity="0.3" d="M447.692 303.161C627.153 445.083 386.519 769.186 222.649 615.74C150.787 548.4 -49.9942 445.893 3.38371 355.34C56.1994 265.134 135.08 209.789 220.962 224.074C325.048 241.393 383.551 252.453 447.692 303.161Z" stroke="url(#paint7_linear_72_193)" stroke-width="1.37" stroke-miterlimit="10"/>
<path opacity="0.34" d="M450.131 297.25C611.124 439.875 404.664 762.788 222.748 620.89C144.669 559.973 -53.7555 432.973 6.29358 346.396C65.7061 260.174 141.445 195.232 225.55 220.065C326.71 249.973 388.817 242.93 450.131 297.25Z" stroke="url(#paint8_linear_72_193)" stroke-width="1.37" stroke-miterlimit="10"/>
<path opacity="0.38" d="M452.57 291.307C595.583 433.956 423.041 755.943 222.847 626.016C138.659 571.406 -57.5333 420.093 9.20347 337.459C75.2211 255.214 147.86 180.599 230.147 216.08C328.421 258.405 394.273 233.184 452.57 291.307Z" stroke="url(#paint9_linear_72_193)" stroke-width="1.37" stroke-miterlimit="10"/>
<path opacity="0.41" d="M455 285.413C580.695 427.508 441.459 748.701 222.93 631.191C132.658 582.649 -61.303 407.214 12.1298 328.523C84.7442 250.254 154.317 165.918 234.743 212.046C330.173 266.813 399.977 223.198 455 285.413Z" stroke="url(#paint10_linear_72_193)" stroke-width="1.37" stroke-miterlimit="10"/>
<path opacity="0.45" d="M457.48 279.502C566.509 420.622 459.885 741.013 223.045 636.341C126.656 593.734 -65.0478 394.326 15.0149 319.579C94.2343 245.303 160.855 151.212 239.323 208.037C332.05 275.187 406.045 212.98 457.48 279.502Z" stroke="url(#paint11_linear_72_193)" stroke-width="1.37" stroke-miterlimit="10"/>
<path opacity="0.49" d="M459.894 273.583C553.084 413.496 478.196 733.003 223.145 641.491C120.58 604.696 -68.8174 381.413 17.9247 310.642C103.749 240.376 167.444 136.505 243.911 204.002C333.976 283.561 412.575 202.547 459.894 273.583Z" stroke="url(#paint12_linear_72_193)" stroke-width="1.37" stroke-miterlimit="10"/>
<path opacity="0.53" d="M462.333 267.664C540.494 406.387 496.333 724.695 223.244 646.641C114.413 615.55 -72.5787 368.567 20.8347 301.698C113.256 235.383 174.09 121.799 248.499 200.018C335.96 291.951 419.677 191.958 462.333 267.664Z" stroke="url(#paint13_linear_72_193)" stroke-width="1.37" stroke-miterlimit="10"/>
<path opacity="0.56" d="M464.771 261.745C528.73 399.542 514.322 716.164 223.343 651.791C108.188 626.322 -76.34 355.679 23.7445 292.762C122.763 230.431 180.811 107.125 253.087 196.042C337.994 300.4 427.431 181.31 464.771 261.745Z" stroke="url(#paint14_linear_72_193)" stroke-width="1.37" stroke-miterlimit="10"/>
<path opacity="0.6" d="M467.21 255.834C517.769 393.243 532.111 707.484 223.434 656.941C101.865 637.043 -80.1096 342.808 26.6874 283.825C132.278 225.471 187.482 92.4685 257.675 191.999C340.093 308.815 435.887 170.704 467.21 255.834Z" stroke="url(#paint15_linear_72_193)" stroke-width="1.37" stroke-miterlimit="10"/>
<path d="M302.067 668.432C76.6429 1126.76 -206.449 308.468 91.7957 317.925C241.15 322.654 190.301 -25.8687 336.406 2.46946C482.511 30.8076 430.01 175.243 483.446 337.427C550.207 539.96 360.338 549.996 302.067 668.432Z" stroke="url(#paint16_linear_72_193)" stroke-width="1.37" stroke-miterlimit="10"/>
<g style="mix-blend-mode:hard-light" opacity="0.94">
<path d="M308.482 673.334C80.6688 1102.82 -203.349 332.334 85.6205 316.867C229.188 309.187 206.793 -28.324 346.302 8.75197C485.81 45.828 445.551 188.056 486.975 345.04C539.361 540.621 368.622 559.973 308.482 673.334Z" stroke="url(#paint17_linear_72_193)" stroke-width="1.37" stroke-miterlimit="10"/>
</g>
<g style="mix-blend-mode:hard-light" opacity="0.88">
<path d="M314.88 678.236C85.2651 1078.85 -200.77 356.448 79.4288 315.817C216.986 295.87 223.269 -30.7792 356.189 15.0347C489.05 60.6667 460.522 200.969 490.489 352.571C527.821 541.431 377.012 569.835 314.88 678.236Z" stroke="url(#paint18_linear_72_193)" stroke-width="1.37" stroke-miterlimit="10"/>
</g>
<g style="mix-blend-mode:hard-light" opacity="0.81">
<path d="M321.278 683.147C90.5226 1054.87 -198.654 380.967 73.2288 314.767C204.594 282.775 239.744 -33.2592 366.075 21.3008C492.324 75.5467 475.782 213.765 494.002 360.143C516.644 542.093 385.56 579.64 321.278 683.147Z" stroke="url(#paint19_linear_72_193)" stroke-width="1.37" stroke-miterlimit="10"/>
</g>
<g style="mix-blend-mode:hard-light" opacity="0.75">
<path d="M327.693 688.049C96.4994 1030.97 -196.868 406.023 67.0371 313.709C192.062 269.979 256.22 -35.6897 375.954 27.5999C495.589 90.4266 491.067 226.512 497.474 367.707C505.501 542.688 394.182 589.386 327.693 688.049Z" stroke="url(#paint20_linear_72_193)" stroke-width="1.37" stroke-miterlimit="10"/>
</g>
<g style="mix-blend-mode:hard-light" opacity="0.69">
<path d="M334.067 692.951C103.286 1007.21 -195.24 431.724 60.8453 312.684C179.48 257.504 272.695 -38.1447 385.841 33.8827C498.855 105.356 506.386 239.218 501.021 375.296C494.399 543.233 403.011 599.075 334.067 692.951Z" stroke="url(#paint21_linear_72_193)" stroke-width="1.37" stroke-miterlimit="10"/>
</g>
<g style="mix-blend-mode:hard-light" opacity="0.63">
<path d="M340.465 697.853C110.941 983.673 -193.561 458.045 54.6536 311.601C166.931 245.361 289.171 -40.6 395.728 40.1654C502.12 120.261 521.762 251.875 504.534 382.852C483.371 543.738 412.013 608.747 340.465 697.853Z" stroke="url(#paint22_linear_72_193)" stroke-width="1.37" stroke-miterlimit="10"/>
</g>
<g style="mix-blend-mode:hard-light" opacity="0.56">
<path d="M346.864 702.755C119.53 960.468 -191.644 485.003 48.437 310.551C154.474 233.506 305.621 -43.0553 405.557 46.4479C505.427 135.174 537.204 264.514 508.047 390.424C472.434 544.2 421.255 618.435 346.864 702.755Z" stroke="url(#paint23_linear_72_193)" stroke-width="1.37" stroke-miterlimit="10"/>
</g>
<g style="mix-blend-mode:hard-light" opacity="0.5">
<path d="M353.262 707.657C129.029 937.76 -189.321 512.465 42.2618 309.493C142.288 221.867 322.122 -45.5186 415.494 52.7225C508.651 150.079 552.72 277.138 511.56 397.98C461.613 544.672 430.729 628.182 353.262 707.657Z" stroke="url(#paint24_linear_72_193)" stroke-width="1.37" stroke-miterlimit="10"/>
</g>
<g style="mix-blend-mode:hard-light" opacity="0.44">
<path d="M359.661 712.568C139.478 915.589 -186.493 540.307 36.0702 308.443C130.203 210.384 338.597 -47.9657 425.381 59.0132C511.916 164.992 568.328 289.802 515.074 405.56C450.867 545.159 440.467 638.06 359.661 712.568Z" stroke="url(#paint25_linear_72_193)" stroke-width="1.37" stroke-miterlimit="10"/>
</g>
<g style="mix-blend-mode:hard-light" opacity="0.38">
<path d="M366.059 717.47C150.787 894.178 -183.137 568.364 29.8783 307.394C118.373 198.976 355.073 -50.4207 435.259 65.2961C515.181 179.905 584.001 302.5 518.579 413.133C440.186 545.697 450.486 648.154 366.059 717.47Z" stroke="url(#paint26_linear_72_193)" stroke-width="1.37" stroke-miterlimit="10"/>
</g>
<g style="mix-blend-mode:hard-light" opacity="0.31">
<path d="M372.457 722.372C162.914 873.652 -179.26 596.512 23.6867 306.335C106.742 187.585 371.548 -52.8761 445.146 71.5621C518.447 194.793 599.733 315.247 522.092 420.688C429.588 546.317 460.787 658.595 372.457 722.372Z" stroke="url(#paint27_linear_72_193)" stroke-width="1.37" stroke-miterlimit="10"/>
</g>
<g style="mix-blend-mode:hard-light" opacity="0.25">
<path d="M378.856 727.274C175.587 854.159 -174.92 624.652 17.4949 305.286C95.2842 176.169 388.04 -55.3312 455 77.8614C521.679 209.723 615.464 328.102 525.572 428.277C419.032 547.028 471.393 669.507 378.856 727.274Z" stroke="url(#paint28_linear_72_193)" stroke-width="1.37" stroke-miterlimit="10"/>
</g>
<g style="mix-blend-mode:hard-light" opacity="0.19">
<path d="M385.254 732.176C188.631 835.807 -170.2 652.701 11.2949 304.236C83.9755 164.694 404.499 -57.7864 464.92 84.144C524.986 224.628 631.278 341.014 529.127 435.841C408.483 547.821 482.28 681.064 385.254 732.176Z" stroke="url(#paint29_linear_72_193)" stroke-width="1.37" stroke-miterlimit="10"/>
</g>
<g style="mix-blend-mode:hard-light" opacity="0.13">
<path d="M391.653 737.078C201.635 818.72 -165.157 680.609 5.10322 303.178C72.7824 153.146 420.974 -60.2416 474.84 90.4266C528.284 239.541 647.076 353.993 532.707 443.413C397.96 548.698 493.25 693.455 391.653 737.078Z" stroke="url(#paint30_linear_72_193)" stroke-width="1.37" stroke-miterlimit="10"/>
</g>
<g style="mix-blend-mode:hard-light" opacity="0.06">
<path d="M398.051 741.989C214.184 802.815 -159.866 708.352 -1.0885 302.128C61.6886 141.515 437.45 -62.6967 484.686 96.7095C531.508 254.446 662.783 367.029 536.137 450.986C387.337 549.632 504.286 706.839 398.051 741.989Z" stroke="url(#paint31_linear_72_193)" stroke-width="1.37" stroke-miterlimit="10"/>
</g>
<path opacity="0.03" d="M49.6026 556.807C-446.761 497.866 143.404 -137.866 283.128 164.711C352.626 315.206 655.582 145.813 681.804 311.147C708.026 476.48 558.763 494.667 431.332 606.564C272.819 746.883 180.91 572.373 49.6026 556.807Z" stroke="url(#paint32_linear_72_193)" stroke-width="1.37" stroke-miterlimit="10"/>
<path opacity="0.05" d="M47.8418 565.76C-422.036 492.575 122.333 -124.507 281.416 157.618C359.743 296.498 664.99 162.413 680.275 324.456C695.725 486.35 553.249 516.243 425.843 613.574C266.999 734.913 175.587 585.658 47.8418 565.76Z" stroke="url(#paint33_linear_72_193)" stroke-width="1.37" stroke-miterlimit="10"/>
<path opacity="0.07" d="M46.0728 574.73C-397.012 488.054 100.765 -111.354 279.747 150.542C366.646 277.741 674.488 179.004 678.787 337.757C683.334 496.32 548.008 538.125 420.354 620.601C261.56 723.24 170.346 599.034 46.0728 574.73Z" stroke="url(#paint34_linear_72_193)" stroke-width="1.37" stroke-miterlimit="10"/>
<path opacity="0.1" d="M44.312 583.69C-371.758 484.433 78.6186 -98.3922 277.986 143.457C373.16 258.918 683.879 195.587 677.216 351.042C670.934 506.19 542.833 559.973 414.865 627.628C256.121 711.559 165.27 612.549 44.312 583.69Z" stroke="url(#paint35_linear_72_193)" stroke-width="1.37" stroke-miterlimit="10"/>
<path opacity="0.13" d="M42.5429 592.652C-346.321 481.762 55.8356 -85.4136 276.275 136.373C379.401 240.136 693.303 212.17 675.72 364.334C658.567 516.11 537.757 581.83 409.409 634.654C250.813 699.895 160.318 626.239 42.5429 592.652Z" stroke="url(#paint36_linear_72_193)" stroke-width="1.37" stroke-miterlimit="10"/>
<path opacity="0.15" d="M40.7738 601.613C-320.802 480.167 32.4327 -72.22 274.563 129.28C385.337 221.47 702.727 228.753 674.157 377.611C646.142 526.022 532.707 603.729 403.887 641.665C245.597 688.28 155.466 640.16 40.7738 601.613Z" stroke="url(#paint37_linear_72_193)" stroke-width="1.37" stroke-miterlimit="10"/>
<path opacity="0.18" d="M39.0131 610.574C-295.291 479.712 8.47602 -58.6297 272.844 122.204C390.991 203.019 712.159 245.377 672.628 390.912C633.775 535.942 527.738 625.685 398.398 648.683C240.464 676.756 150.671 654.288 39.0131 610.574Z" stroke="url(#paint38_linear_72_193)" stroke-width="1.37" stroke-miterlimit="10"/>
<path opacity="0.2" d="M37.2441 619.535C-269.937 480.44 -15.9023 -44.4853 271.133 115.119C396.464 184.807 721.592 261.927 671.099 404.196C621.35 545.854 522.787 647.749 392.909 655.701C235.38 665.349 145.885 668.73 37.2441 619.535Z" stroke="url(#paint39_linear_72_193)" stroke-width="1.37" stroke-miterlimit="10"/>
<path opacity="0.23" d="M35.4831 628.496C-244.873 482.374 -40.5702 -29.6963 269.43 108.035C401.845 166.877 731.024 278.51 669.578 417.481C608.95 555.774 517.918 669.92 387.42 662.72C230.32 654.064 141.04 683.519 35.4831 628.496Z" stroke="url(#paint40_linear_72_193)" stroke-width="1.37" stroke-miterlimit="10"/>
<path opacity="0.25" d="M33.7142 637.457C-220.287 485.466 -65.2543 -14.2458 267.71 100.95C407.177 149.203 740.448 295.093 668.04 430.79C596.558 565.702 512.991 692.199 381.931 669.755C225.228 642.905 136.047 698.696 33.7142 637.457Z" stroke="url(#paint41_linear_72_193)" stroke-width="1.37" stroke-miterlimit="10"/>
<path opacity="0.28" d="M31.9532 646.418C-196.356 489.608 -89.9057 1.8163 265.991 93.8656C412.567 131.777 749.88 311.676 666.511 444.058C584.158 575.606 508.006 714.56 376.467 676.757C220.061 631.893 130.789 714.312 31.9532 646.418Z" stroke="url(#paint42_linear_72_193)" stroke-width="1.37" stroke-miterlimit="10"/>
<path opacity="0.3" d="M30.1843 655.379C-173.267 494.667 -114.367 18.424 264.28 86.7811C418.04 114.541 759.304 328.259 664.982 457.351C571.767 585.517 502.947 736.963 370.945 683.783C214.812 620.874 125.11 730.382 30.1843 655.379Z" stroke="url(#paint43_linear_72_193)" stroke-width="1.37" stroke-miterlimit="10"/>
<path opacity="0.33" d="M28.4401 664.34C-151.203 500.321 -138.547 35.4615 262.569 79.6799C423.653 97.4367 768.737 344.825 663.452 470.619C559.367 595.446 497.797 759.398 365.456 690.785C209.48 609.92 118.853 746.924 28.4401 664.34Z" stroke="url(#paint44_linear_72_193)" stroke-width="1.37" stroke-miterlimit="10"/>
<path opacity="0.35" d="M26.6544 673.301C-130.338 506.314 -162.47 52.8298 260.849 72.6119C429.373 80.5066 778.161 361.424 661.931 483.92C546.975 605.349 492.58 781.867 359.933 697.82C204.024 598.975 111.834 763.904 26.6544 673.301Z" stroke="url(#paint45_linear_72_193)" stroke-width="1.37" stroke-miterlimit="10"/>
<path opacity="0.38" d="M24.8854 682.262C-110.804 512.258 -186.072 70.4131 259.138 65.5688C435.268 63.6344 787.593 378.049 660.402 497.254C534.575 615.31 487.298 804.361 354.477 704.88C198.51 588.014 103.882 781.231 24.8854 682.262Z" stroke="url(#paint46_linear_72_193)" stroke-width="1.37" stroke-miterlimit="10"/>
<path opacity="0.4" d="M23.1246 691.231C-92.6667 517.681 -209.375 88.145 257.427 58.4429C441.269 46.7373 797.025 394.64 658.873 510.506C522.175 625.181 481.966 826.739 348.988 711.857C192.947 577.027 94.8627 798.748 23.1246 691.231Z" stroke="url(#paint47_linear_72_193)" stroke-width="1.37" stroke-miterlimit="10"/>
<defs>
<linearGradient id="paint0_linear_72_193" x1="-17.1162" y1="230.848" x2="519.396" y2="678.376" gradientUnits="userSpaceOnUse">
<stop stop-color="#1813BF"/>
<stop offset="0.463542" stop-color="#954DC8"/>
<stop offset="1" stop-color="#FF8153"/>
</linearGradient>
<linearGradient id="paint1_linear_72_193" x1="-14.6457" y1="231.479" x2="519.734" y2="673.051" gradientUnits="userSpaceOnUse">
<stop stop-color="#1813BF"/>
<stop offset="0.463542" stop-color="#954DC8"/>
<stop offset="1" stop-color="#FF8153"/>
</linearGradient>
<linearGradient id="paint2_linear_72_193" x1="-12.4626" y1="231.901" x2="520.126" y2="667.707" gradientUnits="userSpaceOnUse">
<stop stop-color="#1813BF"/>
<stop offset="0.463542" stop-color="#954DC8"/>
<stop offset="1" stop-color="#FF8153"/>
</linearGradient>
<linearGradient id="paint3_linear_72_193" x1="-10.5648" y1="232.137" x2="520.554" y2="662.394" gradientUnits="userSpaceOnUse">
<stop stop-color="#1813BF"/>
<stop offset="0.463542" stop-color="#954DC8"/>
<stop offset="1" stop-color="#FF8153"/>
</linearGradient>
<linearGradient id="paint4_linear_72_193" x1="-8.93085" y1="232.036" x2="521.099" y2="656.956" gradientUnits="userSpaceOnUse">
<stop stop-color="#1813BF"/>
<stop offset="0.463542" stop-color="#954DC8"/>
<stop offset="1" stop-color="#FF8153"/>
</linearGradient>
<linearGradient id="paint5_linear_72_193" x1="-7.53479" y1="231.175" x2="522.222" y2="650.879" gradientUnits="userSpaceOnUse">
<stop stop-color="#1813BF"/>
<stop offset="0.463542" stop-color="#954DC8"/>
<stop offset="1" stop-color="#FF8153"/>
</linearGradient>
<linearGradient id="paint6_linear_72_193" x1="-6.42212" y1="227.822" x2="525.455" y2="642.119" gradientUnits="userSpaceOnUse">
<stop stop-color="#1813BF"/>
<stop offset="0.463542" stop-color="#954DC8"/>
<stop offset="1" stop-color="#FF8153"/>
</linearGradient>
<linearGradient id="paint7_linear_72_193" x1="-5.53052" y1="221.837" x2="530.82" y2="630.403" gradientUnits="userSpaceOnUse">
<stop stop-color="#1813BF"/>
<stop offset="0.463542" stop-color="#954DC8"/>
<stop offset="1" stop-color="#FF8153"/>
</linearGradient>
<linearGradient id="paint8_linear_72_193" x1="-4.85522" y1="214.715" x2="536.805" y2="617.561" gradientUnits="userSpaceOnUse">
<stop stop-color="#1813BF"/>
<stop offset="0.463542" stop-color="#954DC8"/>
<stop offset="1" stop-color="#FF8153"/>
</linearGradient>
<linearGradient id="paint9_linear_72_193" x1="-4.39532" y1="207.019" x2="542.894" y2="604.332" gradientUnits="userSpaceOnUse">
<stop stop-color="#1813BF"/>
<stop offset="0.463542" stop-color="#954DC8"/>
<stop offset="1" stop-color="#FF8153"/>
</linearGradient>
<linearGradient id="paint10_linear_72_193" x1="-4.12695" y1="198.93" x2="549.06" y2="590.95" gradientUnits="userSpaceOnUse">
<stop stop-color="#1813BF"/>
<stop offset="0.463542" stop-color="#954DC8"/>
<stop offset="1" stop-color="#FF8153"/>
</linearGradient>
<linearGradient id="paint11_linear_72_193" x1="-4.06909" y1="190.616" x2="555.183" y2="577.717" gradientUnits="userSpaceOnUse">
<stop stop-color="#1813BF"/>
<stop offset="0.463542" stop-color="#954DC8"/>
<stop offset="1" stop-color="#FF8153"/>
</linearGradient>
<linearGradient id="paint12_linear_72_193" x1="-4.19501" y1="182.13" x2="561.341" y2="564.632" gradientUnits="userSpaceOnUse">
<stop stop-color="#1813BF"/>
<stop offset="0.463542" stop-color="#954DC8"/>
<stop offset="1" stop-color="#FF8153"/>
</linearGradient>
<linearGradient id="paint13_linear_72_193" x1="-4.50256" y1="173.539" x2="567.596" y2="551.86" gradientUnits="userSpaceOnUse">
<stop stop-color="#1813BF"/>
<stop offset="0.463542" stop-color="#954DC8"/>
<stop offset="1" stop-color="#FF8153"/>
</linearGradient>
<linearGradient id="paint14_linear_72_193" x1="-4.98511" y1="164.877" x2="574.02" y2="539.456" gradientUnits="userSpaceOnUse">
<stop stop-color="#1813BF"/>
<stop offset="0.463542" stop-color="#954DC8"/>
<stop offset="1" stop-color="#FF8153"/>
</linearGradient>
<linearGradient id="paint15_linear_72_193" x1="-5.62689" y1="156.122" x2="580.725" y2="527.389" gradientUnits="userSpaceOnUse">
<stop stop-color="#1813BF"/>
<stop offset="0.463542" stop-color="#954DC8"/>
<stop offset="1" stop-color="#FF8153"/>
</linearGradient>
<linearGradient id="paint16_linear_72_193" x1="-37.0103" y1="0.8302" x2="706.088" y2="315.764" gradientUnits="userSpaceOnUse">
<stop stop-color="#1813BF"/>
<stop offset="0.463542" stop-color="#954DC8"/>
<stop offset="1" stop-color="#FF8153"/>
</linearGradient>
<linearGradient id="paint17_linear_72_193" x1="-36.7401" y1="5.90771" x2="702.724" y2="322.547" gradientUnits="userSpaceOnUse">
<stop stop-color="#1813BF"/>
<stop offset="0.463542" stop-color="#954DC8"/>
<stop offset="1" stop-color="#FF8153"/>
</linearGradient>
<linearGradient id="paint18_linear_72_193" x1="-36.7028" y1="10.6353" x2="699.571" y2="329.314" gradientUnits="userSpaceOnUse">
<stop stop-color="#1813BF"/>
<stop offset="0.463542" stop-color="#954DC8"/>
<stop offset="1" stop-color="#FF8153"/>
</linearGradient>
<linearGradient id="paint19_linear_72_193" x1="-36.8663" y1="14.986" x2="697.151" y2="336.542" gradientUnits="userSpaceOnUse">
<stop stop-color="#1813BF"/>
<stop offset="0.463542" stop-color="#954DC8"/>
<stop offset="1" stop-color="#FF8153"/>
</linearGradient>
<linearGradient id="paint20_linear_72_193" x1="-37.1711" y1="19.0079" x2="695.724" y2="344.546" gradientUnits="userSpaceOnUse">
<stop stop-color="#1813BF"/>
<stop offset="0.463542" stop-color="#954DC8"/>
<stop offset="1" stop-color="#FF8153"/>
</linearGradient>
<linearGradient id="paint21_linear_72_193" x1="-37.5474" y1="22.6453" x2="697.133" y2="355.282" gradientUnits="userSpaceOnUse">
<stop stop-color="#1813BF"/>
<stop offset="0.463542" stop-color="#954DC8"/>
<stop offset="1" stop-color="#FF8153"/>
</linearGradient>
<linearGradient id="paint22_linear_72_193" x1="-37.9155" y1="25.9154" x2="701.501" y2="369.064" gradientUnits="userSpaceOnUse">
<stop stop-color="#1813BF"/>
<stop offset="0.463542" stop-color="#954DC8"/>
<stop offset="1" stop-color="#FF8153"/>
</linearGradient>
<linearGradient id="paint23_linear_72_193" x1="-38.2195" y1="28.8197" x2="706.21" y2="382.937" gradientUnits="userSpaceOnUse">
<stop stop-color="#1813BF"/>
<stop offset="0.463542" stop-color="#954DC8"/>
<stop offset="1" stop-color="#FF8153"/>
</linearGradient>
<linearGradient id="paint24_linear_72_193" x1="-38.3949" y1="31.3513" x2="711.01" y2="396.456" gradientUnits="userSpaceOnUse">
<stop stop-color="#1813BF"/>
<stop offset="0.463542" stop-color="#954DC8"/>
<stop offset="1" stop-color="#FF8153"/>
</linearGradient>
<linearGradient id="paint25_linear_72_193" x1="-38.4518" y1="33.5343" x2="715.851" y2="409.564" gradientUnits="userSpaceOnUse">
<stop stop-color="#1813BF"/>
<stop offset="0.463542" stop-color="#954DC8"/>
<stop offset="1" stop-color="#FF8153"/>
</linearGradient>
<linearGradient id="paint26_linear_72_193" x1="-38.4229" y1="35.3453" x2="720.743" y2="422.163" gradientUnits="userSpaceOnUse">
<stop stop-color="#1813BF"/>
<stop offset="0.463542" stop-color="#954DC8"/>
<stop offset="1" stop-color="#FF8153"/>
</linearGradient>
<linearGradient id="paint27_linear_72_193" x1="-38.3551" y1="36.7823" x2="725.712" y2="434.251" gradientUnits="userSpaceOnUse">
<stop stop-color="#1813BF"/>
<stop offset="0.463542" stop-color="#954DC8"/>
<stop offset="1" stop-color="#FF8153"/>
</linearGradient>
<linearGradient id="paint28_linear_72_193" x1="-38.3398" y1="37.8722" x2="730.735" y2="445.867" gradientUnits="userSpaceOnUse">
<stop stop-color="#1813BF"/>
<stop offset="0.463542" stop-color="#954DC8"/>
<stop offset="1" stop-color="#FF8153"/>
</linearGradient>
<linearGradient id="paint29_linear_72_193" x1="-38.4628" y1="38.5894" x2="735.911" y2="457.139" gradientUnits="userSpaceOnUse">
<stop stop-color="#1813BF"/>
<stop offset="0.463542" stop-color="#954DC8"/>
<stop offset="1" stop-color="#FF8153"/>
</linearGradient>
<linearGradient id="paint30_linear_72_193" x1="-38.7989" y1="38.9449" x2="741.203" y2="468.051" gradientUnits="userSpaceOnUse">
<stop stop-color="#1813BF"/>
<stop offset="0.463542" stop-color="#954DC8"/>
<stop offset="1" stop-color="#FF8153"/>
</linearGradient>
<linearGradient id="paint31_linear_72_193" x1="-39.4252" y1="38.9437" x2="746.523" y2="478.576" gradientUnits="userSpaceOnUse">
<stop stop-color="#1813BF"/>
<stop offset="0.463542" stop-color="#954DC8"/>
<stop offset="1" stop-color="#FF8153"/>
</linearGradient>
<linearGradient id="paint32_linear_72_193" x1="-145.612" y1="83.4684" x2="591.557" y2="762.108" gradientUnits="userSpaceOnUse">
<stop stop-color="#1813BF"/>
<stop offset="0.463542" stop-color="#954DC8"/>
<stop offset="1" stop-color="#FF8153"/>
</linearGradient>
<linearGradient id="paint33_linear_72_193" x1="-139.191" y1="84.2261" x2="596.155" y2="754.232" gradientUnits="userSpaceOnUse">
<stop stop-color="#1813BF"/>
<stop offset="0.463542" stop-color="#954DC8"/>
<stop offset="1" stop-color="#FF8153"/>
</linearGradient>
<linearGradient id="paint34_linear_72_193" x1="-132.768" y1="84.8071" x2="601.126" y2="746.857" gradientUnits="userSpaceOnUse">
<stop stop-color="#1813BF"/>
<stop offset="0.463542" stop-color="#954DC8"/>
<stop offset="1" stop-color="#FF8153"/>
</linearGradient>
<linearGradient id="paint35_linear_72_193" x1="-126.396" y1="85.1853" x2="606.323" y2="740.104" gradientUnits="userSpaceOnUse">
<stop stop-color="#1813BF"/>
<stop offset="0.463542" stop-color="#954DC8"/>
<stop offset="1" stop-color="#FF8153"/>
</linearGradient>
<linearGradient id="paint36_linear_72_193" x1="-120.128" y1="85.4053" x2="611.656" y2="733.835" gradientUnits="userSpaceOnUse">
<stop stop-color="#1813BF"/>
<stop offset="0.463542" stop-color="#954DC8"/>
<stop offset="1" stop-color="#FF8153"/>
</linearGradient>
<linearGradient id="paint37_linear_72_193" x1="-114.025" y1="85.4884" x2="617.057" y2="727.906" gradientUnits="userSpaceOnUse">
<stop stop-color="#1813BF"/>
<stop offset="0.463542" stop-color="#954DC8"/>
<stop offset="1" stop-color="#FF8153"/>
</linearGradient>
<linearGradient id="paint38_linear_72_193" x1="-108.142" y1="85.4464" x2="622.519" y2="722.417" gradientUnits="userSpaceOnUse">
<stop stop-color="#1813BF"/>
<stop offset="0.463542" stop-color="#954DC8"/>
<stop offset="1" stop-color="#FF8153"/>
</linearGradient>
<linearGradient id="paint39_linear_72_193" x1="-102.561" y1="85.2274" x2="628.153" y2="717.301" gradientUnits="userSpaceOnUse">
<stop stop-color="#1813BF"/>
<stop offset="0.463542" stop-color="#954DC8"/>
<stop offset="1" stop-color="#FF8153"/>
</linearGradient>
<linearGradient id="paint40_linear_72_193" x1="-97.3563" y1="84.7494" x2="634.866" y2="712.366" gradientUnits="userSpaceOnUse">
<stop stop-color="#1813BF"/>
<stop offset="0.463542" stop-color="#954DC8"/>
<stop offset="1" stop-color="#FF8153"/>
</linearGradient>
<linearGradient id="paint41_linear_72_193" x1="-92.6125" y1="83.8711" x2="649.804" y2="706.238" gradientUnits="userSpaceOnUse">
<stop stop-color="#1813BF"/>
<stop offset="0.463542" stop-color="#954DC8"/>
<stop offset="1" stop-color="#FF8153"/>
</linearGradient>
<linearGradient id="paint42_linear_72_193" x1="-88.4532" y1="82.4017" x2="665.935" y2="699.733" gradientUnits="userSpaceOnUse">
<stop stop-color="#1813BF"/>
<stop offset="0.463542" stop-color="#954DC8"/>
<stop offset="1" stop-color="#FF8153"/>
</linearGradient>
<linearGradient id="paint43_linear_72_193" x1="-84.9971" y1="80.1158" x2="682.796" y2="692.713" gradientUnits="userSpaceOnUse">
<stop stop-color="#1813BF"/>
<stop offset="0.463542" stop-color="#954DC8"/>
<stop offset="1" stop-color="#FF8153"/>
</linearGradient>
<linearGradient id="paint44_linear_72_193" x1="-82.3601" y1="76.7292" x2="700.174" y2="684.978" gradientUnits="userSpaceOnUse">
<stop stop-color="#1813BF"/>
<stop offset="0.463542" stop-color="#954DC8"/>
<stop offset="1" stop-color="#FF8153"/>
</linearGradient>
<linearGradient id="paint45_linear_72_193" x1="-80.6973" y1="71.9846" x2="717.983" y2="676.37" gradientUnits="userSpaceOnUse">
<stop stop-color="#1813BF"/>
<stop offset="0.463542" stop-color="#954DC8"/>
<stop offset="1" stop-color="#FF8153"/>
</linearGradient>
<linearGradient id="paint46_linear_72_193" x1="-80.0654" y1="65.5599" x2="736.286" y2="666.548" gradientUnits="userSpaceOnUse">
<stop stop-color="#1813BF"/>
<stop offset="0.463542" stop-color="#954DC8"/>
<stop offset="1" stop-color="#FF8153"/>
</linearGradient>
<linearGradient id="paint47_linear_72_193" x1="-80.5035" y1="58.1545" x2="754.23" y2="656.49" gradientUnits="userSpaceOnUse">
<stop stop-color="#1813BF"/>
<stop offset="0.463542" stop-color="#954DC8"/>
<stop offset="1" stop-color="#FF8153"/>
</linearGradient>
</defs>
</svg>
