<svg width="736" height="647" viewBox="0 0 736 647" fill="none" xmlns="http://www.w3.org/2000/svg">
<path opacity="0.04" d="M508.423 241.716C783.147 343.029 367.99 647.322 326.477 446.714C305.826 346.893 112.325 408.625 118.142 305.654C123.959 202.683 211.079 211.563 297.579 161.105C405.329 97.6934 435.684 214.894 508.423 241.716Z" stroke="url(#paint0_linear_133_2311)" stroke-width="1.37" stroke-miterlimit="10"/>
<path opacity="0.07" d="M510.549 236.555C768.283 342.834 381.628 641.995 326.564 451.205C299.424 357.165 109.045 397.416 120.679 297.862C132.212 198.387 216.968 199.266 301.608 157.609C407.145 105.659 440.34 207.606 510.549 236.555Z" stroke="url(#paint1_linear_133_2311)" stroke-width="1.37" stroke-miterlimit="10"/>
<path opacity="0.11" d="M512.683 231.394C753.362 342.143 395.497 636.884 326.65 455.695C293.153 367.538 105.758 386.186 123.217 290.062C140.481 194.047 222.692 186.81 305.587 154.113C408.818 113.415 444.939 200.225 512.683 231.394Z" stroke="url(#paint2_linear_133_2311)" stroke-width="1.37" stroke-miterlimit="10"/>
<path opacity="0.15" d="M514.809 226.254C738.426 340.867 409.669 631.968 326.737 460.208C287.033 377.954 102.478 374.948 125.747 282.27C148.777 189.73 228.379 174.354 309.602 150.617C410.425 121.164 449.466 192.736 514.809 226.254Z" stroke="url(#paint3_linear_133_2311)" stroke-width="1.37" stroke-miterlimit="10"/>
<path opacity="0.19" d="M516.936 221.079C723.527 339 424.179 627.088 326.823 464.677C281.101 388.442 99.1912 363.717 128.284 274.478C157.067 185.405 234.023 161.877 313.61 147.121C411.975 128.891 453.949 185.124 516.936 221.079Z" stroke="url(#paint4_linear_133_2311)" stroke-width="1.37" stroke-miterlimit="10"/>
<path opacity="0.23" d="M519.062 215.917C708.735 336.462 439.05 622.215 326.91 469.168C275.356 398.829 95.9115 352.486 130.843 266.678C165.378 181.079 239.638 149.363 317.633 143.625C413.475 136.575 458.411 177.374 519.062 215.917Z" stroke="url(#paint5_linear_133_2311)" stroke-width="1.37" stroke-miterlimit="10"/>
<path opacity="0.26" d="M521.189 210.756C694.131 333.247 454.346 617.205 326.996 473.658C269.798 409.194 92.6316 341.256 133.359 258.85C173.653 176.718 245.174 136.77 321.612 140.093C414.931 144.194 462.873 169.46 521.189 210.756Z" stroke="url(#paint6_linear_133_2311)" stroke-width="1.37" stroke-miterlimit="10"/>
<path opacity="0.3" d="M523.315 205.595C679.801 329.348 469.973 611.958 327.083 478.157C264.421 419.438 89.3445 330.054 135.889 251.094C181.943 172.437 250.725 124.177 325.612 136.633C416.372 151.734 467.386 161.379 523.315 205.595Z" stroke="url(#paint7_linear_133_2311)" stroke-width="1.37" stroke-miterlimit="10"/>
<path opacity="0.34" d="M525.441 200.441C665.824 324.806 485.796 606.378 327.169 482.647C259.086 429.529 86.0647 318.788 138.426 243.295C190.232 168.112 256.275 111.483 329.613 133.137C417.821 159.217 471.977 153.075 525.441 200.441Z" stroke="url(#paint8_linear_133_2311)" stroke-width="1.37" stroke-miterlimit="10"/>
<path opacity="0.38" d="M527.568 195.258C652.273 319.645 501.82 600.41 327.256 487.116C253.846 439.498 82.7709 307.557 140.964 235.502C198.53 163.787 261.869 98.7242 333.621 129.662C419.314 166.569 476.735 144.576 527.568 195.258Z" stroke="url(#paint9_linear_133_2311)" stroke-width="1.37" stroke-miterlimit="10"/>
<path opacity="0.41" d="M529.687 190.119C639.29 314.023 517.88 594.095 327.328 491.629C248.613 449.302 79.4837 296.326 143.515 227.71C206.833 159.462 267.499 85.9224 337.629 126.145C420.842 173.9 481.709 135.869 529.687 190.119Z" stroke="url(#paint10_linear_133_2311)" stroke-width="1.37" stroke-miterlimit="10"/>
<path opacity="0.45" d="M531.85 184.965C626.92 308.018 533.947 587.392 327.429 496.12C243.379 458.968 76.2182 285.089 146.031 219.911C215.108 155.144 273.2 73.0988 341.622 122.649C422.478 181.202 486.999 126.959 531.85 184.965Z" stroke="url(#paint11_linear_133_2311)" stroke-width="1.37" stroke-miterlimit="10"/>
<path opacity="0.49" d="M533.955 179.804C615.214 301.805 549.914 580.407 327.515 500.61C238.081 468.526 72.9311 273.829 148.568 212.119C223.405 150.848 278.945 60.2751 345.622 119.131C424.157 188.504 492.694 117.862 533.955 179.804Z" stroke="url(#paint12_linear_133_2311)" stroke-width="1.37" stroke-miterlimit="10"/>
<path opacity="0.53" d="M536.081 174.642C604.236 295.606 565.729 573.162 327.602 505.101C232.704 477.991 69.6515 262.627 151.106 204.319C231.695 146.494 284.741 47.4514 349.623 115.657C425.887 195.821 498.886 108.629 536.081 174.642Z" stroke="url(#paint13_linear_133_2311)" stroke-width="1.37" stroke-miterlimit="10"/>
<path opacity="0.56" d="M538.207 169.481C593.978 289.637 581.414 565.723 327.688 509.592C227.276 487.383 66.3715 251.389 153.643 196.527C239.984 142.176 290.601 34.6565 353.624 112.189C427.66 203.187 505.647 99.3441 538.207 169.481Z" stroke="url(#paint14_linear_133_2311)" stroke-width="1.37" stroke-miterlimit="10"/>
<path opacity="0.6" d="M540.334 164.327C584.42 284.144 596.927 558.154 327.767 514.083C221.762 496.732 63.0846 240.166 156.209 188.735C248.281 137.851 296.418 21.8761 357.624 108.664C429.491 210.525 513.022 90.0958 540.334 164.327Z" stroke="url(#paint15_linear_133_2311)" stroke-width="1.37" stroke-miterlimit="10"/>
<path d="M396.333 524.103C199.769 923.754 -47.0805 210.223 212.982 218.469C343.215 222.592 298.876 -81.3109 426.276 -56.6008C553.676 -31.8906 507.896 94.0534 554.491 235.474C612.705 412.078 447.144 420.829 396.333 524.103Z" stroke="url(#paint16_linear_133_2311)" stroke-width="1.37" stroke-miterlimit="10"/>
<g style="mix-blend-mode:hard-light" opacity="0.94">
<path d="M401.927 528.377C203.28 902.879 -44.3772 231.033 207.597 217.547C332.784 210.85 313.257 -83.4519 434.905 -51.1225C556.553 -18.7931 521.448 105.226 557.569 242.113C603.248 412.654 454.367 429.529 401.927 528.377Z" stroke="url(#paint17_linear_133_2311)" stroke-width="1.37" stroke-miterlimit="10"/>
</g>
<g style="mix-blend-mode:hard-light" opacity="0.88">
<path d="M407.506 532.652C207.288 881.975 -42.128 252.06 202.198 216.631C322.145 199.237 327.623 -85.5927 443.526 -45.6441C559.379 -5.85411 534.503 116.486 560.633 248.679C593.186 413.361 461.684 438.129 407.506 532.652Z" stroke="url(#paint18_linear_133_2311)" stroke-width="1.37" stroke-miterlimit="10"/>
</g>
<g style="mix-blend-mode:hard-light" opacity="0.81">
<path d="M413.085 536.933C211.872 861.07 -40.2826 273.44 196.792 215.716C311.34 187.819 341.99 -87.7553 452.147 -40.1803C562.233 7.12078 547.809 127.644 563.696 255.282C583.44 413.937 469.137 446.678 413.085 536.933Z" stroke="url(#paint19_linear_133_2311)" stroke-width="1.37" stroke-miterlimit="10"/>
</g>
<g style="mix-blend-mode:hard-light" opacity="0.75">
<path d="M418.679 541.208C217.083 840.231 -38.726 295.288 191.393 214.793C300.412 176.661 356.356 -89.8747 460.761 -34.6877C565.08 20.0957 561.137 138.759 566.724 261.878C573.723 414.456 476.655 455.176 418.679 541.208Z" stroke="url(#paint20_linear_133_2311)" stroke-width="1.37" stroke-miterlimit="10"/>
</g>
<g style="mix-blend-mode:hard-light" opacity="0.69">
<path d="M424.236 545.483C223.001 819.507 -37.306 317.699 185.994 213.899C289.441 165.784 370.722 -92.0153 469.382 -29.2091C567.927 33.1142 574.494 149.839 569.816 268.495C564.042 414.932 484.354 463.625 424.236 545.483Z" stroke="url(#paint21_linear_133_2311)" stroke-width="1.37" stroke-miterlimit="10"/>
</g>
<g style="mix-blend-mode:hard-light" opacity="0.63">
<path d="M429.816 549.757C229.677 798.985 -35.8425 340.65 180.595 212.955C278.499 155.194 385.088 -94.1563 478.004 -23.7308C570.775 46.1107 587.902 160.875 572.88 275.083C554.426 415.372 492.204 472.058 429.816 549.757Z" stroke="url(#paint22_linear_133_2311)" stroke-width="1.37" stroke-miterlimit="10"/>
</g>
<g style="mix-blend-mode:hard-light" opacity="0.56">
<path d="M435.395 554.031C237.166 778.751 -34.1702 364.157 175.174 212.039C267.635 144.858 399.433 -96.2972 486.574 -18.2526C573.658 59.1144 601.367 171.896 575.943 281.686C544.89 415.776 500.263 480.506 435.395 554.031Z" stroke="url(#paint23_linear_133_2311)" stroke-width="1.37" stroke-miterlimit="10"/>
</g>
<g style="mix-blend-mode:hard-light" opacity="0.5">
<path d="M440.974 558.306C245.448 758.95 -32.1446 388.103 169.79 211.117C257.011 134.708 413.821 -98.4451 495.239 -12.7812C576.469 72.1113 614.897 182.903 579.007 288.275C535.454 416.187 508.524 489.005 440.974 558.306Z" stroke="url(#paint24_linear_133_2311)" stroke-width="1.37" stroke-miterlimit="10"/>
</g>
<g style="mix-blend-mode:hard-light" opacity="0.44">
<path d="M446.554 562.588C254.56 739.617 -29.6794 412.38 164.391 210.201C246.472 124.696 428.187 -100.579 503.86 -7.29596C579.317 85.1149 628.506 193.946 582.07 294.885C526.083 416.612 517.015 497.619 446.554 562.588Z" stroke="url(#paint25_linear_133_2311)" stroke-width="1.37" stroke-miterlimit="10"/>
</g>
<g style="mix-blend-mode:hard-light" opacity="0.38">
<path d="M452.133 566.862C264.421 720.948 -26.7528 436.846 158.992 209.286C236.157 114.748 442.553 -102.72 512.474 -1.81745C582.164 98.1189 642.173 205.018 585.127 301.488C516.77 417.08 525.752 506.421 452.133 566.862Z" stroke="url(#paint26_linear_133_2311)" stroke-width="1.37" stroke-miterlimit="10"/>
</g>
<g style="mix-blend-mode:hard-light" opacity="0.31">
<path d="M457.712 571.137C274.995 703.049 -23.372 461.39 153.593 208.363C226.015 104.815 456.919 -104.861 521.095 3.64632C585.011 111.101 655.891 216.134 588.19 308.076C507.529 417.621 534.733 515.524 457.712 571.137Z" stroke="url(#paint27_linear_133_2311)" stroke-width="1.37" stroke-miterlimit="10"/>
</g>
<g style="mix-blend-mode:hard-light" opacity="0.25">
<path d="M463.291 575.411C286.046 686.052 -19.5878 485.927 148.193 207.448C216.024 94.8607 471.3 -107.002 529.687 9.13915C587.83 124.119 669.608 227.343 591.225 314.693C498.324 418.241 543.981 525.04 463.291 575.411Z" stroke="url(#paint28_linear_133_2311)" stroke-width="1.37" stroke-miterlimit="10"/>
</g>
<g style="mix-blend-mode:hard-light" opacity="0.19">
<path d="M468.871 579.686C297.421 670.05 -15.4716 510.385 142.787 206.532C206.163 84.8556 485.652 -109.142 538.337 14.6176C590.713 137.116 683.398 238.602 594.325 321.289C489.126 418.933 553.475 535.117 468.871 579.686Z" stroke="url(#paint29_linear_133_2311)" stroke-width="1.37" stroke-miterlimit="10"/>
</g>
<g style="mix-blend-mode:hard-light" opacity="0.13">
<path d="M474.45 583.96C308.759 655.15 -11.0748 534.72 137.388 205.609C196.403 74.7854 500.018 -111.283 546.987 20.0958C593.589 150.12 697.173 249.919 597.445 327.892C479.95 419.697 563.04 545.922 474.45 583.96Z" stroke="url(#paint30_linear_133_2311)" stroke-width="1.37" stroke-miterlimit="10"/>
</g>
<g style="mix-blend-mode:hard-light" opacity="0.06">
<path d="M480.029 588.242C319.701 641.281 -6.46122 558.912 131.989 204.694C186.729 64.6434 514.384 -113.424 555.573 25.5743C596.401 163.116 710.869 261.287 600.437 334.495C470.687 420.512 572.664 557.592 480.029 588.242Z" stroke="url(#paint31_linear_133_2311)" stroke-width="1.37" stroke-miterlimit="10"/>
</g>
<path opacity="0.03" d="M176.191 426.768C-256.627 375.373 257.984 -178.97 379.819 84.8698C440.419 216.098 704.59 68.3916 727.455 212.558C750.32 356.725 620.166 372.583 509.05 470.155C370.83 592.509 290.688 440.342 176.191 426.768Z" stroke="url(#paint32_linear_133_2311)" stroke-width="1.37" stroke-miterlimit="10"/>
<path opacity="0.05" d="M174.655 434.575C-235.066 370.76 239.61 -167.321 378.327 78.6852C446.626 199.785 712.794 82.8661 726.122 224.164C739.594 365.332 615.358 391.397 504.264 476.268C365.756 582.072 286.046 451.926 174.655 434.575Z" stroke="url(#paint33_linear_133_2311)" stroke-width="1.37" stroke-miterlimit="10"/>
<path opacity="0.07" d="M173.113 442.396C-213.247 366.817 220.803 -155.852 376.871 72.5148C452.645 183.429 721.076 97.3331 724.824 235.762C728.789 374.025 610.788 410.478 499.477 482.395C361.012 571.894 281.476 463.589 173.113 442.396Z" stroke="url(#paint34_linear_133_2311)" stroke-width="1.37" stroke-miterlimit="10"/>
<path opacity="0.1" d="M171.577 450.21C-191.226 363.66 201.492 -144.55 375.335 66.3374C458.325 167.016 729.264 111.793 723.454 247.346C717.976 382.632 606.276 429.529 494.691 488.522C356.269 561.708 277.049 475.374 171.577 450.21Z" stroke="url(#paint35_linear_133_2311)" stroke-width="1.37" stroke-miterlimit="10"/>
<path opacity="0.13" d="M170.035 458.024C-169.045 361.331 181.626 -133.233 373.843 60.1596C463.767 150.639 737.482 126.253 722.15 258.937C707.193 391.282 601.85 448.588 489.934 494.649C351.642 551.537 272.732 487.311 170.035 458.024Z" stroke="url(#paint36_linear_133_2311)" stroke-width="1.37" stroke-miterlimit="10"/>
<path opacity="0.15" d="M168.492 465.837C-146.793 359.94 161.219 -121.728 372.351 53.975C468.942 134.362 745.699 140.713 720.787 270.513C696.358 399.925 597.445 467.683 485.118 500.762C347.093 541.41 268.5 499.45 168.492 465.837Z" stroke="url(#paint37_linear_133_2311)" stroke-width="1.37" stroke-miterlimit="10"/>
<path opacity="0.18" d="M166.957 473.651C-124.548 359.543 140.329 -109.878 370.852 47.8045C473.873 118.273 753.924 155.209 719.454 282.111C685.575 408.574 593.114 486.828 480.332 506.882C342.617 531.361 264.32 511.769 166.957 473.651Z" stroke="url(#paint38_linear_133_2311)" stroke-width="1.37" stroke-miterlimit="10"/>
<path opacity="0.2" d="M165.414 481.465C-102.44 360.178 119.072 -97.5442 369.36 41.6271C478.645 102.393 762.149 169.64 718.12 293.695C674.741 417.217 588.796 506.067 475.546 513.002C338.184 521.414 260.146 524.362 165.414 481.465Z" stroke="url(#paint39_linear_133_2311)" stroke-width="1.37" stroke-miterlimit="10"/>
<path opacity="0.23" d="M163.879 489.279C-80.5847 361.864 97.5621 -84.6485 367.875 35.4495C483.338 86.7584 770.373 184.1 716.794 305.279C663.928 425.867 584.55 525.4 470.759 519.121C333.772 511.574 255.922 537.258 163.879 489.279Z" stroke="url(#paint40_linear_133_2311)" stroke-width="1.37" stroke-miterlimit="10"/>
<path opacity="0.25" d="M162.336 497.093C-59.1468 364.56 76.0383 -71.1762 366.376 29.272C487.987 71.347 778.591 198.56 715.454 316.884C653.123 434.524 580.254 544.826 465.973 525.256C329.332 501.843 251.568 550.492 162.336 497.093Z" stroke="url(#paint41_linear_133_2311)" stroke-width="1.37" stroke-miterlimit="10"/>
<path opacity="0.28" d="M160.801 504.907C-38.2791 368.172 54.5425 -57.1703 364.876 23.0945C492.687 56.1519 786.815 213.02 714.119 328.454C642.31 443.16 575.907 564.325 461.208 531.361C324.826 492.242 246.983 564.109 160.801 504.907Z" stroke="url(#paint42_linear_133_2311)" stroke-width="1.37" stroke-miterlimit="10"/>
<path opacity="0.3" d="M159.258 512.721C-18.1462 372.583 33.2132 -42.6888 363.384 16.9169C497.459 41.1225 795.033 227.48 712.786 340.045C631.505 451.803 571.496 583.86 456.393 537.488C320.249 482.633 242.031 578.122 159.258 512.721Z" stroke="url(#paint43_linear_133_2311)" stroke-width="1.37" stroke-miterlimit="10"/>
<path opacity="0.33" d="M157.737 520.534C1.09289 377.514 12.1288 -27.8324 361.892 10.725C502.353 26.2085 803.258 241.925 711.453 351.614C620.692 460.46 567.005 603.423 451.606 543.594C315.6 473.082 236.575 592.546 157.737 520.534Z" stroke="url(#paint44_linear_133_2311)" stroke-width="1.37" stroke-miterlimit="10"/>
<path opacity="0.35" d="M156.18 528.348C19.2869 382.74 -8.73194 -12.6877 360.392 4.56183C507.342 11.4458 811.475 256.399 710.126 363.212C609.887 469.096 562.456 623.015 446.791 549.728C310.842 463.538 230.455 607.351 156.18 528.348Z" stroke="url(#paint45_linear_133_2311)" stroke-width="1.37" stroke-miterlimit="10"/>
<path opacity="0.38" d="M154.638 536.162C36.32 387.923 -29.3118 2.64443 358.9 -1.57965C512.481 -3.2664 819.7 270.895 708.793 374.84C599.075 477.782 557.85 642.629 442.034 555.884C306.034 453.98 223.52 622.46 154.638 536.162Z" stroke="url(#paint46_linear_133_2311)" stroke-width="1.37" stroke-miterlimit="10"/>
<path opacity="0.4" d="M153.102 543.983C52.1353 392.651 -49.632 18.1062 357.408 -7.79337C517.714 -18.0004 827.925 285.362 707.459 386.394C588.262 486.388 553.201 662.142 437.248 561.968C301.183 444.4 215.656 637.734 153.102 543.983Z" stroke="url(#paint47_linear_133_2311)" stroke-width="1.37" stroke-miterlimit="10"/>
<defs>
<linearGradient id="paint0_linear_133_2311" x1="118.014" y1="142.54" x2="585.839" y2="532.773" gradientUnits="userSpaceOnUse">
<stop stop-color="#1813BF"/>
<stop offset="0.463542" stop-color="#954DC8"/>
<stop offset="1" stop-color="#FF8153"/>
</linearGradient>
<linearGradient id="paint1_linear_133_2311" x1="120.167" y1="143.089" x2="586.134" y2="528.13" gradientUnits="userSpaceOnUse">
<stop stop-color="#1813BF"/>
<stop offset="0.463542" stop-color="#954DC8"/>
<stop offset="1" stop-color="#FF8153"/>
</linearGradient>
<linearGradient id="paint2_linear_133_2311" x1="122.071" y1="143.458" x2="586.476" y2="523.471" gradientUnits="userSpaceOnUse">
<stop stop-color="#1813BF"/>
<stop offset="0.463542" stop-color="#954DC8"/>
<stop offset="1" stop-color="#FF8153"/>
</linearGradient>
<linearGradient id="paint3_linear_133_2311" x1="123.726" y1="143.664" x2="586.849" y2="518.838" gradientUnits="userSpaceOnUse">
<stop stop-color="#1813BF"/>
<stop offset="0.463542" stop-color="#954DC8"/>
<stop offset="1" stop-color="#FF8153"/>
</linearGradient>
<linearGradient id="paint4_linear_133_2311" x1="125.151" y1="143.576" x2="587.324" y2="514.096" gradientUnits="userSpaceOnUse">
<stop stop-color="#1813BF"/>
<stop offset="0.463542" stop-color="#954DC8"/>
<stop offset="1" stop-color="#FF8153"/>
</linearGradient>
<linearGradient id="paint5_linear_133_2311" x1="126.368" y1="142.825" x2="588.303" y2="508.797" gradientUnits="userSpaceOnUse">
<stop stop-color="#1813BF"/>
<stop offset="0.463542" stop-color="#954DC8"/>
<stop offset="1" stop-color="#FF8153"/>
</linearGradient>
<linearGradient id="paint6_linear_133_2311" x1="127.338" y1="139.901" x2="591.122" y2="501.158" gradientUnits="userSpaceOnUse">
<stop stop-color="#1813BF"/>
<stop offset="0.463542" stop-color="#954DC8"/>
<stop offset="1" stop-color="#FF8153"/>
</linearGradient>
<linearGradient id="paint7_linear_133_2311" x1="128.116" y1="134.682" x2="595.8" y2="490.942" gradientUnits="userSpaceOnUse">
<stop stop-color="#1813BF"/>
<stop offset="0.463542" stop-color="#954DC8"/>
<stop offset="1" stop-color="#FF8153"/>
</linearGradient>
<linearGradient id="paint8_linear_133_2311" x1="128.705" y1="128.473" x2="601.019" y2="479.744" gradientUnits="userSpaceOnUse">
<stop stop-color="#1813BF"/>
<stop offset="0.463542" stop-color="#954DC8"/>
<stop offset="1" stop-color="#FF8153"/>
</linearGradient>
<linearGradient id="paint9_linear_133_2311" x1="129.106" y1="121.761" x2="606.329" y2="468.209" gradientUnits="userSpaceOnUse">
<stop stop-color="#1813BF"/>
<stop offset="0.463542" stop-color="#954DC8"/>
<stop offset="1" stop-color="#FF8153"/>
</linearGradient>
<linearGradient id="paint10_linear_133_2311" x1="129.34" y1="114.708" x2="611.706" y2="456.54" gradientUnits="userSpaceOnUse">
<stop stop-color="#1813BF"/>
<stop offset="0.463542" stop-color="#954DC8"/>
<stop offset="1" stop-color="#FF8153"/>
</linearGradient>
<linearGradient id="paint11_linear_133_2311" x1="129.39" y1="107.458" x2="617.044" y2="445.001" gradientUnits="userSpaceOnUse">
<stop stop-color="#1813BF"/>
<stop offset="0.463542" stop-color="#954DC8"/>
<stop offset="1" stop-color="#FF8153"/>
</linearGradient>
<linearGradient id="paint12_linear_133_2311" x1="129.28" y1="100.059" x2="622.414" y2="433.591" gradientUnits="userSpaceOnUse">
<stop stop-color="#1813BF"/>
<stop offset="0.463542" stop-color="#954DC8"/>
<stop offset="1" stop-color="#FF8153"/>
</linearGradient>
<linearGradient id="paint13_linear_133_2311" x1="129.012" y1="92.5675" x2="627.869" y2="422.454" gradientUnits="userSpaceOnUse">
<stop stop-color="#1813BF"/>
<stop offset="0.463542" stop-color="#954DC8"/>
<stop offset="1" stop-color="#FF8153"/>
</linearGradient>
<linearGradient id="paint14_linear_133_2311" x1="128.591" y1="85.0147" x2="633.47" y2="411.638" gradientUnits="userSpaceOnUse">
<stop stop-color="#1813BF"/>
<stop offset="0.463542" stop-color="#954DC8"/>
<stop offset="1" stop-color="#FF8153"/>
</linearGradient>
<linearGradient id="paint15_linear_133_2311" x1="128.032" y1="77.3805" x2="639.317" y2="401.117" gradientUnits="userSpaceOnUse">
<stop stop-color="#1813BF"/>
<stop offset="0.463542" stop-color="#954DC8"/>
<stop offset="1" stop-color="#FF8153"/>
</linearGradient>
<linearGradient id="paint16_linear_133_2311" x1="100.666" y1="-58.0302" x2="748.63" y2="216.585" gradientUnits="userSpaceOnUse">
<stop stop-color="#1813BF"/>
<stop offset="0.463542" stop-color="#954DC8"/>
<stop offset="1" stop-color="#FF8153"/>
</linearGradient>
<linearGradient id="paint17_linear_133_2311" x1="100.902" y1="-53.6026" x2="745.697" y2="222.499" gradientUnits="userSpaceOnUse">
<stop stop-color="#1813BF"/>
<stop offset="0.463542" stop-color="#954DC8"/>
<stop offset="1" stop-color="#FF8153"/>
</linearGradient>
<linearGradient id="paint18_linear_133_2311" x1="100.935" y1="-49.4803" x2="742.947" y2="228.4" gradientUnits="userSpaceOnUse">
<stop stop-color="#1813BF"/>
<stop offset="0.463542" stop-color="#954DC8"/>
<stop offset="1" stop-color="#FF8153"/>
</linearGradient>
<linearGradient id="paint19_linear_133_2311" x1="100.792" y1="-45.6867" x2="740.837" y2="234.703" gradientUnits="userSpaceOnUse">
<stop stop-color="#1813BF"/>
<stop offset="0.463542" stop-color="#954DC8"/>
<stop offset="1" stop-color="#FF8153"/>
</linearGradient>
<linearGradient id="paint20_linear_133_2311" x1="100.526" y1="-42.1796" x2="739.592" y2="241.682" gradientUnits="userSpaceOnUse">
<stop stop-color="#1813BF"/>
<stop offset="0.463542" stop-color="#954DC8"/>
<stop offset="1" stop-color="#FF8153"/>
</linearGradient>
<linearGradient id="paint21_linear_133_2311" x1="100.198" y1="-39.0079" x2="740.822" y2="251.043" gradientUnits="userSpaceOnUse">
<stop stop-color="#1813BF"/>
<stop offset="0.463542" stop-color="#954DC8"/>
<stop offset="1" stop-color="#FF8153"/>
</linearGradient>
<linearGradient id="paint22_linear_133_2311" x1="99.877" y1="-36.1565" x2="744.63" y2="263.061" gradientUnits="userSpaceOnUse">
<stop stop-color="#1813BF"/>
<stop offset="0.463542" stop-color="#954DC8"/>
<stop offset="1" stop-color="#FF8153"/>
</linearGradient>
<linearGradient id="paint23_linear_133_2311" x1="99.6118" y1="-33.624" x2="748.737" y2="275.158" gradientUnits="userSpaceOnUse">
<stop stop-color="#1813BF"/>
<stop offset="0.463542" stop-color="#954DC8"/>
<stop offset="1" stop-color="#FF8153"/>
</linearGradient>
<linearGradient id="paint24_linear_133_2311" x1="99.459" y1="-31.4164" x2="752.922" y2="286.946" gradientUnits="userSpaceOnUse">
<stop stop-color="#1813BF"/>
<stop offset="0.463542" stop-color="#954DC8"/>
<stop offset="1" stop-color="#FF8153"/>
</linearGradient>
<linearGradient id="paint25_linear_133_2311" x1="99.4092" y1="-29.513" x2="757.143" y2="298.376" gradientUnits="userSpaceOnUse">
<stop stop-color="#1813BF"/>
<stop offset="0.463542" stop-color="#954DC8"/>
<stop offset="1" stop-color="#FF8153"/>
</linearGradient>
<linearGradient id="paint26_linear_133_2311" x1="99.4346" y1="-27.9338" x2="761.409" y2="309.362" gradientUnits="userSpaceOnUse">
<stop stop-color="#1813BF"/>
<stop offset="0.463542" stop-color="#954DC8"/>
<stop offset="1" stop-color="#FF8153"/>
</linearGradient>
<linearGradient id="paint27_linear_133_2311" x1="99.4937" y1="-26.6808" x2="765.742" y2="319.902" gradientUnits="userSpaceOnUse">
<stop stop-color="#1813BF"/>
<stop offset="0.463542" stop-color="#954DC8"/>
<stop offset="1" stop-color="#FF8153"/>
</linearGradient>
<linearGradient id="paint28_linear_133_2311" x1="99.5068" y1="-25.7304" x2="770.121" y2="330.031" gradientUnits="userSpaceOnUse">
<stop stop-color="#1813BF"/>
<stop offset="0.463542" stop-color="#954DC8"/>
<stop offset="1" stop-color="#FF8153"/>
</linearGradient>
<linearGradient id="paint29_linear_133_2311" x1="99.3999" y1="-25.105" x2="774.635" y2="339.86" gradientUnits="userSpaceOnUse">
<stop stop-color="#1813BF"/>
<stop offset="0.463542" stop-color="#954DC8"/>
<stop offset="1" stop-color="#FF8153"/>
</linearGradient>
<linearGradient id="paint30_linear_133_2311" x1="99.1064" y1="-24.795" x2="779.249" y2="349.375" gradientUnits="userSpaceOnUse">
<stop stop-color="#1813BF"/>
<stop offset="0.463542" stop-color="#954DC8"/>
<stop offset="1" stop-color="#FF8153"/>
</linearGradient>
<linearGradient id="paint31_linear_133_2311" x1="98.5605" y1="-24.7961" x2="783.888" y2="358.552" gradientUnits="userSpaceOnUse">
<stop stop-color="#1813BF"/>
<stop offset="0.463542" stop-color="#954DC8"/>
<stop offset="1" stop-color="#FF8153"/>
</linearGradient>
<linearGradient id="paint32_linear_133_2311" x1="5.96826" y1="14.0283" x2="648.762" y2="605.786" gradientUnits="userSpaceOnUse">
<stop stop-color="#1813BF"/>
<stop offset="0.463542" stop-color="#954DC8"/>
<stop offset="1" stop-color="#FF8153"/>
</linearGradient>
<linearGradient id="paint33_linear_133_2311" x1="11.5674" y1="14.6891" x2="652.771" y2="598.918" gradientUnits="userSpaceOnUse">
<stop stop-color="#1813BF"/>
<stop offset="0.463542" stop-color="#954DC8"/>
<stop offset="1" stop-color="#FF8153"/>
</linearGradient>
<linearGradient id="paint34_linear_133_2311" x1="17.168" y1="15.1956" x2="657.106" y2="592.487" gradientUnits="userSpaceOnUse">
<stop stop-color="#1813BF"/>
<stop offset="0.463542" stop-color="#954DC8"/>
<stop offset="1" stop-color="#FF8153"/>
</linearGradient>
<linearGradient id="paint35_linear_133_2311" x1="22.7236" y1="15.5255" x2="661.637" y2="586.598" gradientUnits="userSpaceOnUse">
<stop stop-color="#1813BF"/>
<stop offset="0.463542" stop-color="#954DC8"/>
<stop offset="1" stop-color="#FF8153"/>
</linearGradient>
<linearGradient id="paint36_linear_133_2311" x1="28.1899" y1="15.7172" x2="666.288" y2="581.133" gradientUnits="userSpaceOnUse">
<stop stop-color="#1813BF"/>
<stop offset="0.463542" stop-color="#954DC8"/>
<stop offset="1" stop-color="#FF8153"/>
</linearGradient>
<linearGradient id="paint37_linear_133_2311" x1="33.5112" y1="15.7897" x2="670.997" y2="575.962" gradientUnits="userSpaceOnUse">
<stop stop-color="#1813BF"/>
<stop offset="0.463542" stop-color="#954DC8"/>
<stop offset="1" stop-color="#FF8153"/>
</linearGradient>
<linearGradient id="paint38_linear_133_2311" x1="38.6416" y1="15.7531" x2="675.76" y2="571.176" gradientUnits="userSpaceOnUse">
<stop stop-color="#1813BF"/>
<stop offset="0.463542" stop-color="#954DC8"/>
<stop offset="1" stop-color="#FF8153"/>
</linearGradient>
<linearGradient id="paint39_linear_133_2311" x1="43.5073" y1="15.5622" x2="680.672" y2="566.715" gradientUnits="userSpaceOnUse">
<stop stop-color="#1813BF"/>
<stop offset="0.463542" stop-color="#954DC8"/>
<stop offset="1" stop-color="#FF8153"/>
</linearGradient>
<linearGradient id="paint40_linear_133_2311" x1="48.0459" y1="15.1453" x2="686.526" y2="562.411" gradientUnits="userSpaceOnUse">
<stop stop-color="#1813BF"/>
<stop offset="0.463542" stop-color="#954DC8"/>
<stop offset="1" stop-color="#FF8153"/>
</linearGradient>
<linearGradient id="paint41_linear_133_2311" x1="52.1826" y1="14.3794" x2="699.552" y2="557.068" gradientUnits="userSpaceOnUse">
<stop stop-color="#1813BF"/>
<stop offset="0.463542" stop-color="#954DC8"/>
<stop offset="1" stop-color="#FF8153"/>
</linearGradient>
<linearGradient id="paint42_linear_133_2311" x1="55.8091" y1="13.0982" x2="713.617" y2="551.396" gradientUnits="userSpaceOnUse">
<stop stop-color="#1813BF"/>
<stop offset="0.463542" stop-color="#954DC8"/>
<stop offset="1" stop-color="#FF8153"/>
</linearGradient>
<linearGradient id="paint43_linear_133_2311" x1="58.8228" y1="11.105" x2="728.32" y2="545.275" gradientUnits="userSpaceOnUse">
<stop stop-color="#1813BF"/>
<stop offset="0.463542" stop-color="#954DC8"/>
<stop offset="1" stop-color="#FF8153"/>
</linearGradient>
<linearGradient id="paint44_linear_133_2311" x1="61.1221" y1="8.15207" x2="743.473" y2="538.53" gradientUnits="userSpaceOnUse">
<stop stop-color="#1813BF"/>
<stop offset="0.463542" stop-color="#954DC8"/>
<stop offset="1" stop-color="#FF8153"/>
</linearGradient>
<linearGradient id="paint45_linear_133_2311" x1="62.5723" y1="4.01486" x2="759.002" y2="531.024" gradientUnits="userSpaceOnUse">
<stop stop-color="#1813BF"/>
<stop offset="0.463542" stop-color="#954DC8"/>
<stop offset="1" stop-color="#FF8153"/>
</linearGradient>
<linearGradient id="paint46_linear_133_2311" x1="63.123" y1="-1.5874" x2="774.962" y2="522.46" gradientUnits="userSpaceOnUse">
<stop stop-color="#1813BF"/>
<stop offset="0.463542" stop-color="#954DC8"/>
<stop offset="1" stop-color="#FF8153"/>
</linearGradient>
<linearGradient id="paint47_linear_133_2311" x1="62.7412" y1="-8.04483" x2="790.609" y2="513.69" gradientUnits="userSpaceOnUse">
<stop stop-color="#1813BF"/>
<stop offset="0.463542" stop-color="#954DC8"/>
<stop offset="1" stop-color="#FF8153"/>
</linearGradient>
</defs>
</svg>
