<svg width="201" height="281" viewBox="0 0 201 281" fill="none" xmlns="http://www.w3.org/2000/svg">
<path opacity="0.04" d="M200.996 119.594C309.69 159.678 145.434 280.071 129.01 200.701C120.839 161.207 44.2808 185.631 46.5823 144.891C48.8839 104.151 83.3527 107.664 117.576 87.7005C160.207 62.6118 172.217 108.982 200.996 119.594Z" stroke="url(#paint0_linear_179_4345)" stroke-width="1.37" stroke-miterlimit="10"/>
<path opacity="0.07" d="M201.838 117.552C303.81 159.601 150.83 277.964 129.044 202.478C118.306 165.271 42.9831 181.196 47.5862 141.808C52.1493 102.451 85.6827 102.799 119.171 86.3173C160.926 65.7632 174.059 106.099 201.838 117.552Z" stroke="url(#paint1_linear_179_4345)" stroke-width="1.37" stroke-miterlimit="10"/>
<path opacity="0.11" d="M202.682 115.51C297.906 159.328 156.317 275.942 129.078 204.255C115.825 169.375 41.6827 176.753 48.5901 138.722C55.4206 100.734 87.9472 97.8706 120.745 84.9341C161.588 68.8319 175.879 103.178 202.682 115.51Z" stroke="url(#paint2_linear_179_4345)" stroke-width="1.37" stroke-miterlimit="10"/>
<path opacity="0.15" d="M203.523 113.477C291.997 158.823 161.924 273.997 129.113 206.04C113.404 173.496 40.3851 172.307 49.5912 135.639C58.7032 99.0257 90.1975 92.9424 122.333 83.5509C162.224 71.8978 177.67 100.215 203.523 113.477Z" stroke="url(#paint3_linear_179_4345)" stroke-width="1.37" stroke-miterlimit="10"/>
<path opacity="0.19" d="M204.364 111.429C286.102 158.084 167.665 272.066 129.147 207.808C111.057 177.646 39.0846 167.864 50.5951 132.556C61.983 97.3145 92.4306 88.0057 123.919 82.1677C162.837 74.9551 179.444 97.2033 204.364 111.429Z" stroke="url(#paint4_linear_179_4345)" stroke-width="1.37" stroke-miterlimit="10"/>
<path opacity="0.23" d="M205.206 109.387C280.25 157.08 173.549 270.138 129.181 209.585C108.784 181.755 37.787 163.42 51.6076 129.47C65.2714 95.6033 94.6523 83.0546 125.511 80.7844C163.43 77.9952 181.209 94.1373 205.206 109.387Z" stroke="url(#paint5_linear_179_4345)" stroke-width="1.37" stroke-miterlimit="10"/>
<path opacity="0.26" d="M206.047 107.345C274.471 155.808 179.601 268.156 129.215 211.362C106.585 185.856 36.4893 158.977 52.6029 126.373C68.5454 93.8778 96.8426 78.0722 127.085 79.387C164.006 81.0097 182.975 91.0059 206.047 107.345Z" stroke="url(#paint6_linear_179_4345)" stroke-width="1.37" stroke-miterlimit="10"/>
<path opacity="0.3" d="M206.888 105.303C268.802 154.265 185.784 266.08 129.249 213.141C104.457 189.909 35.1888 154.545 53.6039 123.304C71.8251 92.1838 99.0386 73.0899 128.668 78.0181C164.577 83.993 184.76 87.8089 206.888 105.303Z" stroke="url(#paint7_linear_179_4345)" stroke-width="1.37" stroke-miterlimit="10"/>
<path opacity="0.34" d="M207.73 103.264C263.272 152.469 192.044 263.872 129.284 214.918C102.347 193.902 33.8911 150.087 54.6078 120.219C75.1048 90.4727 101.235 68.0676 130.25 76.6349C165.15 86.9534 186.577 84.5235 207.73 103.264Z" stroke="url(#paint8_linear_179_4345)" stroke-width="1.37" stroke-miterlimit="10"/>
<path opacity="0.38" d="M208.571 101.213C257.91 150.427 198.384 261.511 129.318 216.686C100.274 197.846 32.588 145.644 55.6119 117.136C78.3877 88.7615 103.448 63.0196 131.836 75.2603C165.741 89.8623 188.459 81.161 208.571 101.213Z" stroke="url(#paint9_linear_179_4345)" stroke-width="1.37" stroke-miterlimit="10"/>
<path opacity="0.41" d="M209.41 99.1797C252.774 148.202 204.738 259.012 129.346 218.472C98.2029 201.725 31.2872 141.201 56.6212 114.053C81.6729 87.0503 105.675 57.9545 133.422 73.8685C166.345 92.7628 190.427 77.7158 209.41 99.1797Z" stroke="url(#paint10_linear_179_4345)" stroke-width="1.37" stroke-miterlimit="10"/>
<path opacity="0.45" d="M210.265 97.1405C247.88 145.826 211.095 256.36 129.386 220.248C96.1324 205.549 29.9953 136.754 57.6166 110.967C84.947 85.342 107.931 52.8809 135.002 72.4853C166.992 95.6518 192.52 74.1908 210.265 97.1405Z" stroke="url(#paint11_linear_179_4345)" stroke-width="1.37" stroke-miterlimit="10"/>
<path opacity="0.49" d="M211.098 95.0984C243.248 143.368 217.412 253.596 129.42 222.025C94.0359 209.331 28.6946 132.299 58.6202 107.884C88.2293 83.6421 110.204 47.8072 136.584 71.0934C167.657 98.5408 194.773 70.5915 211.098 95.0984Z" stroke="url(#paint12_linear_179_4345)" stroke-width="1.37" stroke-miterlimit="10"/>
<path opacity="0.53" d="M211.939 93.0565C238.905 140.915 223.67 250.73 129.455 223.802C91.9088 213.076 27.3973 127.868 59.6245 104.798C91.5095 81.9196 112.497 42.7336 138.168 69.7189C168.341 101.436 197.223 66.9382 211.939 93.0565Z" stroke="url(#paint13_linear_179_4345)" stroke-width="1.37" stroke-miterlimit="10"/>
<path opacity="0.56" d="M212.78 91.0145C234.846 138.554 229.875 247.787 129.489 225.579C89.761 216.792 26.0994 123.421 60.6281 101.715C94.789 80.2112 114.815 37.6713 139.75 68.3471C169.043 104.35 199.898 63.2649 212.78 91.0145Z" stroke="url(#paint14_linear_179_4345)" stroke-width="1.37" stroke-miterlimit="10"/>
<path opacity="0.6" d="M213.622 88.9753C231.064 136.381 236.013 244.792 129.52 227.355C87.5792 220.491 24.7989 118.981 61.6434 98.632C98.0716 78.5 117.117 32.6148 141.333 66.9524C169.767 107.254 202.816 59.6058 213.622 88.9753Z" stroke="url(#paint15_linear_179_4345)" stroke-width="1.37" stroke-miterlimit="10"/>
<path d="M156.648 231.32C78.8781 389.441 -18.7874 107.134 84.1057 110.397C135.632 112.028 118.09 -8.211 168.495 1.56554C218.901 11.3421 200.788 61.1716 219.223 117.124C242.256 186.997 176.752 190.46 156.648 231.32Z" stroke="url(#paint16_linear_179_4345)" stroke-width="1.37" stroke-miterlimit="10"/>
<g style="mix-blend-mode:hard-light" opacity="0.94">
<path d="M158.861 233.011C80.2668 381.182 -17.7182 115.367 81.9751 110.031C131.505 107.382 123.779 -9.05813 171.909 3.73293C220.039 16.524 206.15 65.5921 220.441 119.751C238.514 187.225 179.609 193.902 158.861 233.011Z" stroke="url(#paint17_linear_179_4345)" stroke-width="1.37" stroke-miterlimit="10"/>
</g>
<g style="mix-blend-mode:hard-light" opacity="0.88">
<path d="M161.069 234.702C81.8526 372.911 -16.8283 123.687 79.8391 109.669C127.296 102.787 129.463 -9.90515 175.32 5.90044C221.157 21.6433 211.315 70.0468 221.653 122.349C234.532 187.505 182.504 197.304 161.069 234.702Z" stroke="url(#paint18_linear_179_4345)" stroke-width="1.37" stroke-miterlimit="10"/>
</g>
<g style="mix-blend-mode:hard-light" opacity="0.81">
<path d="M163.276 236.396C83.6664 364.641 -16.0982 132.146 77.7001 109.307C123.021 98.2699 135.147 -10.7607 178.731 8.06224C222.286 26.7768 216.579 74.4617 222.865 124.961C230.677 187.733 185.453 200.687 163.276 236.396Z" stroke="url(#paint19_linear_179_4345)" stroke-width="1.37" stroke-miterlimit="10"/>
</g>
<g style="mix-blend-mode:hard-light" opacity="0.75">
<path d="M165.489 238.087C85.7285 356.395 -15.482 140.79 75.5642 108.942C118.697 93.855 140.831 -11.5992 182.139 10.2354C223.413 31.9104 221.853 78.8594 224.063 127.571C226.832 187.938 188.428 204.049 165.489 238.087Z" stroke="url(#paint20_linear_179_4345)" stroke-width="1.37" stroke-miterlimit="10"/>
</g>
<g style="mix-blend-mode:hard-light" opacity="0.69">
<path d="M167.688 239.779C88.0699 348.196 -14.9202 149.657 73.428 108.588C114.357 89.5514 146.515 -12.4462 185.55 12.4029C224.539 37.061 227.137 83.2429 225.287 130.189C223.002 188.127 191.474 207.392 167.688 239.779Z" stroke="url(#paint21_linear_179_4345)" stroke-width="1.37" stroke-miterlimit="10"/>
</g>
<g style="mix-blend-mode:hard-light" opacity="0.63">
<path d="M169.896 241.47C90.7109 340.077 -14.3412 158.737 71.2919 108.215C110.027 85.3619 152.199 -13.2932 188.961 14.5705C225.666 42.2031 232.442 87.6093 226.499 132.796C219.198 188.301 194.579 210.729 169.896 241.47Z" stroke="url(#paint22_linear_179_4345)" stroke-width="1.37" stroke-miterlimit="10"/>
</g>
<g style="mix-blend-mode:hard-light" opacity="0.56">
<path d="M172.103 243.161C93.674 332.071 -13.6797 168.038 69.1471 107.853C105.729 81.2722 157.875 -14.1403 192.352 16.738C226.807 47.3481 237.769 91.9699 227.711 135.408C215.424 188.46 197.768 214.071 172.103 243.161Z" stroke="url(#paint23_linear_179_4345)" stroke-width="1.37" stroke-miterlimit="10"/>
</g>
<g style="mix-blend-mode:hard-light" opacity="0.5">
<path d="M174.31 244.852C96.9509 324.237 -12.8783 177.512 67.0167 107.487C101.525 77.2566 163.567 -14.9902 195.78 18.9026C227.919 52.4902 243.123 96.3248 228.923 138.015C211.691 188.623 201.036 217.434 174.31 244.852Z" stroke="url(#paint24_linear_179_4345)" stroke-width="1.37" stroke-miterlimit="10"/>
</g>
<g style="mix-blend-mode:hard-light" opacity="0.44">
<path d="M176.518 246.546C100.556 316.588 -11.9028 187.117 64.8807 107.125C97.356 73.2952 169.251 -15.8344 199.191 21.0728C229.045 57.635 248.507 100.694 230.135 140.63C207.984 188.791 204.396 220.842 176.518 246.546Z" stroke="url(#paint25_linear_179_4345)" stroke-width="1.37" stroke-miterlimit="10"/>
</g>
<g style="mix-blend-mode:hard-light" opacity="0.38">
<path d="M178.725 248.238C104.457 309.201 -10.7449 196.797 62.7445 106.763C93.2748 69.3595 174.935 -16.6814 202.599 23.2404C230.172 62.78 253.915 105.075 231.344 143.243C204.299 188.977 207.852 224.324 178.725 248.238Z" stroke="url(#paint26_linear_179_4345)" stroke-width="1.37" stroke-miterlimit="10"/>
</g>
<g style="mix-blend-mode:hard-light" opacity="0.31">
<path d="M180.933 249.929C108.641 302.12 -9.40724 206.508 60.6085 106.398C89.2622 65.4295 180.619 -17.5284 206.01 25.4022C231.299 67.9164 259.342 109.472 232.556 145.849C200.643 189.191 211.406 227.926 180.933 249.929Z" stroke="url(#paint27_linear_179_4345)" stroke-width="1.37" stroke-miterlimit="10"/>
</g>
<g style="mix-blend-mode:hard-light" opacity="0.25">
<path d="M183.14 251.62C113.013 295.395 -7.90986 216.216 58.4725 106.036C85.3095 61.491 186.309 -18.3754 209.41 27.5754C232.414 73.0671 264.769 113.907 233.757 148.467C197.001 189.436 215.065 231.691 183.14 251.62Z" stroke="url(#paint28_linear_179_4345)" stroke-width="1.37" stroke-miterlimit="10"/>
</g>
<g style="mix-blend-mode:hard-light" opacity="0.19">
<path d="M185.348 253.311C117.514 289.064 -6.28171 225.893 56.3332 105.674C81.4077 57.5325 191.987 -19.2225 212.832 29.7429C233.554 78.2092 270.225 118.362 234.983 151.077C193.362 189.71 218.821 235.678 185.348 253.311Z" stroke="url(#paint29_linear_179_4345)" stroke-width="1.37" stroke-miterlimit="10"/>
</g>
<g style="mix-blend-mode:hard-light" opacity="0.13">
<path d="M187.555 255.002C122 283.168 -4.542 235.521 54.1971 105.309C77.5461 53.5482 197.671 -20.0696 216.254 31.9103C234.692 83.3541 275.675 122.84 236.218 153.689C189.731 190.012 222.606 239.953 187.555 255.002Z" stroke="url(#paint30_linear_179_4345)" stroke-width="1.37" stroke-miterlimit="10"/>
</g>
<g style="mix-blend-mode:hard-light" opacity="0.06">
<path d="M189.763 256.696C126.329 277.681 -2.71648 245.092 52.0612 104.946C73.719 49.5355 203.355 -20.9166 219.651 34.0778C235.805 88.4962 281.094 127.337 237.402 156.302C186.066 190.334 226.413 244.57 189.763 256.696Z" stroke="url(#paint31_linear_179_4345)" stroke-width="1.37" stroke-miterlimit="10"/>
</g>
<path opacity="0.03" d="M69.5489 192.81C-101.694 172.475 101.91 -46.8495 150.114 57.5381C174.091 109.458 278.609 51.0185 287.656 108.058C296.702 165.097 245.207 171.371 201.244 209.976C146.558 258.385 114.849 198.18 69.5489 192.81Z" stroke="url(#paint32_linear_179_4345)" stroke-width="1.37" stroke-miterlimit="10"/>
<path opacity="0.05" d="M68.9418 195.898C-93.1639 170.65 94.6408 -42.2407 149.524 55.0912C176.546 103.004 281.855 56.7453 287.129 112.649C292.459 168.502 243.305 178.815 199.351 212.394C144.55 254.255 113.013 202.763 68.9418 195.898Z" stroke="url(#paint33_linear_179_4345)" stroke-width="1.37" stroke-miterlimit="10"/>
<path opacity="0.07" d="M68.3316 198.993C-84.5309 169.09 87.2002 -37.7032 148.948 52.6499C178.928 96.5331 285.132 62.4692 286.615 117.238C288.184 171.942 241.497 186.364 197.457 214.818C142.674 250.228 111.205 207.378 68.3316 198.993Z" stroke="url(#paint34_linear_179_4345)" stroke-width="1.37" stroke-miterlimit="10"/>
<path opacity="0.1" d="M67.7239 202.084C-75.8183 167.841 79.5596 -33.2313 148.34 50.2058C181.175 90.0392 288.372 68.1903 286.073 121.821C283.906 175.347 239.712 193.902 195.563 217.243C140.797 246.198 109.454 212.041 67.7239 202.084Z" stroke="url(#paint35_linear_179_4345)" stroke-width="1.37" stroke-miterlimit="10"/>
<path opacity="0.13" d="M67.1136 205.176C-67.0428 166.92 71.6996 -28.7538 147.75 47.7616C183.328 83.5595 291.623 73.9113 285.557 126.407C279.639 178.77 237.961 201.443 193.681 219.667C138.966 242.174 107.746 216.763 67.1136 205.176Z" stroke="url(#paint36_linear_179_4345)" stroke-width="1.37" stroke-miterlimit="10"/>
<path opacity="0.15" d="M66.5032 208.267C-58.2388 166.369 63.6256 -24.202 147.16 45.3146C185.376 77.1198 294.874 79.6323 285.018 130.988C275.353 182.189 236.218 208.997 191.776 222.085C137.166 238.167 106.071 221.566 66.5032 208.267Z" stroke="url(#paint37_linear_179_4345)" stroke-width="1.37" stroke-miterlimit="10"/>
<path opacity="0.18" d="M65.896 211.359C-49.4375 166.212 55.3608 -19.5134 146.567 42.8734C187.327 70.7542 298.129 85.3676 284.491 135.576C271.086 185.611 234.504 216.572 189.882 224.506C135.395 234.192 104.417 226.44 65.896 211.359Z" stroke="url(#paint38_linear_179_4345)" stroke-width="1.37" stroke-miterlimit="10"/>
<path opacity="0.2" d="M65.2855 214.45C-40.6907 166.463 46.9502 -14.6337 145.976 40.4292C189.215 64.4713 301.383 91.0773 283.963 140.16C266.8 189.031 232.796 224.184 187.988 226.928C133.641 230.256 102.766 231.422 65.2855 214.45Z" stroke="url(#paint39_linear_179_4345)" stroke-width="1.37" stroke-miterlimit="10"/>
<path opacity="0.23" d="M64.6782 217.542C-32.0434 167.131 38.4401 -9.53152 145.389 37.9851C191.072 58.2854 304.637 96.7983 283.438 144.743C262.522 192.453 231.116 231.833 186.095 229.349C131.896 226.363 101.095 236.525 64.6782 217.542Z" stroke="url(#paint40_linear_179_4345)" stroke-width="1.37" stroke-miterlimit="10"/>
<path opacity="0.25" d="M64.0678 220.633C-23.5617 168.197 29.9241 -4.20124 144.795 35.5409C192.911 52.1878 307.888 102.519 282.908 149.334C258.247 195.878 229.416 239.519 184.201 231.776C130.139 222.513 99.3723 241.761 64.0678 220.633Z" stroke="url(#paint41_linear_179_4345)" stroke-width="1.37" stroke-miterlimit="10"/>
<path opacity="0.28" d="M63.4601 223.725C-15.3054 169.626 21.4193 1.34023 144.202 33.0969C194.77 46.176 311.142 108.24 282.38 153.912C253.969 199.295 227.696 247.234 182.316 234.192C128.357 218.714 97.5582 247.148 63.4601 223.725Z" stroke="url(#paint42_linear_179_4345)" stroke-width="1.37" stroke-miterlimit="10"/>
<path opacity="0.3" d="M62.8499 226.816C-7.33984 171.371 12.9804 7.06973 143.612 30.6526C196.658 40.2295 314.393 113.961 281.852 158.498C249.693 202.714 225.951 254.962 180.411 236.616C126.546 214.912 95.599 252.692 62.8499 226.816Z" stroke="url(#paint43_linear_179_4345)" stroke-width="1.37" stroke-miterlimit="10"/>
<path opacity="0.33" d="M62.2483 229.908C0.272258 173.322 4.6386 12.9476 143.022 28.2028C198.595 34.3288 317.648 119.677 281.325 163.075C245.416 206.14 224.174 262.703 178.517 239.031C124.706 211.133 93.4403 258.399 62.2483 229.908Z" stroke="url(#paint44_linear_179_4345)" stroke-width="1.37" stroke-miterlimit="10"/>
<path opacity="0.35" d="M61.6323 233C7.47064 175.39 -3.61495 18.9396 142.428 25.7644C200.569 28.488 320.899 125.403 280.8 167.664C241.141 209.556 222.375 270.454 176.612 241.458C122.824 207.358 91.0189 264.257 61.6323 233Z" stroke="url(#paint45_linear_179_4345)" stroke-width="1.37" stroke-miterlimit="10"/>
<path opacity="0.38" d="M61.022 236.091C14.2099 177.44 -11.7573 25.0058 141.838 23.3345C202.602 22.6672 324.153 131.139 280.273 172.264C236.863 212.993 220.552 278.215 174.73 243.894C120.922 203.576 88.2754 270.235 61.022 236.091Z" stroke="url(#paint46_linear_179_4345)" stroke-width="1.37" stroke-miterlimit="10"/>
<path opacity="0.4" d="M60.4143 239.185C20.4669 179.311 -19.7972 31.1232 141.248 20.8761C204.672 16.8377 327.407 136.863 279.745 176.836C232.585 216.398 218.713 285.935 172.836 246.301C119.002 199.786 85.1637 276.278 60.4143 239.185Z" stroke="url(#paint47_linear_179_4345)" stroke-width="1.37" stroke-miterlimit="10"/>
<defs>
<linearGradient id="paint0_linear_179_4345" x1="46.5315" y1="80.3551" x2="231.626" y2="234.75" gradientUnits="userSpaceOnUse">
<stop stop-color="#1813BF"/>
<stop offset="0.463542" stop-color="#954DC8"/>
<stop offset="1" stop-color="#FF8153"/>
</linearGradient>
<linearGradient id="paint1_linear_179_4345" x1="47.3838" y1="80.5726" x2="231.743" y2="232.913" gradientUnits="userSpaceOnUse">
<stop stop-color="#1813BF"/>
<stop offset="0.463542" stop-color="#954DC8"/>
<stop offset="1" stop-color="#FF8153"/>
</linearGradient>
<linearGradient id="paint2_linear_179_4345" x1="48.137" y1="80.7182" x2="231.878" y2="231.07" gradientUnits="userSpaceOnUse">
<stop stop-color="#1813BF"/>
<stop offset="0.463542" stop-color="#954DC8"/>
<stop offset="1" stop-color="#FF8153"/>
</linearGradient>
<linearGradient id="paint3_linear_179_4345" x1="48.7917" y1="80.8" x2="232.026" y2="229.237" gradientUnits="userSpaceOnUse">
<stop stop-color="#1813BF"/>
<stop offset="0.463542" stop-color="#954DC8"/>
<stop offset="1" stop-color="#FF8153"/>
</linearGradient>
<linearGradient id="paint4_linear_179_4345" x1="49.3555" y1="80.765" x2="232.213" y2="227.361" gradientUnits="userSpaceOnUse">
<stop stop-color="#1813BF"/>
<stop offset="0.463542" stop-color="#954DC8"/>
<stop offset="1" stop-color="#FF8153"/>
</linearGradient>
<linearGradient id="paint5_linear_179_4345" x1="49.8372" y1="80.4678" x2="232.601" y2="225.264" gradientUnits="userSpaceOnUse">
<stop stop-color="#1813BF"/>
<stop offset="0.463542" stop-color="#954DC8"/>
<stop offset="1" stop-color="#FF8153"/>
</linearGradient>
<linearGradient id="paint6_linear_179_4345" x1="50.2209" y1="79.3112" x2="233.716" y2="222.242" gradientUnits="userSpaceOnUse">
<stop stop-color="#1813BF"/>
<stop offset="0.463542" stop-color="#954DC8"/>
<stop offset="1" stop-color="#FF8153"/>
</linearGradient>
<linearGradient id="paint7_linear_179_4345" x1="50.5286" y1="77.2464" x2="235.567" y2="218.2" gradientUnits="userSpaceOnUse">
<stop stop-color="#1813BF"/>
<stop offset="0.463542" stop-color="#954DC8"/>
<stop offset="1" stop-color="#FF8153"/>
</linearGradient>
<linearGradient id="paint8_linear_179_4345" x1="50.7615" y1="74.7895" x2="237.632" y2="213.77" gradientUnits="userSpaceOnUse">
<stop stop-color="#1813BF"/>
<stop offset="0.463542" stop-color="#954DC8"/>
<stop offset="1" stop-color="#FF8153"/>
</linearGradient>
<linearGradient id="paint9_linear_179_4345" x1="50.9204" y1="72.1341" x2="239.733" y2="209.206" gradientUnits="userSpaceOnUse">
<stop stop-color="#1813BF"/>
<stop offset="0.463542" stop-color="#954DC8"/>
<stop offset="1" stop-color="#FF8153"/>
</linearGradient>
<linearGradient id="paint10_linear_179_4345" x1="51.0127" y1="69.3436" x2="241.86" y2="204.589" gradientUnits="userSpaceOnUse">
<stop stop-color="#1813BF"/>
<stop offset="0.463542" stop-color="#954DC8"/>
<stop offset="1" stop-color="#FF8153"/>
</linearGradient>
<linearGradient id="paint11_linear_179_4345" x1="51.0327" y1="66.4752" x2="243.972" y2="200.023" gradientUnits="userSpaceOnUse">
<stop stop-color="#1813BF"/>
<stop offset="0.463542" stop-color="#954DC8"/>
<stop offset="1" stop-color="#FF8153"/>
</linearGradient>
<linearGradient id="paint12_linear_179_4345" x1="50.989" y1="63.5476" x2="246.097" y2="195.509" gradientUnits="userSpaceOnUse">
<stop stop-color="#1813BF"/>
<stop offset="0.463542" stop-color="#954DC8"/>
<stop offset="1" stop-color="#FF8153"/>
</linearGradient>
<linearGradient id="paint13_linear_179_4345" x1="50.8833" y1="60.5836" x2="248.255" y2="191.103" gradientUnits="userSpaceOnUse">
<stop stop-color="#1813BF"/>
<stop offset="0.463542" stop-color="#954DC8"/>
<stop offset="1" stop-color="#FF8153"/>
</linearGradient>
<linearGradient id="paint14_linear_179_4345" x1="50.7166" y1="57.5955" x2="250.471" y2="186.824" gradientUnits="userSpaceOnUse">
<stop stop-color="#1813BF"/>
<stop offset="0.463542" stop-color="#954DC8"/>
<stop offset="1" stop-color="#FF8153"/>
</linearGradient>
<linearGradient id="paint15_linear_179_4345" x1="50.4951" y1="54.575" x2="252.784" y2="182.661" gradientUnits="userSpaceOnUse">
<stop stop-color="#1813BF"/>
<stop offset="0.463542" stop-color="#954DC8"/>
<stop offset="1" stop-color="#FF8153"/>
</linearGradient>
<linearGradient id="paint16_linear_179_4345" x1="39.6682" y1="1" x2="296.034" y2="109.651" gradientUnits="userSpaceOnUse">
<stop stop-color="#1813BF"/>
<stop offset="0.463542" stop-color="#954DC8"/>
<stop offset="1" stop-color="#FF8153"/>
</linearGradient>
<linearGradient id="paint17_linear_179_4345" x1="39.7612" y1="2.75168" x2="294.873" y2="111.991" gradientUnits="userSpaceOnUse">
<stop stop-color="#1813BF"/>
<stop offset="0.463542" stop-color="#954DC8"/>
<stop offset="1" stop-color="#FF8153"/>
</linearGradient>
<linearGradient id="paint18_linear_179_4345" x1="39.7742" y1="4.38266" x2="293.785" y2="114.325" gradientUnits="userSpaceOnUse">
<stop stop-color="#1813BF"/>
<stop offset="0.463542" stop-color="#954DC8"/>
<stop offset="1" stop-color="#FF8153"/>
</linearGradient>
<linearGradient id="paint19_linear_179_4345" x1="39.7178" y1="5.88364" x2="292.95" y2="116.819" gradientUnits="userSpaceOnUse">
<stop stop-color="#1813BF"/>
<stop offset="0.463542" stop-color="#954DC8"/>
<stop offset="1" stop-color="#FF8153"/>
</linearGradient>
<linearGradient id="paint20_linear_179_4345" x1="39.6128" y1="7.27126" x2="292.458" y2="119.581" gradientUnits="userSpaceOnUse">
<stop stop-color="#1813BF"/>
<stop offset="0.463542" stop-color="#954DC8"/>
<stop offset="1" stop-color="#FF8153"/>
</linearGradient>
<linearGradient id="paint21_linear_179_4345" x1="39.4829" y1="8.52605" x2="292.945" y2="123.284" gradientUnits="userSpaceOnUse">
<stop stop-color="#1813BF"/>
<stop offset="0.463542" stop-color="#954DC8"/>
<stop offset="1" stop-color="#FF8153"/>
</linearGradient>
<linearGradient id="paint22_linear_179_4345" x1="39.356" y1="9.65428" x2="294.451" y2="128.039" gradientUnits="userSpaceOnUse">
<stop stop-color="#1813BF"/>
<stop offset="0.463542" stop-color="#954DC8"/>
<stop offset="1" stop-color="#FF8153"/>
</linearGradient>
<linearGradient id="paint23_linear_179_4345" x1="39.251" y1="10.6563" x2="296.076" y2="132.825" gradientUnits="userSpaceOnUse">
<stop stop-color="#1813BF"/>
<stop offset="0.463542" stop-color="#954DC8"/>
<stop offset="1" stop-color="#FF8153"/>
</linearGradient>
<linearGradient id="paint24_linear_179_4345" x1="39.1904" y1="11.5296" x2="297.732" y2="137.489" gradientUnits="userSpaceOnUse">
<stop stop-color="#1813BF"/>
<stop offset="0.463542" stop-color="#954DC8"/>
<stop offset="1" stop-color="#FF8153"/>
</linearGradient>
<linearGradient id="paint25_linear_179_4345" x1="39.1709" y1="12.2827" x2="299.402" y2="142.011" gradientUnits="userSpaceOnUse">
<stop stop-color="#1813BF"/>
<stop offset="0.463542" stop-color="#954DC8"/>
<stop offset="1" stop-color="#FF8153"/>
</linearGradient>
<linearGradient id="paint26_linear_179_4345" x1="39.1809" y1="12.9075" x2="301.09" y2="146.358" gradientUnits="userSpaceOnUse">
<stop stop-color="#1813BF"/>
<stop offset="0.463542" stop-color="#954DC8"/>
<stop offset="1" stop-color="#FF8153"/>
</linearGradient>
<linearGradient id="paint27_linear_179_4345" x1="39.2043" y1="13.4033" x2="302.804" y2="150.528" gradientUnits="userSpaceOnUse">
<stop stop-color="#1813BF"/>
<stop offset="0.463542" stop-color="#954DC8"/>
<stop offset="1" stop-color="#FF8153"/>
</linearGradient>
<linearGradient id="paint28_linear_179_4345" x1="39.2097" y1="13.7793" x2="304.537" y2="154.536" gradientUnits="userSpaceOnUse">
<stop stop-color="#1813BF"/>
<stop offset="0.463542" stop-color="#954DC8"/>
<stop offset="1" stop-color="#FF8153"/>
</linearGradient>
<linearGradient id="paint29_linear_179_4345" x1="39.167" y1="14.0267" x2="306.323" y2="158.425" gradientUnits="userSpaceOnUse">
<stop stop-color="#1813BF"/>
<stop offset="0.463542" stop-color="#954DC8"/>
<stop offset="1" stop-color="#FF8153"/>
</linearGradient>
<linearGradient id="paint30_linear_179_4345" x1="39.051" y1="14.1494" x2="308.148" y2="162.189" gradientUnits="userSpaceOnUse">
<stop stop-color="#1813BF"/>
<stop offset="0.463542" stop-color="#954DC8"/>
<stop offset="1" stop-color="#FF8153"/>
</linearGradient>
<linearGradient id="paint31_linear_179_4345" x1="38.8352" y1="14.1489" x2="309.984" y2="165.82" gradientUnits="userSpaceOnUse">
<stop stop-color="#1813BF"/>
<stop offset="0.463542" stop-color="#954DC8"/>
<stop offset="1" stop-color="#FF8153"/>
</linearGradient>
<linearGradient id="paint32_linear_179_4345" x1="2.20068" y1="29.5098" x2="256.521" y2="263.638" gradientUnits="userSpaceOnUse">
<stop stop-color="#1813BF"/>
<stop offset="0.463542" stop-color="#954DC8"/>
<stop offset="1" stop-color="#FF8153"/>
</linearGradient>
<linearGradient id="paint33_linear_179_4345" x1="4.41626" y1="29.7712" x2="258.107" y2="260.92" gradientUnits="userSpaceOnUse">
<stop stop-color="#1813BF"/>
<stop offset="0.463542" stop-color="#954DC8"/>
<stop offset="1" stop-color="#FF8153"/>
</linearGradient>
<linearGradient id="paint34_linear_179_4345" x1="6.63232" y1="29.9716" x2="259.823" y2="258.376" gradientUnits="userSpaceOnUse">
<stop stop-color="#1813BF"/>
<stop offset="0.463542" stop-color="#954DC8"/>
<stop offset="1" stop-color="#FF8153"/>
</linearGradient>
<linearGradient id="paint35_linear_179_4345" x1="8.83032" y1="30.1022" x2="261.615" y2="256.046" gradientUnits="userSpaceOnUse">
<stop stop-color="#1813BF"/>
<stop offset="0.463542" stop-color="#954DC8"/>
<stop offset="1" stop-color="#FF8153"/>
</linearGradient>
<linearGradient id="paint36_linear_179_4345" x1="10.9929" y1="30.178" x2="263.455" y2="253.884" gradientUnits="userSpaceOnUse">
<stop stop-color="#1813BF"/>
<stop offset="0.463542" stop-color="#954DC8"/>
<stop offset="1" stop-color="#FF8153"/>
</linearGradient>
<linearGradient id="paint37_linear_179_4345" x1="13.0984" y1="30.2067" x2="265.319" y2="251.838" gradientUnits="userSpaceOnUse">
<stop stop-color="#1813BF"/>
<stop offset="0.463542" stop-color="#954DC8"/>
<stop offset="1" stop-color="#FF8153"/>
</linearGradient>
<linearGradient id="paint38_linear_179_4345" x1="15.1282" y1="30.1923" x2="267.203" y2="249.944" gradientUnits="userSpaceOnUse">
<stop stop-color="#1813BF"/>
<stop offset="0.463542" stop-color="#954DC8"/>
<stop offset="1" stop-color="#FF8153"/>
</linearGradient>
<linearGradient id="paint39_linear_179_4345" x1="17.0532" y1="30.1167" x2="269.146" y2="248.179" gradientUnits="userSpaceOnUse">
<stop stop-color="#1813BF"/>
<stop offset="0.463542" stop-color="#954DC8"/>
<stop offset="1" stop-color="#FF8153"/>
</linearGradient>
<linearGradient id="paint40_linear_179_4345" x1="18.8491" y1="29.9518" x2="271.463" y2="246.477" gradientUnits="userSpaceOnUse">
<stop stop-color="#1813BF"/>
<stop offset="0.463542" stop-color="#954DC8"/>
<stop offset="1" stop-color="#FF8153"/>
</linearGradient>
<linearGradient id="paint41_linear_179_4345" x1="20.4856" y1="29.6487" x2="276.616" y2="244.363" gradientUnits="userSpaceOnUse">
<stop stop-color="#1813BF"/>
<stop offset="0.463542" stop-color="#954DC8"/>
<stop offset="1" stop-color="#FF8153"/>
</linearGradient>
<linearGradient id="paint42_linear_179_4345" x1="21.9204" y1="29.1419" x2="282.181" y2="242.118" gradientUnits="userSpaceOnUse">
<stop stop-color="#1813BF"/>
<stop offset="0.463542" stop-color="#954DC8"/>
<stop offset="1" stop-color="#FF8153"/>
</linearGradient>
<linearGradient id="paint43_linear_179_4345" x1="23.1128" y1="28.3531" x2="287.998" y2="239.696" gradientUnits="userSpaceOnUse">
<stop stop-color="#1813BF"/>
<stop offset="0.463542" stop-color="#954DC8"/>
<stop offset="1" stop-color="#FF8153"/>
</linearGradient>
<linearGradient id="paint44_linear_179_4345" x1="24.0227" y1="27.1848" x2="293.994" y2="237.028" gradientUnits="userSpaceOnUse">
<stop stop-color="#1813BF"/>
<stop offset="0.463542" stop-color="#954DC8"/>
<stop offset="1" stop-color="#FF8153"/>
</linearGradient>
<linearGradient id="paint45_linear_179_4345" x1="24.5964" y1="25.548" x2="300.138" y2="234.058" gradientUnits="userSpaceOnUse">
<stop stop-color="#1813BF"/>
<stop offset="0.463542" stop-color="#954DC8"/>
<stop offset="1" stop-color="#FF8153"/>
</linearGradient>
<linearGradient id="paint46_linear_179_4345" x1="24.8145" y1="23.3315" x2="306.452" y2="230.67" gradientUnits="userSpaceOnUse">
<stop stop-color="#1813BF"/>
<stop offset="0.463542" stop-color="#954DC8"/>
<stop offset="1" stop-color="#FF8153"/>
</linearGradient>
<linearGradient id="paint47_linear_179_4345" x1="24.6631" y1="20.7766" x2="312.643" y2="227.2" gradientUnits="userSpaceOnUse">
<stop stop-color="#1813BF"/>
<stop offset="0.463542" stop-color="#954DC8"/>
<stop offset="1" stop-color="#FF8153"/>
</linearGradient>
</defs>
</svg>
