<svg width="346" height="332" viewBox="0 0 346 332" fill="none" xmlns="http://www.w3.org/2000/svg">
<path opacity="0.04" d="M293.777 174.338C452.645 232.925 212.568 408.892 188.562 292.884C176.619 235.159 64.7211 270.858 68.0851 211.312C71.449 151.766 121.829 156.901 171.85 127.722C234.16 91.0521 251.713 158.827 293.777 174.338Z" stroke="url(#paint0_linear_182_4988)" stroke-width="1.37" stroke-miterlimit="10"/>
<path opacity="0.07" d="M295.007 171.353C444.05 232.813 220.454 405.812 188.611 295.481C172.917 241.1 62.8243 264.376 69.5522 206.806C76.2217 149.281 125.234 149.79 174.18 125.7C235.21 95.6582 254.406 154.613 295.007 171.353Z" stroke="url(#paint1_linear_182_4988)" stroke-width="1.37" stroke-miterlimit="10"/>
<path opacity="0.11" d="M296.241 168.368C435.421 232.413 228.474 402.856 188.661 298.078C169.291 247.098 60.9235 257.882 71.0195 202.295C81.003 146.772 128.544 142.587 176.481 123.679C236.178 100.143 257.066 150.344 296.241 168.368Z" stroke="url(#paint2_linear_182_4988)" stroke-width="1.37" stroke-miterlimit="10"/>
<path opacity="0.15" d="M297.471 165.396C426.784 231.675 236.67 400.013 188.712 300.687C165.752 253.121 59.027 251.383 72.4827 197.789C85.8009 144.275 131.833 135.384 178.803 121.657C237.107 104.625 259.684 146.013 297.471 165.396Z" stroke="url(#paint3_linear_182_4988)" stroke-width="1.37" stroke-miterlimit="10"/>
<path opacity="0.19" d="M298.7 162.403C418.168 230.595 245.061 397.191 188.762 303.272C162.321 259.186 57.1262 244.889 73.95 193.283C90.5947 141.774 135.097 128.168 181.121 119.635C238.003 109.093 262.276 141.611 298.7 162.403Z" stroke="url(#paint4_linear_182_4988)" stroke-width="1.37" stroke-miterlimit="10"/>
<path opacity="0.23" d="M299.93 159.419C409.614 229.128 253.66 394.373 188.812 305.869C158.999 265.193 55.2297 238.394 75.43 188.773C95.4011 139.273 138.344 120.931 183.447 117.613C238.871 113.537 264.857 137.13 299.93 159.419Z" stroke="url(#paint5_linear_182_4988)" stroke-width="1.37" stroke-miterlimit="10"/>
<path opacity="0.26" d="M301.16 156.434C401.169 227.269 262.506 391.476 188.862 308.466C155.785 271.187 53.333 231.9 76.8848 184.246C100.186 136.751 141.546 113.649 185.748 115.571C239.713 117.943 267.437 132.553 301.16 156.434Z" stroke="url(#paint6_linear_182_4988)" stroke-width="1.37" stroke-miterlimit="10"/>
<path opacity="0.3" d="M302.389 153.45C392.882 225.014 271.543 388.442 188.912 311.067C152.675 277.111 51.4321 225.422 78.3478 179.761C104.98 134.275 144.755 106.367 188.061 113.57C240.546 122.303 270.046 127.88 302.389 153.45Z" stroke="url(#paint7_linear_182_4988)" stroke-width="1.37" stroke-miterlimit="10"/>
<path opacity="0.34" d="M303.619 150.469C384.8 222.387 280.693 385.215 188.962 313.664C149.591 282.947 49.5355 218.907 79.8151 175.251C109.774 131.774 147.965 99.0264 190.375 111.548C241.384 126.63 272.702 123.078 303.619 150.469Z" stroke="url(#paint8_linear_182_4988)" stroke-width="1.37" stroke-miterlimit="10"/>
<path opacity="0.38" d="M304.849 147.472C376.963 219.403 289.959 381.764 189.012 316.248C146.561 288.712 47.6308 212.412 81.2827 170.745C114.572 129.273 151.2 91.6482 192.693 109.539C242.247 130.882 275.453 118.164 304.849 147.472Z" stroke="url(#paint9_linear_182_4988)" stroke-width="1.37" stroke-miterlimit="10"/>
<path opacity="0.41" d="M306.074 144.5C369.455 216.151 299.246 378.112 189.053 318.858C143.534 294.381 45.7297 205.918 82.758 166.238C119.374 126.772 154.455 84.2451 195.01 107.505C243.131 135.121 278.329 113.128 306.074 144.5Z" stroke="url(#paint10_linear_182_4988)" stroke-width="1.37" stroke-miterlimit="10"/>
<path opacity="0.45" d="M307.325 141.52C362.302 212.679 308.538 374.236 189.112 321.455C140.507 299.971 43.8412 199.419 84.2126 161.728C124.159 124.275 157.752 76.8294 197.319 105.483C244.077 139.344 281.389 107.976 307.325 141.52Z" stroke="url(#paint11_linear_182_4988)" stroke-width="1.37" stroke-miterlimit="10"/>
<path opacity="0.49" d="M308.542 138.535C355.532 209.086 317.771 370.196 189.161 324.052C137.444 305.498 41.9402 192.908 85.6797 157.222C128.957 121.79 161.074 69.4136 199.633 103.449C245.048 143.566 284.681 102.715 308.542 138.535Z" stroke="url(#paint12_linear_182_4988)" stroke-width="1.37" stroke-miterlimit="10"/>
<path opacity="0.53" d="M309.772 135.55C349.185 205.501 326.917 366.007 189.212 326.649C134.334 310.971 40.0441 186.43 87.1476 152.712C133.751 119.272 164.426 61.998 201.947 101.44C246.049 147.797 288.263 97.3756 309.772 135.55Z" stroke="url(#paint13_linear_182_4988)" stroke-width="1.37" stroke-miterlimit="10"/>
<path opacity="0.56" d="M311.001 132.566C343.252 202.05 335.987 361.705 189.262 329.246C131.195 316.403 38.1471 179.932 88.6145 148.206C138.544 116.776 167.815 54.599 204.26 99.4348C247.074 152.057 292.172 92.0067 311.001 132.566Z" stroke="url(#paint14_linear_182_4988)" stroke-width="1.37" stroke-miterlimit="10"/>
<path opacity="0.6" d="M312.231 129.585C337.725 198.873 344.957 357.328 189.307 331.842C128.006 321.809 36.2462 173.441 90.0984 143.7C143.342 114.274 171.179 47.2083 206.573 97.3964C248.133 156.301 296.437 86.6585 312.231 129.585Z" stroke="url(#paint15_linear_182_4988)" stroke-width="1.37" stroke-miterlimit="10"/>
<path d="M228.958 337.637C115.289 568.748 -27.4598 156.126 122.929 160.895C198.241 163.279 172.601 -12.4628 246.274 1.82659C319.947 16.116 293.473 88.9471 320.418 170.728C354.082 272.855 258.341 277.915 228.958 337.637Z" stroke="url(#paint16_linear_182_4988)" stroke-width="1.37" stroke-miterlimit="10"/>
<g style="mix-blend-mode:hard-light" opacity="0.94">
<path d="M232.192 340.108C117.318 556.676 -25.897 168.16 119.815 160.361C192.209 156.488 180.916 -13.701 251.263 4.99446C321.61 23.69 301.309 95.4081 322.198 174.567C348.613 273.188 262.518 282.947 232.192 340.108Z" stroke="url(#paint17_linear_182_4988)" stroke-width="1.37" stroke-miterlimit="10"/>
</g>
<g style="mix-blend-mode:hard-light" opacity="0.88">
<path d="M235.419 342.58C119.636 544.588 -24.5964 180.319 116.693 159.831C186.056 149.773 189.224 -14.939 256.249 8.16253C323.244 31.1724 308.859 101.919 323.969 178.364C342.794 273.597 266.749 287.92 235.419 342.58Z" stroke="url(#paint18_linear_182_4988)" stroke-width="1.37" stroke-miterlimit="10"/>
</g>
<g style="mix-blend-mode:hard-light" opacity="0.81">
<path d="M238.645 345.056C122.287 532.499 -23.5291 192.683 113.567 159.302C179.808 143.17 197.532 -16.1895 261.234 11.3222C324.895 38.6756 316.554 108.372 325.741 182.183C337.158 273.93 271.059 292.863 238.645 345.056Z" stroke="url(#paint19_linear_182_4988)" stroke-width="1.37" stroke-miterlimit="10"/>
</g>
<g style="mix-blend-mode:hard-light" opacity="0.75">
<path d="M241.88 347.528C125.301 520.448 -22.6286 205.318 110.445 158.769C173.489 136.717 205.84 -17.4151 266.216 14.4986C326.541 46.1788 324.261 114.8 327.492 185.997C331.539 274.23 275.407 297.778 241.88 347.528Z" stroke="url(#paint20_linear_182_4988)" stroke-width="1.37" stroke-miterlimit="10"/>
</g>
<g style="mix-blend-mode:hard-light" opacity="0.69">
<path d="M245.094 350C128.724 508.464 -21.8074 218.277 107.323 158.252C167.144 130.427 214.148 -18.6531 271.201 17.6666C328.188 53.707 331.985 121.207 329.28 189.823C325.941 274.505 279.859 302.663 245.094 350Z" stroke="url(#paint21_linear_182_4988)" stroke-width="1.37" stroke-miterlimit="10"/>
</g>
<g style="mix-blend-mode:hard-light" opacity="0.63">
<path d="M248.321 352.472C132.584 496.596 -20.9611 231.55 104.201 157.706C160.817 124.304 222.455 -19.8911 276.187 20.8347C329.835 61.2227 339.739 127.589 331.052 193.633C320.381 274.76 284.399 307.54 248.321 352.472Z" stroke="url(#paint22_linear_182_4988)" stroke-width="1.37" stroke-miterlimit="10"/>
</g>
<g style="mix-blend-mode:hard-light" opacity="0.56">
<path d="M251.547 354.944C136.914 484.895 -19.9943 245.143 101.066 157.176C154.534 118.326 230.75 -21.1291 281.143 24.0027C331.502 68.7426 347.525 133.962 332.823 197.452C314.865 274.993 289.059 312.426 251.547 354.944Z" stroke="url(#paint23_linear_182_4988)" stroke-width="1.37" stroke-miterlimit="10"/>
</g>
<g style="mix-blend-mode:hard-light" opacity="0.5">
<path d="M254.773 357.416C141.704 473.445 -18.8229 258.99 97.952 156.643C148.39 112.457 239.071 -22.3713 286.153 27.1665C333.127 76.2583 355.349 140.327 334.595 201.262C309.409 275.231 293.836 317.34 254.773 357.416Z" stroke="url(#paint24_linear_182_4988)" stroke-width="1.37" stroke-miterlimit="10"/>
</g>
<g style="mix-blend-mode:hard-light" opacity="0.44">
<path d="M258 359.892C146.973 462.265 -17.3971 273.03 94.83 156.113C142.296 106.667 247.378 -23.6053 291.139 30.3386C334.774 83.7781 363.22 146.713 336.367 205.084C303.99 275.477 298.746 322.322 258 359.892Z" stroke="url(#paint25_linear_182_4988)" stroke-width="1.37" stroke-miterlimit="10"/>
</g>
<g style="mix-blend-mode:hard-light" opacity="0.38">
<path d="M261.226 362.364C152.676 451.469 -15.7047 287.178 91.7078 155.584C136.331 100.915 255.686 -24.8432 296.12 33.5067C336.421 91.2981 371.123 153.116 338.134 208.902C298.605 275.748 303.798 327.411 261.226 362.364Z" stroke="url(#paint26_linear_182_4988)" stroke-width="1.37" stroke-miterlimit="10"/>
</g>
<g style="mix-blend-mode:hard-light" opacity="0.31">
<path d="M264.452 364.836C158.791 441.118 -13.7497 301.371 88.5857 155.05C130.466 95.1705 263.994 -26.0813 301.106 36.6664C338.067 98.8054 379.056 159.544 339.906 212.712C293.261 276.06 308.992 332.676 264.452 364.836Z" stroke="url(#paint27_linear_182_4988)" stroke-width="1.37" stroke-miterlimit="10"/>
</g>
<g style="mix-blend-mode:hard-light" opacity="0.25">
<path d="M267.679 367.308C165.181 431.289 -11.5612 315.561 85.4636 154.521C124.689 89.414 272.31 -27.3193 306.075 39.8428C339.697 106.334 386.988 166.026 341.661 216.539C287.938 276.419 314.341 338.179 267.679 367.308Z" stroke="url(#paint28_linear_182_4988)" stroke-width="1.37" stroke-miterlimit="10"/>
</g>
<g style="mix-blend-mode:hard-light" opacity="0.19">
<path d="M270.905 369.78C171.758 422.035 -9.18149 329.704 82.3368 153.992C118.986 83.6282 280.609 -28.5573 311.076 43.0108C341.364 113.849 394.962 172.537 343.452 220.353C282.618 276.819 319.83 344.006 270.905 369.78Z" stroke="url(#paint29_linear_182_4988)" stroke-width="1.37" stroke-miterlimit="10"/>
</g>
<g style="mix-blend-mode:hard-light" opacity="0.13">
<path d="M274.131 372.251C178.315 413.419 -6.63866 343.777 79.2147 153.458C113.342 77.8047 288.917 -29.7954 316.078 46.1787C343.027 121.369 402.928 179.081 345.258 224.171C277.312 277.261 325.362 350.254 274.131 372.251Z" stroke="url(#paint30_linear_182_4988)" stroke-width="1.37" stroke-miterlimit="10"/>
</g>
<g style="mix-blend-mode:hard-light" opacity="0.06">
<path d="M277.358 374.727C184.643 405.399 -3.97045 357.766 76.0929 152.928C107.748 71.9397 297.225 -31.0334 321.043 49.3467C344.654 128.885 410.848 185.655 346.988 227.99C271.956 277.732 330.927 357.003 277.358 374.727Z" stroke="url(#paint31_linear_182_4988)" stroke-width="1.37" stroke-miterlimit="10"/>
</g>
<path opacity="0.03" d="M101.653 281.35C-148.637 251.629 148.952 -68.9371 219.408 83.6364C254.452 159.523 407.217 74.1073 420.439 157.476C433.662 240.845 358.396 250.016 294.139 306.44C214.209 377.195 167.865 289.199 101.653 281.35Z" stroke="url(#paint32_linear_182_4988)" stroke-width="1.37" stroke-miterlimit="10"/>
<path opacity="0.05" d="M100.766 285.864C-136.169 248.961 138.328 -62.2008 218.545 80.0599C258.041 150.09 411.961 82.4776 419.669 164.188C427.459 245.822 355.616 260.895 291.372 309.975C211.275 371.159 165.181 295.898 100.766 285.864Z" stroke="url(#paint33_linear_182_4988)" stroke-width="1.37" stroke-miterlimit="10"/>
<path opacity="0.07" d="M99.8738 290.387C-123.551 246.681 127.452 -55.5688 217.703 76.4918C261.522 140.632 416.751 90.8438 418.918 170.895C421.211 250.85 352.974 271.929 288.604 313.518C208.533 365.274 162.538 302.643 99.8738 290.387Z" stroke="url(#paint34_linear_182_4988)" stroke-width="1.37" stroke-miterlimit="10"/>
<path opacity="0.1" d="M98.9857 294.906C-110.816 244.855 116.285 -49.0327 216.815 72.9194C264.807 131.14 421.486 99.2057 418.126 177.593C414.958 255.827 350.364 282.947 285.836 317.061C205.79 359.383 159.978 309.458 98.9857 294.906Z" stroke="url(#paint35_linear_182_4988)" stroke-width="1.37" stroke-miterlimit="10"/>
<path opacity="0.13" d="M98.0937 299.425C-97.99 243.509 104.797 -42.4882 215.952 69.347C267.954 121.669 426.238 107.568 417.372 184.296C408.722 260.829 347.805 293.968 283.085 320.604C203.114 353.502 157.482 316.361 98.0937 299.425Z" stroke="url(#paint36_linear_182_4988)" stroke-width="1.37" stroke-miterlimit="10"/>
<path opacity="0.15" d="M97.2016 303.943C-85.1221 242.704 92.9956 -35.8354 215.089 65.7705C270.947 112.257 430.99 115.929 416.584 190.991C402.457 265.827 345.258 305.01 280.301 324.139C200.483 347.645 155.035 323.381 97.2016 303.943Z" stroke="url(#paint37_linear_182_4988)" stroke-width="1.37" stroke-miterlimit="10"/>
<path opacity="0.18" d="M96.3138 308.462C-72.2582 242.475 80.9156 -28.9825 214.223 62.2023C273.798 102.953 435.746 124.312 415.813 197.698C396.221 270.829 342.752 316.082 277.533 327.678C197.895 341.834 152.617 330.504 96.3138 308.462Z" stroke="url(#paint38_linear_182_4988)" stroke-width="1.37" stroke-miterlimit="10"/>
<path opacity="0.2" d="M95.4215 312.98C-59.4738 242.842 68.6226 -21.8502 213.359 58.63C276.557 93.77 440.502 132.657 415.041 204.396C389.956 275.827 340.255 327.207 274.765 331.217C195.331 336.082 150.203 337.787 95.4215 312.98Z" stroke="url(#paint39_linear_182_4988)" stroke-width="1.37" stroke-miterlimit="10"/>
<path opacity="0.23" d="M94.534 317.499C-46.8347 243.817 56.1843 -14.3929 212.501 55.0576C279.271 84.7286 445.259 141.019 414.275 211.095C383.703 280.829 337.8 338.387 271.997 334.756C192.78 330.392 147.761 345.244 94.534 317.499Z" stroke="url(#paint40_linear_182_4988)" stroke-width="1.37" stroke-miterlimit="10"/>
<path opacity="0.25" d="M93.6419 322.017C-34.4379 245.376 43.7372 -6.60217 211.634 51.4851C281.96 75.8164 450.011 149.381 413.499 217.806C377.455 285.835 335.316 349.621 269.229 338.303C190.212 324.764 145.243 352.897 93.6419 322.017Z" stroke="url(#paint41_linear_182_4988)" stroke-width="1.37" stroke-miterlimit="10"/>
<path opacity="0.28" d="M92.7537 326.536C-22.3704 247.465 31.3066 1.49728 210.767 47.9129C284.677 67.0294 454.767 157.743 412.728 224.497C371.202 290.829 332.802 360.897 266.474 341.834C187.607 319.212 142.592 360.772 92.7537 326.536Z" stroke="url(#paint42_linear_182_4988)" stroke-width="1.37" stroke-miterlimit="10"/>
<path opacity="0.3" d="M91.8617 331.055C-10.728 250.016 18.9722 9.87154 209.904 44.3404C287.437 58.3381 459.519 166.105 411.957 231.199C364.953 295.827 330.251 372.193 263.689 345.377C184.96 313.655 139.728 368.875 91.8617 331.055Z" stroke="url(#paint43_linear_182_4988)" stroke-width="1.37" stroke-miterlimit="10"/>
<path opacity="0.33" d="M90.9826 335.573C0.398033 252.867 6.77991 18.4627 209.041 40.7598C290.268 49.7136 464.275 174.459 411.186 237.89C358.701 300.833 327.655 383.506 260.922 348.908C182.272 308.132 136.573 377.216 90.9826 335.573Z" stroke="url(#paint44_linear_182_4988)" stroke-width="1.37" stroke-miterlimit="10"/>
<path opacity="0.35" d="M90.082 340.092C10.919 255.889 -5.28372 27.2207 208.174 37.1958C293.152 41.1766 469.027 182.829 410.419 244.597C352.452 305.827 325.024 394.836 258.137 352.455C179.52 302.613 133.034 385.778 90.082 340.092Z" stroke="url(#paint45_linear_182_4988)" stroke-width="1.37" stroke-miterlimit="10"/>
<path opacity="0.38" d="M89.1903 344.61C20.7694 258.886 -17.1844 36.087 207.312 33.6443C296.124 32.6688 473.784 191.212 409.648 251.321C346.2 310.85 322.361 406.178 255.386 356.015C176.74 297.086 129.024 394.515 89.1903 344.61Z" stroke="url(#paint46_linear_182_4988)" stroke-width="1.37" stroke-miterlimit="10"/>
<path opacity="0.4" d="M88.3018 349.133C29.9144 261.621 -28.9357 45.0283 206.448 30.051C299.15 24.1485 478.539 199.578 408.876 258.003C339.947 315.827 319.671 417.462 252.618 359.533C173.934 291.546 124.476 403.348 88.3018 349.133Z" stroke="url(#paint47_linear_182_4988)" stroke-width="1.37" stroke-miterlimit="10"/>
<defs>
<linearGradient id="paint0_linear_182_4988" x1="68.0107" y1="116.986" x2="338.546" y2="342.651" gradientUnits="userSpaceOnUse">
<stop stop-color="#1813BF"/>
<stop offset="0.463542" stop-color="#954DC8"/>
<stop offset="1" stop-color="#FF8153"/>
</linearGradient>
<linearGradient id="paint1_linear_182_4988" x1="69.2563" y1="117.304" x2="338.716" y2="339.965" gradientUnits="userSpaceOnUse">
<stop stop-color="#1813BF"/>
<stop offset="0.463542" stop-color="#954DC8"/>
<stop offset="1" stop-color="#FF8153"/>
</linearGradient>
<linearGradient id="paint2_linear_182_4988" x1="70.3572" y1="117.517" x2="338.914" y2="337.271" gradientUnits="userSpaceOnUse">
<stop stop-color="#1813BF"/>
<stop offset="0.463542" stop-color="#954DC8"/>
<stop offset="1" stop-color="#FF8153"/>
</linearGradient>
<linearGradient id="paint3_linear_182_4988" x1="71.3142" y1="117.636" x2="339.13" y2="334.592" gradientUnits="userSpaceOnUse">
<stop stop-color="#1813BF"/>
<stop offset="0.463542" stop-color="#954DC8"/>
<stop offset="1" stop-color="#FF8153"/>
</linearGradient>
<linearGradient id="paint4_linear_182_4988" x1="72.1382" y1="117.585" x2="339.404" y2="331.85" gradientUnits="userSpaceOnUse">
<stop stop-color="#1813BF"/>
<stop offset="0.463542" stop-color="#954DC8"/>
<stop offset="1" stop-color="#FF8153"/>
</linearGradient>
<linearGradient id="paint5_linear_182_4988" x1="72.8423" y1="117.151" x2="339.971" y2="328.786" gradientUnits="userSpaceOnUse">
<stop stop-color="#1813BF"/>
<stop offset="0.463542" stop-color="#954DC8"/>
<stop offset="1" stop-color="#FF8153"/>
</linearGradient>
<linearGradient id="paint6_linear_182_4988" x1="73.4033" y1="115.46" x2="341.601" y2="324.368" gradientUnits="userSpaceOnUse">
<stop stop-color="#1813BF"/>
<stop offset="0.463542" stop-color="#954DC8"/>
<stop offset="1" stop-color="#FF8153"/>
</linearGradient>
<linearGradient id="paint7_linear_182_4988" x1="73.8528" y1="112.442" x2="344.306" y2="318.46" gradientUnits="userSpaceOnUse">
<stop stop-color="#1813BF"/>
<stop offset="0.463542" stop-color="#954DC8"/>
<stop offset="1" stop-color="#FF8153"/>
</linearGradient>
<linearGradient id="paint8_linear_182_4988" x1="74.1934" y1="108.851" x2="347.324" y2="311.985" gradientUnits="userSpaceOnUse">
<stop stop-color="#1813BF"/>
<stop offset="0.463542" stop-color="#954DC8"/>
<stop offset="1" stop-color="#FF8153"/>
</linearGradient>
<linearGradient id="paint9_linear_182_4988" x1="74.4255" y1="104.97" x2="350.395" y2="305.314" gradientUnits="userSpaceOnUse">
<stop stop-color="#1813BF"/>
<stop offset="0.463542" stop-color="#954DC8"/>
<stop offset="1" stop-color="#FF8153"/>
</linearGradient>
<linearGradient id="paint10_linear_182_4988" x1="74.5605" y1="100.891" x2="353.504" y2="298.567" gradientUnits="userSpaceOnUse">
<stop stop-color="#1813BF"/>
<stop offset="0.463542" stop-color="#954DC8"/>
<stop offset="1" stop-color="#FF8153"/>
</linearGradient>
<linearGradient id="paint11_linear_182_4988" x1="74.5896" y1="96.6989" x2="356.591" y2="291.894" gradientUnits="userSpaceOnUse">
<stop stop-color="#1813BF"/>
<stop offset="0.463542" stop-color="#954DC8"/>
<stop offset="1" stop-color="#FF8153"/>
</linearGradient>
<linearGradient id="paint12_linear_182_4988" x1="74.5259" y1="92.4199" x2="359.696" y2="285.296" gradientUnits="userSpaceOnUse">
<stop stop-color="#1813BF"/>
<stop offset="0.463542" stop-color="#954DC8"/>
<stop offset="1" stop-color="#FF8153"/>
</linearGradient>
<linearGradient id="paint13_linear_182_4988" x1="74.3713" y1="88.0878" x2="362.851" y2="278.855" gradientUnits="userSpaceOnUse">
<stop stop-color="#1813BF"/>
<stop offset="0.463542" stop-color="#954DC8"/>
<stop offset="1" stop-color="#FF8153"/>
</linearGradient>
<linearGradient id="paint14_linear_182_4988" x1="74.1277" y1="83.7203" x2="366.09" y2="272.601" gradientUnits="userSpaceOnUse">
<stop stop-color="#1813BF"/>
<stop offset="0.463542" stop-color="#954DC8"/>
<stop offset="1" stop-color="#FF8153"/>
</linearGradient>
<linearGradient id="paint15_linear_182_4988" x1="73.804" y1="79.3055" x2="369.471" y2="266.516" gradientUnits="userSpaceOnUse">
<stop stop-color="#1813BF"/>
<stop offset="0.463542" stop-color="#954DC8"/>
<stop offset="1" stop-color="#FF8153"/>
</linearGradient>
<linearGradient id="paint16_linear_182_4988" x1="57.9792" y1="1" x2="432.685" y2="159.805" gradientUnits="userSpaceOnUse">
<stop stop-color="#1813BF"/>
<stop offset="0.463542" stop-color="#954DC8"/>
<stop offset="1" stop-color="#FF8153"/>
</linearGradient>
<linearGradient id="paint17_linear_182_4988" x1="58.1152" y1="3.56026" x2="430.988" y2="163.225" gradientUnits="userSpaceOnUse">
<stop stop-color="#1813BF"/>
<stop offset="0.463542" stop-color="#954DC8"/>
<stop offset="1" stop-color="#FF8153"/>
</linearGradient>
<linearGradient id="paint18_linear_182_4988" x1="58.134" y1="5.94414" x2="429.398" y2="166.637" gradientUnits="userSpaceOnUse">
<stop stop-color="#1813BF"/>
<stop offset="0.463542" stop-color="#954DC8"/>
<stop offset="1" stop-color="#FF8153"/>
</linearGradient>
<linearGradient id="paint19_linear_182_4988" x1="58.0518" y1="8.13795" x2="428.178" y2="170.282" gradientUnits="userSpaceOnUse">
<stop stop-color="#1813BF"/>
<stop offset="0.463542" stop-color="#954DC8"/>
<stop offset="1" stop-color="#FF8153"/>
</linearGradient>
<linearGradient id="paint20_linear_182_4988" x1="57.8982" y1="10.1661" x2="427.459" y2="174.318" gradientUnits="userSpaceOnUse">
<stop stop-color="#1813BF"/>
<stop offset="0.463542" stop-color="#954DC8"/>
<stop offset="1" stop-color="#FF8153"/>
</linearGradient>
<linearGradient id="paint21_linear_182_4988" x1="57.7085" y1="12.0001" x2="428.17" y2="179.731" gradientUnits="userSpaceOnUse">
<stop stop-color="#1813BF"/>
<stop offset="0.463542" stop-color="#954DC8"/>
<stop offset="1" stop-color="#FF8153"/>
</linearGradient>
<linearGradient id="paint22_linear_182_4988" x1="57.5229" y1="13.6491" x2="430.372" y2="186.681" gradientUnits="userSpaceOnUse">
<stop stop-color="#1813BF"/>
<stop offset="0.463542" stop-color="#954DC8"/>
<stop offset="1" stop-color="#FF8153"/>
</linearGradient>
<linearGradient id="paint23_linear_182_4988" x1="57.3694" y1="15.1137" x2="432.746" y2="193.677" gradientUnits="userSpaceOnUse">
<stop stop-color="#1813BF"/>
<stop offset="0.463542" stop-color="#954DC8"/>
<stop offset="1" stop-color="#FF8153"/>
</linearGradient>
<linearGradient id="paint24_linear_182_4988" x1="57.281" y1="16.3901" x2="435.167" y2="200.494" gradientUnits="userSpaceOnUse">
<stop stop-color="#1813BF"/>
<stop offset="0.463542" stop-color="#954DC8"/>
<stop offset="1" stop-color="#FF8153"/>
</linearGradient>
<linearGradient id="paint25_linear_182_4988" x1="57.2524" y1="17.4909" x2="437.608" y2="207.103" gradientUnits="userSpaceOnUse">
<stop stop-color="#1813BF"/>
<stop offset="0.463542" stop-color="#954DC8"/>
<stop offset="1" stop-color="#FF8153"/>
</linearGradient>
<linearGradient id="paint26_linear_182_4988" x1="57.2671" y1="18.4041" x2="440.075" y2="213.456" gradientUnits="userSpaceOnUse">
<stop stop-color="#1813BF"/>
<stop offset="0.463542" stop-color="#954DC8"/>
<stop offset="1" stop-color="#FF8153"/>
</linearGradient>
<linearGradient id="paint27_linear_182_4988" x1="57.3013" y1="19.1288" x2="442.58" y2="219.551" gradientUnits="userSpaceOnUse">
<stop stop-color="#1813BF"/>
<stop offset="0.463542" stop-color="#954DC8"/>
<stop offset="1" stop-color="#FF8153"/>
</linearGradient>
<linearGradient id="paint28_linear_182_4988" x1="57.3091" y1="19.6783" x2="445.113" y2="225.409" gradientUnits="userSpaceOnUse">
<stop stop-color="#1813BF"/>
<stop offset="0.463542" stop-color="#954DC8"/>
<stop offset="1" stop-color="#FF8153"/>
</linearGradient>
<linearGradient id="paint29_linear_182_4988" x1="57.2466" y1="20.04" x2="447.723" y2="231.093" gradientUnits="userSpaceOnUse">
<stop stop-color="#1813BF"/>
<stop offset="0.463542" stop-color="#954DC8"/>
<stop offset="1" stop-color="#FF8153"/>
</linearGradient>
<linearGradient id="paint30_linear_182_4988" x1="57.0771" y1="20.2192" x2="450.391" y2="236.595" gradientUnits="userSpaceOnUse">
<stop stop-color="#1813BF"/>
<stop offset="0.463542" stop-color="#954DC8"/>
<stop offset="1" stop-color="#FF8153"/>
</linearGradient>
<linearGradient id="paint31_linear_182_4988" x1="56.7617" y1="20.2185" x2="453.074" y2="241.902" gradientUnits="userSpaceOnUse">
<stop stop-color="#1813BF"/>
<stop offset="0.463542" stop-color="#954DC8"/>
<stop offset="1" stop-color="#FF8153"/>
</linearGradient>
<linearGradient id="paint32_linear_182_4988" x1="3.21655" y1="42.6701" x2="374.932" y2="384.872" gradientUnits="userSpaceOnUse">
<stop stop-color="#1813BF"/>
<stop offset="0.463542" stop-color="#954DC8"/>
<stop offset="1" stop-color="#FF8153"/>
</linearGradient>
<linearGradient id="paint33_linear_182_4988" x1="6.45483" y1="43.0521" x2="377.251" y2="380.901" gradientUnits="userSpaceOnUse">
<stop stop-color="#1813BF"/>
<stop offset="0.463542" stop-color="#954DC8"/>
<stop offset="1" stop-color="#FF8153"/>
</linearGradient>
<linearGradient id="paint34_linear_182_4988" x1="9.69385" y1="43.3451" x2="379.758" y2="377.182" gradientUnits="userSpaceOnUse">
<stop stop-color="#1813BF"/>
<stop offset="0.463542" stop-color="#954DC8"/>
<stop offset="1" stop-color="#FF8153"/>
</linearGradient>
<linearGradient id="paint35_linear_182_4988" x1="12.9065" y1="43.5359" x2="382.378" y2="373.777" gradientUnits="userSpaceOnUse">
<stop stop-color="#1813BF"/>
<stop offset="0.463542" stop-color="#954DC8"/>
<stop offset="1" stop-color="#FF8153"/>
</linearGradient>
<linearGradient id="paint36_linear_182_4988" x1="16.0674" y1="43.6468" x2="385.068" y2="370.616" gradientUnits="userSpaceOnUse">
<stop stop-color="#1813BF"/>
<stop offset="0.463542" stop-color="#954DC8"/>
<stop offset="1" stop-color="#FF8153"/>
</linearGradient>
<linearGradient id="paint37_linear_182_4988" x1="19.1448" y1="43.6887" x2="387.791" y2="367.626" gradientUnits="userSpaceOnUse">
<stop stop-color="#1813BF"/>
<stop offset="0.463542" stop-color="#954DC8"/>
<stop offset="1" stop-color="#FF8153"/>
</linearGradient>
<linearGradient id="paint38_linear_182_4988" x1="22.1113" y1="43.6676" x2="390.545" y2="364.858" gradientUnits="userSpaceOnUse">
<stop stop-color="#1813BF"/>
<stop offset="0.463542" stop-color="#954DC8"/>
<stop offset="1" stop-color="#FF8153"/>
</linearGradient>
<linearGradient id="paint39_linear_182_4988" x1="24.925" y1="43.5571" x2="393.386" y2="362.279" gradientUnits="userSpaceOnUse">
<stop stop-color="#1813BF"/>
<stop offset="0.463542" stop-color="#954DC8"/>
<stop offset="1" stop-color="#FF8153"/>
</linearGradient>
<linearGradient id="paint40_linear_182_4988" x1="27.55" y1="43.3161" x2="396.772" y2="359.79" gradientUnits="userSpaceOnUse">
<stop stop-color="#1813BF"/>
<stop offset="0.463542" stop-color="#954DC8"/>
<stop offset="1" stop-color="#FF8153"/>
</linearGradient>
<linearGradient id="paint41_linear_182_4988" x1="29.9419" y1="42.873" x2="404.304" y2="356.7" gradientUnits="userSpaceOnUse">
<stop stop-color="#1813BF"/>
<stop offset="0.463542" stop-color="#954DC8"/>
<stop offset="1" stop-color="#FF8153"/>
</linearGradient>
<linearGradient id="paint42_linear_182_4988" x1="32.0391" y1="42.1323" x2="412.437" y2="353.42" gradientUnits="userSpaceOnUse">
<stop stop-color="#1813BF"/>
<stop offset="0.463542" stop-color="#954DC8"/>
<stop offset="1" stop-color="#FF8153"/>
</linearGradient>
<linearGradient id="paint43_linear_182_4988" x1="33.7817" y1="40.9795" x2="420.94" y2="349.88" gradientUnits="userSpaceOnUse">
<stop stop-color="#1813BF"/>
<stop offset="0.463542" stop-color="#954DC8"/>
<stop offset="1" stop-color="#FF8153"/>
</linearGradient>
<linearGradient id="paint44_linear_182_4988" x1="35.1118" y1="39.2719" x2="429.703" y2="345.98" gradientUnits="userSpaceOnUse">
<stop stop-color="#1813BF"/>
<stop offset="0.463542" stop-color="#954DC8"/>
<stop offset="1" stop-color="#FF8153"/>
</linearGradient>
<linearGradient id="paint45_linear_182_4988" x1="35.9502" y1="36.8795" x2="438.683" y2="341.639" gradientUnits="userSpaceOnUse">
<stop stop-color="#1813BF"/>
<stop offset="0.463542" stop-color="#954DC8"/>
<stop offset="1" stop-color="#FF8153"/>
</linearGradient>
<linearGradient id="paint46_linear_182_4988" x1="36.269" y1="33.6398" x2="447.912" y2="336.687" gradientUnits="userSpaceOnUse">
<stop stop-color="#1813BF"/>
<stop offset="0.463542" stop-color="#954DC8"/>
<stop offset="1" stop-color="#FF8153"/>
</linearGradient>
<linearGradient id="paint47_linear_182_4988" x1="36.0476" y1="29.9056" x2="456.96" y2="331.615" gradientUnits="userSpaceOnUse">
<stop stop-color="#1813BF"/>
<stop offset="0.463542" stop-color="#954DC8"/>
<stop offset="1" stop-color="#FF8153"/>
</linearGradient>
</defs>
</svg>
