<svg width="728" height="706" viewBox="0 0 728 706" fill="none" xmlns="http://www.w3.org/2000/svg">
<path opacity="0.04" d="M508.423 300.716C783.147 402.029 367.99 706.322 326.477 505.714C305.826 405.893 112.325 467.625 118.142 364.654C123.959 261.683 211.079 270.563 297.579 220.105C405.329 156.693 435.684 273.894 508.423 300.716Z" stroke="url(#paint0_linear_79_180)" stroke-width="1.37" stroke-miterlimit="10"/>
<path opacity="0.07" d="M510.549 295.555C768.283 401.834 381.628 700.995 326.564 510.204C299.424 416.165 109.045 456.416 120.679 356.862C132.213 257.387 216.968 258.266 301.609 216.609C407.146 164.659 440.34 266.606 510.549 295.555Z" stroke="url(#paint1_linear_79_180)" stroke-width="1.37" stroke-miterlimit="10"/>
<path opacity="0.11" d="M512.683 290.394C753.362 401.143 395.497 695.884 326.65 514.695C293.153 426.537 105.758 445.185 123.217 349.062C140.481 253.047 222.692 245.81 305.588 213.113C408.818 172.415 444.939 259.225 512.683 290.394Z" stroke="url(#paint2_linear_79_180)" stroke-width="1.37" stroke-miterlimit="10"/>
<path opacity="0.15" d="M514.81 285.254C738.426 399.867 409.669 690.968 326.737 519.208C287.033 436.954 102.478 433.948 125.747 341.27C148.778 248.73 228.379 233.354 309.603 209.617C410.426 180.164 449.466 251.736 514.81 285.254Z" stroke="url(#paint3_linear_79_180)" stroke-width="1.37" stroke-miterlimit="10"/>
<path opacity="0.19" d="M516.936 280.079C723.527 398 424.179 686.088 326.823 523.677C281.101 447.442 99.1914 422.717 128.284 333.478C157.067 244.405 234.023 220.877 313.61 206.121C411.975 187.891 453.949 244.124 516.936 280.079Z" stroke="url(#paint4_linear_79_180)" stroke-width="1.37" stroke-miterlimit="10"/>
<path opacity="0.23" d="M519.062 274.917C708.735 395.462 439.05 681.215 326.91 528.168C275.356 457.829 95.9117 411.486 130.843 325.678C165.378 240.08 239.639 208.363 317.633 202.625C413.475 195.575 458.412 236.374 519.062 274.917Z" stroke="url(#paint5_linear_79_180)" stroke-width="1.37" stroke-miterlimit="10"/>
<path opacity="0.26" d="M521.189 269.756C694.131 392.247 454.346 676.205 326.996 532.658C269.798 468.194 92.6318 400.256 133.359 317.85C173.653 235.718 245.175 195.77 321.612 199.093C414.931 203.194 462.873 228.46 521.189 269.756Z" stroke="url(#paint6_linear_79_180)" stroke-width="1.37" stroke-miterlimit="10"/>
<path opacity="0.3" d="M523.315 264.595C679.801 388.348 469.974 670.958 327.083 537.157C264.421 478.438 89.3448 389.054 135.889 310.094C181.943 231.437 250.725 183.177 325.612 195.633C416.372 210.734 467.386 220.379 523.315 264.595Z" stroke="url(#paint7_linear_79_180)" stroke-width="1.37" stroke-miterlimit="10"/>
<path opacity="0.34" d="M525.442 259.441C665.824 383.807 485.796 665.378 327.169 541.647C259.087 488.529 86.065 377.788 138.426 302.295C190.233 227.112 256.275 170.483 329.613 192.137C417.821 218.217 471.978 212.075 525.442 259.441Z" stroke="url(#paint8_linear_79_180)" stroke-width="1.37" stroke-miterlimit="10"/>
<path opacity="0.38" d="M527.568 254.258C652.272 378.645 501.82 659.41 327.256 546.116C253.846 498.498 82.7708 366.557 140.964 294.502C198.529 222.787 261.869 157.724 333.621 188.662C419.313 225.569 476.735 203.576 527.568 254.258Z" stroke="url(#paint9_linear_79_180)" stroke-width="1.37" stroke-miterlimit="10"/>
<path opacity="0.41" d="M529.687 249.119C639.29 373.023 517.88 653.095 327.328 550.629C248.613 508.302 79.4838 355.326 143.515 286.71C206.833 218.462 267.499 144.922 337.629 185.145C420.842 232.9 481.709 194.869 529.687 249.119Z" stroke="url(#paint10_linear_79_180)" stroke-width="1.37" stroke-miterlimit="10"/>
<path opacity="0.45" d="M531.85 243.965C626.921 367.018 533.948 646.392 327.429 555.12C243.38 517.968 76.2184 344.089 146.031 278.911C215.109 214.144 273.201 132.099 341.622 181.649C422.478 240.202 487 185.959 531.85 243.965Z" stroke="url(#paint11_linear_79_180)" stroke-width="1.37" stroke-miterlimit="10"/>
<path opacity="0.49" d="M533.955 238.804C615.214 360.805 549.914 639.407 327.515 559.61C238.082 527.526 72.9314 332.829 148.568 271.119C223.405 209.848 278.946 119.275 345.623 178.131C424.158 247.504 492.694 176.862 533.955 238.804Z" stroke="url(#paint12_linear_79_180)" stroke-width="1.37" stroke-miterlimit="10"/>
<path opacity="0.53" d="M536.081 233.642C604.236 354.605 565.729 632.162 327.602 564.101C232.704 536.991 69.6517 321.627 151.106 263.319C231.695 205.494 284.741 106.451 349.623 174.657C425.888 254.82 498.886 167.628 536.081 233.642Z" stroke="url(#paint13_linear_79_180)" stroke-width="1.37" stroke-miterlimit="10"/>
<path opacity="0.56" d="M538.208 228.481C593.979 348.637 581.414 624.723 327.688 568.592C227.276 546.383 66.3719 310.389 153.643 255.527C239.985 201.176 290.601 93.6564 353.624 171.189C427.661 262.187 505.648 158.344 538.208 228.481Z" stroke="url(#paint14_linear_79_180)" stroke-width="1.37" stroke-miterlimit="10"/>
<path opacity="0.6" d="M540.334 223.327C584.42 343.144 596.927 617.154 327.768 573.083C221.762 555.732 63.0848 299.166 156.209 247.735C248.281 196.851 296.419 80.876 357.625 167.664C429.492 269.525 513.022 149.096 540.334 223.327Z" stroke="url(#paint15_linear_79_180)" stroke-width="1.37" stroke-miterlimit="10"/>
<path d="M396.333 583.103C199.769 982.754 -47.0801 269.223 212.982 277.469C343.215 281.592 298.877 -22.311 426.277 2.39912C553.677 27.1093 507.897 153.053 554.491 294.474C612.706 471.078 447.145 479.829 396.333 583.103Z" stroke="url(#paint16_linear_79_180)" stroke-width="1.37" stroke-miterlimit="10"/>
<g style="mix-blend-mode:hard-light" opacity="0.94">
<path d="M401.927 587.377C203.28 961.879 -44.377 290.033 207.598 276.547C332.785 269.85 313.257 -24.4518 434.905 7.87758C556.553 40.207 521.448 164.226 557.569 301.113C603.249 471.655 454.368 488.529 401.927 587.377Z" stroke="url(#paint17_linear_79_180)" stroke-width="1.37" stroke-miterlimit="10"/>
</g>
<g style="mix-blend-mode:hard-light" opacity="0.88">
<path d="M407.506 591.651C207.288 940.974 -42.1279 311.06 202.199 275.631C322.145 258.237 327.624 -26.5929 443.526 13.3557C559.379 53.1457 534.503 175.486 560.633 307.679C593.186 472.361 461.684 497.129 407.506 591.651Z" stroke="url(#paint18_linear_79_180)" stroke-width="1.37" stroke-miterlimit="10"/>
</g>
<g style="mix-blend-mode:hard-light" opacity="0.81">
<path d="M413.085 595.933C211.872 920.07 -40.2826 332.44 196.792 274.715C311.34 246.819 341.99 -28.7554 452.147 18.8196C562.233 66.1207 547.809 186.644 563.696 314.282C583.44 472.937 469.137 505.678 413.085 595.933Z" stroke="url(#paint19_linear_79_180)" stroke-width="1.37" stroke-miterlimit="10"/>
</g>
<g style="mix-blend-mode:hard-light" opacity="0.75">
<path d="M418.679 600.208C217.084 899.231 -38.7257 354.288 191.393 273.793C300.412 235.661 356.356 -30.8747 460.761 24.3123C565.08 79.0956 561.137 197.759 566.724 320.878C573.723 473.456 476.656 514.176 418.679 600.208Z" stroke="url(#paint20_linear_79_180)" stroke-width="1.37" stroke-miterlimit="10"/>
</g>
<g style="mix-blend-mode:hard-light" opacity="0.69">
<path d="M424.237 604.483C223.002 878.507 -37.3056 376.699 185.994 272.899C289.441 224.784 370.722 -33.0152 469.383 29.791C567.928 92.1142 574.494 208.839 569.816 327.495C564.042 473.932 484.354 522.625 424.237 604.483Z" stroke="url(#paint21_linear_79_180)" stroke-width="1.37" stroke-miterlimit="10"/>
</g>
<g style="mix-blend-mode:hard-light" opacity="0.63">
<path d="M429.816 608.757C229.677 857.985 -35.8423 399.65 180.595 271.955C278.499 214.194 385.088 -35.1563 478.004 35.2691C570.775 105.111 587.902 219.875 572.88 334.083C554.426 474.372 492.204 531.058 429.816 608.757Z" stroke="url(#paint22_linear_79_180)" stroke-width="1.37" stroke-miterlimit="10"/>
</g>
<g style="mix-blend-mode:hard-light" opacity="0.56">
<path d="M435.395 613.031C237.166 837.751 -34.17 423.157 175.174 271.039C267.636 203.858 399.433 -37.2973 486.574 40.7474C573.658 118.114 601.367 230.896 575.943 340.686C544.89 474.776 500.263 539.506 435.395 613.031Z" stroke="url(#paint23_linear_79_180)" stroke-width="1.37" stroke-miterlimit="10"/>
</g>
<g style="mix-blend-mode:hard-light" opacity="0.5">
<path d="M440.974 617.306C245.448 817.95 -32.1445 447.103 169.79 270.117C257.011 193.708 413.821 -39.4452 495.239 46.2186C576.47 131.111 614.897 241.903 579.007 347.275C535.454 475.187 508.524 548.005 440.974 617.306Z" stroke="url(#paint24_linear_79_180)" stroke-width="1.37" stroke-miterlimit="10"/>
</g>
<g style="mix-blend-mode:hard-light" opacity="0.44">
<path d="M446.554 621.588C254.56 798.617 -29.6792 471.38 164.391 269.201C246.472 183.696 428.187 -41.579 503.86 51.7041C579.317 144.115 628.507 252.946 582.07 353.885C526.083 475.612 517.015 556.619 446.554 621.588Z" stroke="url(#paint25_linear_79_180)" stroke-width="1.37" stroke-miterlimit="10"/>
</g>
<g style="mix-blend-mode:hard-light" opacity="0.38">
<path d="M452.133 625.862C264.421 779.948 -26.7527 495.846 158.992 268.286C236.157 173.748 442.553 -43.7197 512.474 57.1825C582.164 157.119 642.173 264.018 585.127 360.488C516.77 476.08 525.752 565.42 452.133 625.862Z" stroke="url(#paint26_linear_79_180)" stroke-width="1.37" stroke-miterlimit="10"/>
</g>
<g style="mix-blend-mode:hard-light" opacity="0.31">
<path d="M457.712 630.137C274.995 762.049 -23.3718 520.39 153.593 267.363C226.015 163.815 456.919 -45.8609 521.095 62.6462C585.011 170.101 655.891 275.133 588.19 367.076C507.529 476.621 534.733 574.524 457.712 630.137Z" stroke="url(#paint27_linear_79_180)" stroke-width="1.37" stroke-miterlimit="10"/>
</g>
<g style="mix-blend-mode:hard-light" opacity="0.25">
<path d="M463.291 634.411C286.046 745.052 -19.5875 544.927 148.194 266.448C216.024 153.861 471.3 -48.0015 529.687 68.1391C587.83 183.119 669.608 286.343 591.225 373.693C498.324 477.241 543.982 584.04 463.291 634.411Z" stroke="url(#paint28_linear_79_180)" stroke-width="1.37" stroke-miterlimit="10"/>
</g>
<g style="mix-blend-mode:hard-light" opacity="0.19">
<path d="M468.871 638.686C297.421 729.05 -15.4716 569.385 142.787 265.532C206.163 143.856 485.652 -50.1423 538.337 73.6176C590.713 196.116 683.398 297.602 594.325 380.289C489.126 477.933 553.475 594.117 468.871 638.686Z" stroke="url(#paint29_linear_79_180)" stroke-width="1.37" stroke-miterlimit="10"/>
</g>
<g style="mix-blend-mode:hard-light" opacity="0.13">
<path d="M474.45 642.96C308.759 714.15 -11.0745 593.72 137.388 264.609C196.403 133.785 500.018 -52.2834 546.987 79.0956C593.589 209.12 697.173 308.919 597.446 386.891C479.95 478.697 563.04 604.922 474.45 642.96Z" stroke="url(#paint30_linear_79_180)" stroke-width="1.37" stroke-miterlimit="10"/>
</g>
<g style="mix-blend-mode:hard-light" opacity="0.06">
<path d="M480.029 647.242C319.702 700.281 -6.46113 617.912 131.989 263.694C186.729 123.643 514.384 -54.4241 555.573 84.5742C596.401 222.116 710.869 320.287 600.437 393.494C470.687 479.512 572.664 616.592 480.029 647.242Z" stroke="url(#paint31_linear_79_180)" stroke-width="1.37" stroke-miterlimit="10"/>
</g>
<path opacity="0.03" d="M176.191 485.768C-256.626 434.373 257.984 -119.97 379.819 143.87C440.419 275.098 704.59 127.392 727.455 271.558C750.32 415.725 620.166 431.583 509.05 529.155C370.83 651.509 290.688 499.342 176.191 485.768Z" stroke="url(#paint32_linear_79_180)" stroke-width="1.37" stroke-miterlimit="10"/>
<path opacity="0.05" d="M174.655 493.575C-235.066 429.76 239.61 -108.321 378.327 137.685C446.626 258.785 712.793 141.866 726.122 283.164C739.594 424.332 615.358 450.397 504.264 535.268C365.756 641.072 286.046 510.925 174.655 493.575Z" stroke="url(#paint33_linear_79_180)" stroke-width="1.37" stroke-miterlimit="10"/>
<path opacity="0.07" d="M173.113 501.396C-213.247 425.817 220.803 -96.8524 376.871 131.515C452.645 242.429 721.076 156.333 724.824 294.762C728.789 433.025 610.788 469.478 499.477 541.395C361.012 630.894 281.476 522.589 173.113 501.396Z" stroke="url(#paint34_linear_79_180)" stroke-width="1.37" stroke-miterlimit="10"/>
<path opacity="0.1" d="M171.577 509.21C-191.225 422.659 201.492 -85.5498 375.335 125.337C458.325 226.016 729.265 170.793 723.455 306.346C717.976 441.632 606.276 488.529 494.691 547.522C356.269 620.708 277.05 534.374 171.577 509.21Z" stroke="url(#paint35_linear_79_180)" stroke-width="1.37" stroke-miterlimit="10"/>
<path opacity="0.13" d="M170.035 517.023C-169.045 420.331 181.626 -74.2329 373.843 119.159C463.767 209.638 737.482 185.253 722.15 317.937C707.193 450.282 601.85 507.588 489.933 553.649C351.642 610.537 272.732 546.311 170.035 517.023Z" stroke="url(#paint36_linear_79_180)" stroke-width="1.37" stroke-miterlimit="10"/>
<path opacity="0.15" d="M168.492 524.838C-146.793 418.94 161.219 -62.7281 372.351 112.975C468.943 193.362 745.7 199.713 720.788 329.513C696.358 458.925 597.446 526.683 485.118 559.762C347.093 600.41 268.501 558.45 168.492 524.838Z" stroke="url(#paint37_linear_79_180)" stroke-width="1.37" stroke-miterlimit="10"/>
<path opacity="0.18" d="M166.957 532.651C-124.548 418.543 140.329 -50.8777 370.852 106.805C473.873 177.273 753.924 214.209 719.454 341.112C685.575 467.575 593.114 545.828 480.332 565.882C342.617 590.361 264.32 570.769 166.957 532.651Z" stroke="url(#paint38_linear_79_180)" stroke-width="1.37" stroke-miterlimit="10"/>
<path opacity="0.2" d="M165.414 540.465C-102.44 419.178 119.072 -38.5443 369.36 100.627C478.645 161.393 762.149 228.64 718.121 352.695C674.741 476.217 588.796 565.067 475.546 572.001C338.184 580.414 260.146 583.362 165.414 540.465Z" stroke="url(#paint39_linear_79_180)" stroke-width="1.37" stroke-miterlimit="10"/>
<path opacity="0.23" d="M163.879 548.279C-80.5845 420.864 97.5623 -25.6486 367.875 94.4494C483.338 145.758 770.374 243.1 716.794 364.279C663.928 484.867 584.55 584.4 470.759 578.121C333.772 570.574 255.922 596.258 163.879 548.279Z" stroke="url(#paint40_linear_79_180)" stroke-width="1.37" stroke-miterlimit="10"/>
<path opacity="0.25" d="M162.336 556.093C-59.1468 423.56 76.0383 -12.1762 366.376 88.272C487.987 130.347 778.591 257.56 715.454 375.884C653.123 493.524 580.254 603.826 465.973 584.256C329.332 560.843 251.568 609.492 162.336 556.093Z" stroke="url(#paint41_linear_79_180)" stroke-width="1.37" stroke-miterlimit="10"/>
<path opacity="0.28" d="M160.801 563.907C-38.2788 427.172 54.5429 1.82959 364.876 82.0944C492.687 115.152 786.816 272.02 714.12 387.454C642.31 502.16 575.907 623.325 461.208 590.361C324.827 551.242 246.984 623.109 160.801 563.907Z" stroke="url(#paint42_linear_79_180)" stroke-width="1.37" stroke-miterlimit="10"/>
<path opacity="0.3" d="M159.259 571.72C-18.1458 431.583 33.2136 16.3112 363.384 75.9169C497.459 100.122 795.034 286.48 712.786 399.045C631.505 510.803 571.496 642.86 456.393 596.488C320.249 541.633 242.032 637.122 159.259 571.72Z" stroke="url(#paint43_linear_79_180)" stroke-width="1.37" stroke-miterlimit="10"/>
<path opacity="0.33" d="M157.738 579.534C1.09329 436.514 12.1292 31.1676 361.892 69.725C502.354 85.2085 803.258 300.925 711.453 410.614C620.693 519.46 567.005 662.423 451.607 602.594C315.6 532.082 236.575 651.546 157.738 579.534Z" stroke="url(#paint44_linear_79_180)" stroke-width="1.37" stroke-miterlimit="10"/>
<path opacity="0.35" d="M156.18 587.348C19.287 441.74 -8.73179 46.3123 360.393 63.5619C507.342 70.4458 811.476 315.399 710.126 422.212C609.887 528.096 562.457 682.015 446.792 608.728C310.842 522.538 230.455 666.352 156.18 587.348Z" stroke="url(#paint45_linear_79_180)" stroke-width="1.37" stroke-miterlimit="10"/>
<path opacity="0.38" d="M154.638 595.162C36.3203 446.923 -29.3115 61.6444 358.9 57.4203C512.481 55.7336 819.7 329.895 708.793 433.84C599.075 536.782 557.85 701.629 442.034 614.884C306.035 512.98 223.521 681.46 154.638 595.162Z" stroke="url(#paint46_linear_79_180)" stroke-width="1.37" stroke-miterlimit="10"/>
<path opacity="0.4" d="M153.102 602.983C52.1354 451.651 -49.6319 77.1061 357.408 51.2065C517.714 40.9995 827.925 344.362 707.459 445.394C588.262 545.388 553.201 721.142 437.248 620.968C301.183 503.4 215.656 696.734 153.102 602.983Z" stroke="url(#paint47_linear_79_180)" stroke-width="1.37" stroke-miterlimit="10"/>
<defs>
<linearGradient id="paint0_linear_79_180" x1="118.014" y1="201.54" x2="585.839" y2="591.773" gradientUnits="userSpaceOnUse">
<stop stop-color="#1813BF"/>
<stop offset="0.463542" stop-color="#954DC8"/>
<stop offset="1" stop-color="#FF8153"/>
</linearGradient>
<linearGradient id="paint1_linear_79_180" x1="120.168" y1="202.089" x2="586.134" y2="587.129" gradientUnits="userSpaceOnUse">
<stop stop-color="#1813BF"/>
<stop offset="0.463542" stop-color="#954DC8"/>
<stop offset="1" stop-color="#FF8153"/>
</linearGradient>
<linearGradient id="paint2_linear_79_180" x1="122.071" y1="202.458" x2="586.476" y2="582.47" gradientUnits="userSpaceOnUse">
<stop stop-color="#1813BF"/>
<stop offset="0.463542" stop-color="#954DC8"/>
<stop offset="1" stop-color="#FF8153"/>
</linearGradient>
<linearGradient id="paint3_linear_79_180" x1="123.726" y1="202.664" x2="586.849" y2="577.838" gradientUnits="userSpaceOnUse">
<stop stop-color="#1813BF"/>
<stop offset="0.463542" stop-color="#954DC8"/>
<stop offset="1" stop-color="#FF8153"/>
</linearGradient>
<linearGradient id="paint4_linear_79_180" x1="125.151" y1="202.576" x2="587.324" y2="573.096" gradientUnits="userSpaceOnUse">
<stop stop-color="#1813BF"/>
<stop offset="0.463542" stop-color="#954DC8"/>
<stop offset="1" stop-color="#FF8153"/>
</linearGradient>
<linearGradient id="paint5_linear_79_180" x1="126.368" y1="201.825" x2="588.303" y2="567.797" gradientUnits="userSpaceOnUse">
<stop stop-color="#1813BF"/>
<stop offset="0.463542" stop-color="#954DC8"/>
<stop offset="1" stop-color="#FF8153"/>
</linearGradient>
<linearGradient id="paint6_linear_79_180" x1="127.339" y1="198.901" x2="591.122" y2="560.158" gradientUnits="userSpaceOnUse">
<stop stop-color="#1813BF"/>
<stop offset="0.463542" stop-color="#954DC8"/>
<stop offset="1" stop-color="#FF8153"/>
</linearGradient>
<linearGradient id="paint7_linear_79_180" x1="128.116" y1="193.682" x2="595.801" y2="549.942" gradientUnits="userSpaceOnUse">
<stop stop-color="#1813BF"/>
<stop offset="0.463542" stop-color="#954DC8"/>
<stop offset="1" stop-color="#FF8153"/>
</linearGradient>
<linearGradient id="paint8_linear_79_180" x1="128.705" y1="187.473" x2="601.02" y2="538.744" gradientUnits="userSpaceOnUse">
<stop stop-color="#1813BF"/>
<stop offset="0.463542" stop-color="#954DC8"/>
<stop offset="1" stop-color="#FF8153"/>
</linearGradient>
<linearGradient id="paint9_linear_79_180" x1="129.106" y1="180.761" x2="606.329" y2="527.209" gradientUnits="userSpaceOnUse">
<stop stop-color="#1813BF"/>
<stop offset="0.463542" stop-color="#954DC8"/>
<stop offset="1" stop-color="#FF8153"/>
</linearGradient>
<linearGradient id="paint10_linear_79_180" x1="129.34" y1="173.708" x2="611.706" y2="515.54" gradientUnits="userSpaceOnUse">
<stop stop-color="#1813BF"/>
<stop offset="0.463542" stop-color="#954DC8"/>
<stop offset="1" stop-color="#FF8153"/>
</linearGradient>
<linearGradient id="paint11_linear_79_180" x1="129.39" y1="166.458" x2="617.044" y2="504.001" gradientUnits="userSpaceOnUse">
<stop stop-color="#1813BF"/>
<stop offset="0.463542" stop-color="#954DC8"/>
<stop offset="1" stop-color="#FF8153"/>
</linearGradient>
<linearGradient id="paint12_linear_79_180" x1="129.281" y1="159.059" x2="622.415" y2="492.591" gradientUnits="userSpaceOnUse">
<stop stop-color="#1813BF"/>
<stop offset="0.463542" stop-color="#954DC8"/>
<stop offset="1" stop-color="#FF8153"/>
</linearGradient>
<linearGradient id="paint13_linear_79_180" x1="129.012" y1="151.567" x2="627.869" y2="481.454" gradientUnits="userSpaceOnUse">
<stop stop-color="#1813BF"/>
<stop offset="0.463542" stop-color="#954DC8"/>
<stop offset="1" stop-color="#FF8153"/>
</linearGradient>
<linearGradient id="paint14_linear_79_180" x1="128.592" y1="144.015" x2="633.47" y2="470.638" gradientUnits="userSpaceOnUse">
<stop stop-color="#1813BF"/>
<stop offset="0.463542" stop-color="#954DC8"/>
<stop offset="1" stop-color="#FF8153"/>
</linearGradient>
<linearGradient id="paint15_linear_79_180" x1="128.032" y1="136.38" x2="639.317" y2="460.116" gradientUnits="userSpaceOnUse">
<stop stop-color="#1813BF"/>
<stop offset="0.463542" stop-color="#954DC8"/>
<stop offset="1" stop-color="#FF8153"/>
</linearGradient>
<linearGradient id="paint16_linear_79_180" x1="100.666" y1="0.969727" x2="748.63" y2="275.584" gradientUnits="userSpaceOnUse">
<stop stop-color="#1813BF"/>
<stop offset="0.463542" stop-color="#954DC8"/>
<stop offset="1" stop-color="#FF8153"/>
</linearGradient>
<linearGradient id="paint17_linear_79_180" x1="100.902" y1="5.39746" x2="745.697" y2="281.499" gradientUnits="userSpaceOnUse">
<stop stop-color="#1813BF"/>
<stop offset="0.463542" stop-color="#954DC8"/>
<stop offset="1" stop-color="#FF8153"/>
</linearGradient>
<linearGradient id="paint18_linear_79_180" x1="100.935" y1="9.51953" x2="742.947" y2="287.4" gradientUnits="userSpaceOnUse">
<stop stop-color="#1813BF"/>
<stop offset="0.463542" stop-color="#954DC8"/>
<stop offset="1" stop-color="#FF8153"/>
</linearGradient>
<linearGradient id="paint19_linear_79_180" x1="100.792" y1="13.3132" x2="740.837" y2="293.703" gradientUnits="userSpaceOnUse">
<stop stop-color="#1813BF"/>
<stop offset="0.463542" stop-color="#954DC8"/>
<stop offset="1" stop-color="#FF8153"/>
</linearGradient>
<linearGradient id="paint20_linear_79_180" x1="100.526" y1="16.8203" x2="739.593" y2="300.682" gradientUnits="userSpaceOnUse">
<stop stop-color="#1813BF"/>
<stop offset="0.463542" stop-color="#954DC8"/>
<stop offset="1" stop-color="#FF8153"/>
</linearGradient>
<linearGradient id="paint21_linear_79_180" x1="100.198" y1="19.9922" x2="740.822" y2="310.043" gradientUnits="userSpaceOnUse">
<stop stop-color="#1813BF"/>
<stop offset="0.463542" stop-color="#954DC8"/>
<stop offset="1" stop-color="#FF8153"/>
</linearGradient>
<linearGradient id="paint22_linear_79_180" x1="99.8771" y1="22.8435" x2="744.63" y2="322.061" gradientUnits="userSpaceOnUse">
<stop stop-color="#1813BF"/>
<stop offset="0.463542" stop-color="#954DC8"/>
<stop offset="1" stop-color="#FF8153"/>
</linearGradient>
<linearGradient id="paint23_linear_79_180" x1="99.6121" y1="25.376" x2="748.737" y2="334.158" gradientUnits="userSpaceOnUse">
<stop stop-color="#1813BF"/>
<stop offset="0.463542" stop-color="#954DC8"/>
<stop offset="1" stop-color="#FF8153"/>
</linearGradient>
<linearGradient id="paint24_linear_79_180" x1="99.4591" y1="27.5835" x2="752.922" y2="345.946" gradientUnits="userSpaceOnUse">
<stop stop-color="#1813BF"/>
<stop offset="0.463542" stop-color="#954DC8"/>
<stop offset="1" stop-color="#FF8153"/>
</linearGradient>
<linearGradient id="paint25_linear_79_180" x1="99.4094" y1="29.4871" x2="757.144" y2="357.376" gradientUnits="userSpaceOnUse">
<stop stop-color="#1813BF"/>
<stop offset="0.463542" stop-color="#954DC8"/>
<stop offset="1" stop-color="#FF8153"/>
</linearGradient>
<linearGradient id="paint26_linear_79_180" x1="99.4347" y1="31.0662" x2="761.409" y2="368.362" gradientUnits="userSpaceOnUse">
<stop stop-color="#1813BF"/>
<stop offset="0.463542" stop-color="#954DC8"/>
<stop offset="1" stop-color="#FF8153"/>
</linearGradient>
<linearGradient id="paint27_linear_79_180" x1="99.4938" y1="32.3191" x2="765.742" y2="378.902" gradientUnits="userSpaceOnUse">
<stop stop-color="#1813BF"/>
<stop offset="0.463542" stop-color="#954DC8"/>
<stop offset="1" stop-color="#FF8153"/>
</linearGradient>
<linearGradient id="paint28_linear_79_180" x1="99.5071" y1="33.2695" x2="770.122" y2="389.031" gradientUnits="userSpaceOnUse">
<stop stop-color="#1813BF"/>
<stop offset="0.463542" stop-color="#954DC8"/>
<stop offset="1" stop-color="#FF8153"/>
</linearGradient>
<linearGradient id="paint29_linear_79_180" x1="99.3999" y1="33.895" x2="774.635" y2="398.86" gradientUnits="userSpaceOnUse">
<stop stop-color="#1813BF"/>
<stop offset="0.463542" stop-color="#954DC8"/>
<stop offset="1" stop-color="#FF8153"/>
</linearGradient>
<linearGradient id="paint30_linear_79_180" x1="99.1068" y1="34.2048" x2="779.249" y2="408.375" gradientUnits="userSpaceOnUse">
<stop stop-color="#1813BF"/>
<stop offset="0.463542" stop-color="#954DC8"/>
<stop offset="1" stop-color="#FF8153"/>
</linearGradient>
<linearGradient id="paint31_linear_79_180" x1="98.5606" y1="34.2039" x2="783.889" y2="417.552" gradientUnits="userSpaceOnUse">
<stop stop-color="#1813BF"/>
<stop offset="0.463542" stop-color="#954DC8"/>
<stop offset="1" stop-color="#FF8153"/>
</linearGradient>
<linearGradient id="paint32_linear_79_180" x1="5.96835" y1="73.0283" x2="648.762" y2="664.786" gradientUnits="userSpaceOnUse">
<stop stop-color="#1813BF"/>
<stop offset="0.463542" stop-color="#954DC8"/>
<stop offset="1" stop-color="#FF8153"/>
</linearGradient>
<linearGradient id="paint33_linear_79_180" x1="11.5673" y1="73.689" x2="652.771" y2="657.918" gradientUnits="userSpaceOnUse">
<stop stop-color="#1813BF"/>
<stop offset="0.463542" stop-color="#954DC8"/>
<stop offset="1" stop-color="#FF8153"/>
</linearGradient>
<linearGradient id="paint34_linear_79_180" x1="17.1681" y1="74.1956" x2="657.106" y2="651.487" gradientUnits="userSpaceOnUse">
<stop stop-color="#1813BF"/>
<stop offset="0.463542" stop-color="#954DC8"/>
<stop offset="1" stop-color="#FF8153"/>
</linearGradient>
<linearGradient id="paint35_linear_79_180" x1="22.724" y1="74.5254" x2="661.637" y2="645.598" gradientUnits="userSpaceOnUse">
<stop stop-color="#1813BF"/>
<stop offset="0.463542" stop-color="#954DC8"/>
<stop offset="1" stop-color="#FF8153"/>
</linearGradient>
<linearGradient id="paint36_linear_79_180" x1="28.1899" y1="74.717" x2="666.288" y2="640.132" gradientUnits="userSpaceOnUse">
<stop stop-color="#1813BF"/>
<stop offset="0.463542" stop-color="#954DC8"/>
<stop offset="1" stop-color="#FF8153"/>
</linearGradient>
<linearGradient id="paint37_linear_79_180" x1="33.5116" y1="74.7898" x2="670.998" y2="634.962" gradientUnits="userSpaceOnUse">
<stop stop-color="#1813BF"/>
<stop offset="0.463542" stop-color="#954DC8"/>
<stop offset="1" stop-color="#FF8153"/>
</linearGradient>
<linearGradient id="paint38_linear_79_180" x1="38.6415" y1="74.7532" x2="675.76" y2="630.176" gradientUnits="userSpaceOnUse">
<stop stop-color="#1813BF"/>
<stop offset="0.463542" stop-color="#954DC8"/>
<stop offset="1" stop-color="#FF8153"/>
</linearGradient>
<linearGradient id="paint39_linear_79_180" x1="43.5076" y1="74.562" x2="680.673" y2="625.715" gradientUnits="userSpaceOnUse">
<stop stop-color="#1813BF"/>
<stop offset="0.463542" stop-color="#954DC8"/>
<stop offset="1" stop-color="#FF8153"/>
</linearGradient>
<linearGradient id="paint40_linear_79_180" x1="48.0462" y1="74.1453" x2="686.526" y2="621.411" gradientUnits="userSpaceOnUse">
<stop stop-color="#1813BF"/>
<stop offset="0.463542" stop-color="#954DC8"/>
<stop offset="1" stop-color="#FF8153"/>
</linearGradient>
<linearGradient id="paint41_linear_79_180" x1="52.1826" y1="73.3794" x2="699.552" y2="616.068" gradientUnits="userSpaceOnUse">
<stop stop-color="#1813BF"/>
<stop offset="0.463542" stop-color="#954DC8"/>
<stop offset="1" stop-color="#FF8153"/>
</linearGradient>
<linearGradient id="paint42_linear_79_180" x1="55.8094" y1="72.0981" x2="713.617" y2="610.396" gradientUnits="userSpaceOnUse">
<stop stop-color="#1813BF"/>
<stop offset="0.463542" stop-color="#954DC8"/>
<stop offset="1" stop-color="#FF8153"/>
</linearGradient>
<linearGradient id="paint43_linear_79_180" x1="58.8232" y1="70.105" x2="728.32" y2="604.275" gradientUnits="userSpaceOnUse">
<stop stop-color="#1813BF"/>
<stop offset="0.463542" stop-color="#954DC8"/>
<stop offset="1" stop-color="#FF8153"/>
</linearGradient>
<linearGradient id="paint44_linear_79_180" x1="61.1225" y1="67.1521" x2="743.474" y2="597.531" gradientUnits="userSpaceOnUse">
<stop stop-color="#1813BF"/>
<stop offset="0.463542" stop-color="#954DC8"/>
<stop offset="1" stop-color="#FF8153"/>
</linearGradient>
<linearGradient id="paint45_linear_79_180" x1="62.5724" y1="63.0149" x2="759.002" y2="590.024" gradientUnits="userSpaceOnUse">
<stop stop-color="#1813BF"/>
<stop offset="0.463542" stop-color="#954DC8"/>
<stop offset="1" stop-color="#FF8153"/>
</linearGradient>
<linearGradient id="paint46_linear_79_180" x1="63.1234" y1="57.4126" x2="774.962" y2="581.46" gradientUnits="userSpaceOnUse">
<stop stop-color="#1813BF"/>
<stop offset="0.463542" stop-color="#954DC8"/>
<stop offset="1" stop-color="#FF8153"/>
</linearGradient>
<linearGradient id="paint47_linear_79_180" x1="62.7413" y1="50.9551" x2="790.609" y2="572.689" gradientUnits="userSpaceOnUse">
<stop stop-color="#1813BF"/>
<stop offset="0.463542" stop-color="#954DC8"/>
<stop offset="1" stop-color="#FF8153"/>
</linearGradient>
</defs>
</svg>
