<svg width="182" height="33" viewBox="0 0 182 33" fill="none" xmlns="http://www.w3.org/2000/svg">
<g clip-path="url(#clip0_207_326)">
<path d="M24.9636 14.775C24.8884 13.6183 24.5876 12.4617 23.9861 11.4593L18.8731 2.28339C18.4971 1.58941 18.1964 0.818326 18.046 0.0472412L17.8204 0.432783C16.5422 2.66893 16.5422 5.52194 17.8204 7.75808L21.9559 15.0834C23.2342 17.3195 23.2342 20.1725 21.9559 22.4087L21.7304 22.7942C21.58 22.0231 21.2792 21.2521 20.9033 20.5581L17.1437 13.8497L14.7376 9.53158C14.3616 8.8376 14.0608 8.06652 13.9105 7.29543L13.6849 7.68098C12.4066 9.91712 12.4066 12.693 13.6849 15.0063L17.8204 22.3316C19.0987 24.5677 19.0987 27.4207 17.8204 29.6569L17.5948 30.0424C17.4445 29.2713 17.1437 28.5003 16.7677 27.8063L11.5795 18.6304C10.9028 17.3966 10.602 16.0087 10.602 14.6207C5.11308 16.0858 1.27832 19.2472 1.27832 22.8713C1.27832 27.9605 8.64707 32.0472 17.7452 32.0472C26.8434 32.0472 34.2121 27.9605 34.2121 22.8713C34.2873 19.4015 30.5277 16.24 24.9636 14.775ZM40.5282 30.428C40.6034 29.1171 40.7538 28.2689 41.1297 27.1894C42.8591 28.0376 45.1149 28.4231 46.7691 28.4231C49.6263 28.4231 51.2805 27.4978 51.2805 25.5701C51.2805 23.7195 50.0775 22.8713 47.2202 21.5605L45.6412 20.9436C42.7087 19.6328 40.7538 17.9364 40.7538 14.6207C40.7538 10.9966 43.2351 8.68339 48.1977 8.68339C50.2279 8.68339 52.1077 8.99182 53.8371 9.60869C53.7619 10.8424 53.5363 11.8448 53.2355 12.7701C51.5813 12.1533 49.5511 11.8448 48.1225 11.8448C45.4156 11.8448 44.2126 12.9243 44.2126 14.6207C44.2126 16.24 45.4156 17.2424 47.5962 18.1677L49.2504 18.8617C53.1603 20.5581 54.8145 22.4087 54.8145 25.493C54.8145 29.1171 52.1077 31.6617 46.8443 31.6617C44.3629 31.6617 42.2576 31.2762 40.5282 30.428ZM71.4318 15.2376V31.1219H68.2738L68.1234 29.1942C67.2211 30.5822 65.9429 31.5075 63.7623 31.5075C59.702 31.5075 56.9199 28.4231 56.9199 23.1027C56.9199 17.5509 59.8524 14.3123 65.5669 14.3123C67.8226 14.3894 69.7024 14.6207 71.4318 15.2376ZM68.0482 27.4978V17.5509C67.3715 17.3966 66.5444 17.3966 65.5669 17.3966C62.0329 17.3966 60.3787 19.6328 60.3787 23.1798C60.3787 26.4183 61.657 28.7316 64.6646 28.7316C66.0932 28.6545 67.1459 28.1918 68.0482 27.4978ZM88.8762 20.481V31.1219H85.4926V21.0978C85.4926 18.5533 84.6655 17.3966 81.2819 17.3966C80.4548 17.3966 79.5525 17.4737 78.575 17.628V31.1219H75.1914V15.2376C77.3719 14.6978 79.7781 14.3123 81.3571 14.3123C87.0716 14.3894 88.8762 16.6256 88.8762 20.481ZM98.3503 28.5774C99.3278 28.5774 100.305 28.4231 100.982 28.1147C100.907 29.04 100.756 30.1195 100.606 31.0448C99.7038 31.4304 98.6511 31.5846 97.7488 31.5846C94.4404 31.5846 92.335 30.0424 92.335 26.187V9.45447C93.3877 9.06893 94.6659 8.91471 95.7186 8.91471V14.9292H101.132C101.057 16.0087 100.982 17.0111 100.832 17.9364H95.7186V25.7243C95.7186 27.7292 96.6961 28.5774 98.3503 28.5774ZM116.622 15.2376V31.1219H113.464L113.313 29.1942C112.411 30.5822 111.133 31.5075 108.952 31.5075C104.892 31.5075 102.11 28.4231 102.11 23.1027C102.11 17.5509 105.042 14.3123 110.757 14.3123C113.013 14.3894 114.817 14.6207 116.622 15.2376ZM113.163 27.4978V17.5509C112.486 17.3966 111.659 17.3966 110.682 17.3966C107.148 17.3966 105.493 19.6328 105.493 23.1798C105.493 26.4183 106.772 28.7316 109.779 28.7316C111.208 28.6545 112.336 28.1918 113.163 27.4978ZM134.066 20.481V31.1219H130.607V21.0978C130.607 18.5533 129.78 17.3966 126.397 17.3966C125.57 17.3966 124.667 17.4737 123.69 17.628V31.1219H120.306V15.2376C122.487 14.6978 124.893 14.3123 126.472 14.3123C132.186 14.3894 134.066 16.6256 134.066 20.481ZM151.285 8.91471V31.1219H148.127L147.977 29.1171C147.074 30.5822 145.796 31.5075 143.54 31.5075C139.48 31.5075 136.698 28.4231 136.698 23.1027C136.698 17.5509 139.63 14.3123 145.345 14.3123C146.247 14.3123 147.074 14.3894 147.901 14.5436V9.30025C148.954 8.99182 150.157 8.91471 151.285 8.91471ZM147.901 27.4978V17.7051C146.999 17.5509 146.097 17.3966 145.195 17.3966C141.811 17.3966 140.232 19.5557 140.232 23.1798C140.232 26.4183 141.51 28.7316 144.518 28.7316C145.871 28.6545 146.999 28.1918 147.901 27.4978ZM168.429 24.3364H157.526C157.977 27.1894 159.556 28.5002 162.639 28.5002C164.519 28.5002 166.398 28.1147 168.053 27.2665C167.902 28.1918 167.752 29.4256 167.526 30.428C165.947 31.1219 164.368 31.4304 162.489 31.4304C156.774 31.4304 154.067 28.1918 154.067 22.7942C154.067 18.0906 156.172 14.3123 161.586 14.3123C166.474 14.3123 168.579 17.5509 168.579 21.5605C168.579 22.64 168.579 23.4111 168.429 24.3364ZM157.526 21.4063H165.195C165.195 18.7846 163.842 17.2424 161.511 17.2424C159.03 17.3195 157.751 18.7075 157.526 21.4063ZM180.384 14.5436C180.384 15.6231 180.234 16.8569 180.083 17.5509C179.256 17.4737 178.504 17.3966 177.527 17.3966C176.7 17.3966 175.873 17.4737 175.045 17.5509V31.1219H171.662V15.2376C173.09 14.6978 175.572 14.3123 177.452 14.3123C178.429 14.3894 179.632 14.3894 180.384 14.5436Z" fill="#EA1D25"/>
</g>
<defs>
<clipPath id="clip0_207_326">
<rect width="181" height="32" fill="white" transform="translate(0.331055 0.0472412)"/>
</clipPath>
</defs>
</svg>
