<svg width="148" height="41" viewBox="0 0 148 41" fill="none" xmlns="http://www.w3.org/2000/svg">
<path d="M11.4587 31.9177C5.57332 31.9177 0.259277 28.169 0.259277 19.975C0.259277 11.7856 5.56867 8.03699 11.4587 8.03699C17.3441 8.03699 22.6489 11.7856 22.6489 19.975C22.6489 28.169 17.3488 31.9177 11.4587 31.9177ZM11.4587 13.0723C7.00867 13.0723 6.19577 17.0811 6.19577 19.9797C6.19577 22.8736 7.00867 26.8916 11.4587 26.8916C15.9088 26.8916 16.7217 22.8736 16.7217 19.9797C16.7217 17.0811 15.9088 13.0723 11.4587 13.0723Z" fill="#FF6600"/>
<path d="M26.7319 8.63133H32.399V11.2884C33.4813 9.85301 36.1383 8.16217 38.6328 8.16217C38.8697 8.16217 39.1623 8.16217 39.4039 8.19469V13.7874H39.1112C36.5239 13.7874 33.6904 14.1916 32.7753 16.2029V31.2578H26.7319V8.63133Z" fill="#FF6600"/>
<path d="M55.23 29.2885C52.926 30.8029 50.4316 31.5368 47.7513 31.5368C43.5289 31.5368 41.0298 28.7265 41.0298 24.9546C41.0298 19.8868 45.6842 17.2112 55.2811 16.1335V14.87C55.2811 13.2256 54.0362 12.2641 51.7322 12.2641C49.4282 12.2641 47.5562 13.1792 46.2091 14.87L42.1911 12.58C44.3 9.63029 47.5098 8.15314 51.8251 8.15314C57.7291 8.15314 61.0411 10.7126 61.0411 14.87C61.0411 14.87 61.0318 31.2302 61.0411 31.2674H55.7595L55.23 29.2885ZM46.8873 24.5226C46.8873 26.0462 47.8442 27.4676 49.5722 27.4676C51.4442 27.4676 53.2651 26.6965 55.0906 25.0847V19.7242C49.5258 20.4117 46.8873 21.847 46.8873 24.5226Z" fill="#FF6600"/>
<path d="M65.7417 9.23518L70.6748 8.557L71.2183 11.2419C73.9961 9.20731 76.2072 8.125 78.985 8.125C83.6394 8.125 86.0456 10.5962 86.0456 15.4875V31.2392H80.0859V16.5234C80.0859 13.7549 79.3705 12.5054 77.2152 12.5054C75.4408 12.5054 73.6663 13.309 71.6364 15.0137V31.2392H65.7417V9.23518Z" fill="#FF6600"/>
<path d="M100.622 26.3947C105.137 26.3622 105.523 21.7635 105.523 18.7721C105.523 15.2232 103.795 12.3571 100.585 12.3571C98.4484 12.3571 96.0561 13.9179 96.0561 19.0183C96.0515 21.8007 96.2512 26.4366 100.622 26.3947ZM111.241 8.55275V29.9762C111.241 33.748 110.944 39.9911 100.172 40.0468C95.7217 40.0794 91.5921 38.2956 90.7746 34.4123L96.646 33.4647C96.8922 34.5749 97.5751 35.6804 100.906 35.6804C103.99 35.6804 105.476 34.2032 105.476 30.6683V28.0345L105.397 27.9555C104.45 29.651 103.015 31.2536 99.5585 31.2536C94.277 31.2536 90.1289 27.5932 90.1289 19.9426C90.1289 12.3757 94.4117 8.13468 99.2195 8.13004C103.739 8.12075 105.407 10.1832 105.802 11.2609L105.723 11.2516L106.22 8.54346H111.241V8.55275Z" fill="#FF6600"/>
<path d="M125.478 31.6712C118.808 31.6712 114.832 27.3791 114.832 19.9376C114.832 12.4078 118.854 8.125 125.381 8.125C131.907 8.125 135.79 12.2824 135.79 19.6403C135.79 20.0351 135.744 20.4207 135.744 20.8109H120.68C120.717 25.103 122.501 27.2676 126.008 27.2676C128.256 27.2676 129.747 26.3618 131.145 24.3737L135.502 26.7892C133.584 29.9897 130.128 31.6712 125.478 31.6712ZM129.947 16.9461C129.947 13.9221 128.21 12.1384 125.385 12.1384C122.696 12.1384 121.014 13.8803 120.777 16.9461H129.947Z" fill="#FF6600"/>
<path d="M145.987 0.0472412L143.794 5.71896L141.56 0.0472412H139.651V7.53058H140.891V1.2875H140.924L143.376 7.53058H144.166L146.605 1.2875H146.642V7.53058H147.873V0.0472412H145.987ZM132.219 0.0472412V1.04131H134.555V7.52593H135.796V1.04131H138.141V0.0472412H132.219Z" fill="#FF6600"/>
</svg>
