<svg width="69" height="41" viewBox="0 0 69 41" fill="none" xmlns="http://www.w3.org/2000/svg">
<g clip-path="url(#clip0_207_297)">
<path d="M19.4578 14.5745C19.4578 15.3976 19.5468 16.065 19.7025 16.5545C19.8805 17.0439 20.103 17.5778 20.4144 18.1563C20.5257 18.3342 20.5702 18.5122 20.5702 18.6679C20.5702 18.8904 20.4367 19.1129 20.1475 19.3353L18.7459 20.2697C18.5457 20.4032 18.3455 20.4699 18.1675 20.4699C17.945 20.4699 17.7226 20.3587 17.5001 20.1585C17.1886 19.8248 16.9217 19.4688 16.6992 19.1129C16.4767 18.7347 16.2543 18.312 16.0096 17.8003C14.2743 19.847 12.0941 20.8704 9.46895 20.8704C7.60021 20.8704 6.10966 20.3365 5.01956 19.2686C3.92946 18.2007 3.37329 16.7769 3.37329 14.9972C3.37329 13.1062 4.0407 11.5712 5.39776 10.4143C6.75483 9.25748 8.55683 8.67906 10.8483 8.67906C11.6047 8.67906 12.3833 8.7458 13.2064 8.85703C14.0296 8.96827 14.875 9.14624 15.7648 9.34646V7.72244C15.7648 6.03167 15.4089 4.85258 14.7192 4.16293C14.0073 3.47327 12.806 3.13957 11.093 3.13957C10.3143 3.13957 9.51345 3.22855 8.69031 3.42878C7.86717 3.629 7.06628 3.87372 6.28764 4.18517C5.93169 4.3409 5.66473 4.42989 5.509 4.47438C5.35327 4.51888 5.24203 4.54112 5.15305 4.54112C4.84159 4.54112 4.68586 4.31865 4.68586 3.85147V2.76137C4.68586 2.40542 4.73035 2.13845 4.84159 1.98273C4.95282 1.827 5.15305 1.67127 5.4645 1.51554C6.24315 1.11509 7.17752 0.78139 8.26762 0.514427C9.35772 0.225217 10.5146 0.0917351 11.7381 0.0917351C14.3855 0.0917351 16.321 0.692402 17.5668 1.89374C18.7904 3.09507 19.4133 4.91932 19.4133 7.36649V14.5745H19.4578ZM10.4256 17.956C11.1597 17.956 11.9161 17.8225 12.717 17.5556C13.5179 17.2886 14.2298 16.7992 14.8305 16.1318C15.1864 15.7091 15.4534 15.2419 15.5869 14.708C15.7203 14.1741 15.8093 13.5289 15.8093 12.7725V11.8381C15.1642 11.6824 14.4745 11.5489 13.7626 11.4599C13.0507 11.3709 12.3611 11.3264 11.6714 11.3264C10.1809 11.3264 9.09075 11.6157 8.35661 12.2163C7.62246 12.817 7.26651 13.6624 7.26651 14.7747C7.26651 15.8203 7.53347 16.599 8.08964 17.1329C8.62357 17.6891 9.40221 17.956 10.4256 17.956ZM28.2899 20.3587C27.8894 20.3587 27.6225 20.292 27.4445 20.1362C27.2665 20.0028 27.1108 19.6913 26.9773 19.2686L21.7493 2.07171C21.6158 1.62677 21.549 1.33756 21.549 1.18184C21.549 0.825884 21.727 0.625662 22.083 0.625662H24.2632C24.6859 0.625662 24.9751 0.692403 25.1308 0.848131C25.3088 0.981613 25.4423 1.29307 25.5757 1.71576L29.3132 16.4432L32.7837 1.71576C32.895 1.27082 33.0285 0.981613 33.2064 0.848131C33.3844 0.714649 33.6959 0.625662 34.0963 0.625662H35.8761C36.2988 0.625662 36.588 0.692403 36.7659 0.848131C36.9439 0.981613 37.0997 1.29307 37.1886 1.71576L40.7037 16.6212L44.5524 1.71576C44.6859 1.27082 44.8416 0.981613 44.9973 0.848131C45.1753 0.714649 45.4645 0.625662 45.8649 0.625662H47.9339C48.2899 0.625662 48.4901 0.803637 48.4901 1.18184C48.4901 1.29307 48.4678 1.4043 48.4456 1.53779C48.4233 1.67127 48.3788 1.84924 48.2899 2.09396L42.9283 19.2908C42.7949 19.7358 42.6391 20.025 42.4612 20.1585C42.2832 20.292 41.994 20.3809 41.6158 20.3809H39.7025C39.2799 20.3809 38.9906 20.3142 38.8127 20.1585C38.6347 20.0028 38.479 19.7135 38.39 19.2686L34.9417 4.91932L31.5157 19.2464C31.4044 19.6913 31.271 19.9805 31.093 20.1362C30.915 20.292 30.6035 20.3587 30.2031 20.3587H28.2899ZM56.8772 20.9594C55.7203 20.9594 54.5635 20.8259 53.4512 20.5589C52.3388 20.292 51.4712 20.0028 50.8928 19.669C50.5368 19.4688 50.2921 19.2464 50.2031 19.0461C50.1141 18.8459 50.0696 18.6234 50.0696 18.4232V17.2886C50.0696 16.8214 50.2476 16.599 50.5813 16.599C50.7148 16.599 50.8483 16.6212 50.9817 16.6657C51.1152 16.7102 51.3154 16.7992 51.5379 16.8882C52.2943 17.2219 53.1175 17.4888 53.9851 17.6668C54.875 17.8448 55.7426 17.9338 56.6325 17.9338C58.034 17.9338 59.1241 17.6891 59.8805 17.1996C60.6369 16.7102 61.0374 15.9983 61.0374 15.0862C61.0374 14.4633 60.8371 13.9516 60.4367 13.5289C60.0362 13.1062 59.2799 12.728 58.1898 12.372L54.9639 11.3709C53.3399 10.8593 52.1386 10.1029 51.4044 9.10175C50.6703 8.12288 50.2921 7.03278 50.2921 5.87594C50.2921 4.94157 50.4923 4.11843 50.8928 3.40653C51.2932 2.69463 51.8271 2.07171 52.4945 1.58228C53.1619 1.0706 53.9183 0.692403 54.8082 0.425439C55.6981 0.158476 56.6325 0.0472412 57.6113 0.0472412C58.1008 0.0472412 58.6124 0.0694881 59.1019 0.136229C59.6136 0.20297 60.0807 0.291958 60.5479 0.380945C60.9929 0.49218 61.4156 0.603415 61.816 0.736896C62.2164 0.870378 62.5279 1.00386 62.7504 1.13734C63.0618 1.31532 63.2843 1.49329 63.4178 1.69352C63.5513 1.87149 63.618 2.11621 63.618 2.42766V3.47327C63.618 3.94046 63.44 4.18517 63.1063 4.18517C62.9284 4.18517 62.6391 4.09618 62.2609 3.91821C60.9929 3.33979 59.5691 3.05058 57.9895 3.05058C56.7215 3.05058 55.7203 3.2508 55.0307 3.67349C54.341 4.09618 53.9851 4.74135 53.9851 5.65347C53.9851 6.27639 54.2076 6.81031 54.6525 7.233C55.0974 7.6557 55.9206 8.07839 57.0997 8.45659L60.2587 9.4577C61.8605 9.96938 63.0173 10.6813 63.707 11.5934C64.3966 12.5055 64.7304 13.5511 64.7304 14.708C64.7304 15.6646 64.5301 16.5322 64.1519 17.2886C63.7515 18.045 63.2176 18.7124 62.5279 19.2464C61.8382 19.8025 61.0151 20.203 60.0585 20.4922C59.0574 20.8036 58.0118 20.9594 56.8772 20.9594Z" fill="#F5F5F5"/>
<path fill-rule="evenodd" clip-rule="evenodd" d="M61.082 31.7714C53.7627 37.1774 43.1287 40.0472 33.9852 40.0472C21.171 40.0472 9.6248 35.3086 0.903999 27.4332C0.214344 26.8103 0.837258 25.9649 1.6604 26.4543C11.0931 31.9271 22.7282 35.2419 34.7638 35.2419C42.884 35.2419 51.805 33.5511 60.0141 30.0806C61.2377 29.5244 62.2833 30.8815 61.082 31.7714Z" fill="#FF9900"/>
<path fill-rule="evenodd" clip-rule="evenodd" d="M64.1299 28.3008C63.1955 27.0995 57.9452 27.7224 55.5648 28.0116C54.8529 28.1006 54.7417 27.4777 55.3868 27.0105C59.5693 24.0739 66.4436 24.9193 67.2445 25.8982C68.0454 26.8993 67.022 33.7736 63.1065 37.0661C62.5059 37.5778 61.9274 37.3108 62.1944 36.6434C63.0843 34.441 65.0643 29.4799 64.1299 28.3008Z" fill="#FF9900"/>
</g>
<defs>
<clipPath id="clip0_207_297">
<rect width="68.2594" height="40" fill="white" transform="translate(0 0.0472412)"/>
</clipPath>
</defs>
</svg>
