<svg width="124" height="71" viewBox="0 0 124 71" fill="none" xmlns="http://www.w3.org/2000/svg">
<path fill-rule="evenodd" clip-rule="evenodd" d="M61.9209 0C64.4094 0 66.4251 1.87396 66.4251 4.36245C66.4251 6.83472 64.4094 8.85049 61.9209 8.85049C59.5904 8.85049 57.5902 6.83472 57.5902 4.36245C57.5865 3.79122 57.6959 3.22491 57.9118 2.69607C58.1278 2.16723 58.4461 1.68628 58.8486 1.28088C59.251 0.875485 59.7296 0.553627 60.2569 0.333808C60.7841 0.113989 61.3496 0.00054634 61.9209 0Z" fill="#E0912F"/>
<path fill-rule="evenodd" clip-rule="evenodd" d="M67.3227 14.9292C67.4159 14.9287 67.5082 14.9467 67.5944 14.9821C67.6805 15.0176 67.7588 15.0697 67.8247 15.1356C67.8905 15.2015 67.9427 15.2797 67.9781 15.3659C68.0135 15.4521 68.0316 15.5444 68.0311 15.6375C68.0287 15.8232 67.9527 16.0003 67.82 16.13C67.6872 16.2598 67.5084 16.3316 67.3227 16.3297H56.6928C56.5072 16.3314 56.3285 16.2595 56.1958 16.1298C56.063 16.0001 55.987 15.8231 55.9844 15.6375C55.9841 15.5444 56.0021 15.4521 56.0376 15.366C56.0731 15.2799 56.1252 15.2017 56.1911 15.1358C56.2569 15.07 56.3352 15.0178 56.4213 14.9823C56.5074 14.9468 56.5997 14.9288 56.6928 14.9292H67.3227ZM62 10.1257C65.1341 10.1257 68.2999 10.614 70.6769 11.4176C73.8272 12.4886 75.843 14.1107 75.843 15.9374C75.843 17.9214 73.3863 19.7799 69.8585 20.7246C66.3307 21.6856 63.7166 21.8902 60.5832 21.7484C57.6855 21.6221 54.8196 21.1656 52.1737 20.0317V37.6854C49.827 36.1262 48.1577 34.0476 48.1577 31.1654V16.8814C48.1577 13.3544 51.4181 11.9842 54.0004 11.1968C56.5827 10.4249 58.8814 10.1257 62 10.1257ZM71.2759 34.3933V25.0863C71.2759 24.1889 69.8733 24.4245 69.8733 25.5118V34.9451C69.8733 35.779 71.2759 35.6062 71.2759 34.3933ZM65.465 37.8576V24.5043C65.465 23.575 65.968 22.9295 66.8662 22.7869C68.1729 22.5978 69.402 22.346 70.5979 21.9995C71.8026 21.6503 72.9728 21.1916 74.0939 20.6293C74.6301 20.3147 75.2913 20.5348 75.2913 21.2594V30.9135C75.2913 32.1892 75.2595 33.5431 74.6915 34.7087C74.1102 35.8898 73.1012 36.8345 71.9519 37.5909C70.6607 38.4411 69.0224 39.1029 67.5739 39.4649C66.2199 39.764 65.465 39.1022 65.465 37.8576ZM64.0638 24.6136V29.3063C64.0638 30.4874 62.9447 31.2275 62.0162 31.3058V31.3213C62.9447 31.4476 64.0638 32.1087 64.0638 33.3371V37.8724C64.0638 38.6909 64.0475 39.2899 64.3947 39.8882C63.5748 39.9827 62.7712 40.0293 62.0162 40.0293C61.2444 40.0293 60.4887 39.9827 59.7168 39.8882C59.3549 39.1474 59.4021 38.6281 59.4021 37.8251V34.2346C59.4021 33.2736 58.9922 32.4862 58.0002 32.4396V39.7309C57.2106 39.6135 56.4314 39.4344 55.6698 39.1953C54.9489 38.9846 54.2482 38.7105 53.5757 38.3762V22.063C54.2996 22.2832 55.0242 22.4567 55.7643 22.5823C56.5044 22.7241 57.2446 22.8187 58.0002 22.9132V30.1889C58.9294 30.378 59.4021 29.7635 59.4021 28.8187V24.5508C59.4021 24.0626 59.4177 23.4487 59.7013 23.0388C60.457 23.0861 61.166 23.1016 61.9372 23.1171C62.7091 23.1171 63.5445 23.1016 64.3629 23.0543C64.1103 23.5426 64.0638 23.9998 64.0638 24.6136ZM41.2757 68.3623V67.4331L41.8112 67.0556V63.906H42.8188V66.5356L44.4253 65.4025V66.331L42.8188 67.4648V69.0086H45.7955V69.9216H41.8112V67.9848L41.2757 68.3623ZM51.6848 69.9209L49.118 66.3148L51.5437 63.906H50.268L47.6067 66.6139V63.906H46.6147V69.9209H47.6067V67.8113L48.4096 67.0076L50.4564 69.9209H51.6848ZM29.2601 68.1887C29.2601 66.9921 28.4409 66.7085 27.118 66.3783C26.3306 66.1737 25.7006 65.9839 25.7006 65.3545C25.7006 64.9453 26.1098 64.5671 26.8026 64.5671C27.59 64.5671 28.0938 64.977 28.1411 65.6537H29.0858C29.0858 64.4888 28.2356 63.7487 26.9282 63.7487C25.4953 63.7487 24.6923 64.4888 24.6923 65.4335C24.6923 66.4418 25.2906 66.9145 26.5345 67.2292C27.1173 67.3872 27.5738 67.4655 27.8575 67.7167C28.0465 67.8903 28.1884 68.1739 28.1884 68.3475C28.1884 68.804 27.7474 69.2139 27.0073 69.2139C26.1098 69.2139 25.5425 68.7729 25.4797 67.9855H24.5195C24.5823 69.324 25.4169 70.0803 26.9289 70.0803C28.3937 70.0782 29.2601 69.2908 29.2601 68.1887ZM33.5908 65.732C33.5908 66.4404 33.2126 66.6605 32.457 66.6605H31.1658V64.771H32.5198C33.2444 64.7717 33.5908 65.0547 33.5908 65.732ZM34.5983 65.7482C34.5983 64.9763 34.2992 64.4098 33.7637 64.1106C33.37 63.906 32.9607 63.906 32.4563 63.906H30.1569V69.9209H31.1651V67.5431H32.5191C33.1174 67.5431 33.5583 67.4966 33.9048 67.2285C34.3465 66.8976 34.5983 66.3938 34.5983 65.7482ZM39.7637 66.9131C39.7637 68.3771 39.0398 69.2125 37.8898 69.2125C36.7397 69.2125 36.0313 68.3771 36.0313 66.9131C36.0313 65.4321 36.7404 64.6137 37.8898 64.6137C39.0391 64.6137 39.7637 65.4321 39.7637 66.9131ZM40.7875 66.9131C40.7875 64.9446 39.6692 63.748 37.8898 63.748C36.1103 63.748 35.0083 64.9291 35.0083 66.9131C35.0083 68.8971 36.1103 70.0944 37.8898 70.0944C39.6692 70.0944 40.7875 68.8816 40.7875 66.9131ZM38.8973 62.236H37.9688L37.3698 63.3691H38.0316L38.8973 62.236ZM55.559 67.5269H53.7796L54.677 64.9128L55.559 67.5269ZM57.4485 69.9209L55.2436 63.906H54.1105L51.9056 69.9209H52.9449L53.4959 68.3623H55.8426L56.3781 69.9209H57.4485ZM92.9612 69.9209V63.906H91.984V68.3933L89.1808 63.906H88.1098V69.9209H89.0856V65.4173L91.8902 69.9209H92.9612ZM86.3311 68.2043V63.9053H85.3221V67.9834C85.3221 68.787 85.2438 69.2118 84.4719 69.2118C83.9209 69.2118 83.6366 68.8809 83.6366 68.2353V67.8409H82.6925V68.1408C82.6925 69.4481 83.2118 70.0775 84.5185 70.0775C85.7956 70.0782 86.3311 69.4644 86.3311 68.2043ZM83.0707 63.9053H81.9214L80.5032 66.6295L79.0229 63.9053H77.7783L79.9994 67.5904V69.9209H81.007V67.5431L83.0707 63.9053ZM77.6224 67.7478H76.6304C76.5838 68.6142 75.9538 69.1808 75.0718 69.1808C73.9697 69.1808 73.2762 68.3143 73.2762 66.8658C73.2762 65.4491 73.938 64.6299 75.0866 64.6299C75.9538 64.6299 76.5048 65.0554 76.5987 65.7793H77.5907C77.4806 64.5354 76.5669 63.748 75.1036 63.748C73.3235 63.748 72.2524 64.9128 72.2524 66.9131C72.2524 68.8816 73.3079 70.0944 75.0238 70.0944C76.5048 70.0944 77.5751 69.118 77.6224 67.7478ZM71.906 69.9209L69.354 66.3148L71.7797 63.906H70.4885L67.8427 66.6139V63.906H66.8352V69.9209H67.8427V67.8113L68.6308 67.0076L70.6939 69.9209H71.906ZM64.032 67.5269H62.2519L63.1338 64.9128L64.032 67.5269ZM65.9215 69.9209L63.7018 63.906H62.5828L60.3786 69.9209H61.4179L61.969 68.3623H64.3149L64.8512 69.9209H65.9215ZM97.6214 67.5269H95.8272L96.7239 64.9128L97.6214 67.5269ZM99.4953 69.9209L97.2905 63.906H96.1581L93.968 69.9209H95.0073L95.5435 68.3623H97.9057L98.442 69.9209H99.4953ZM119.764 59.5429L115.969 54.7246L119.654 50.1258H116.503L113.528 53.9993V50.1258H110.787V59.5429H113.528V55.7011L116.503 59.5429H119.764ZM70.8971 59.5429L67.1019 54.7246L70.787 50.1258H67.6381L64.6614 53.9993V50.1258H61.9055V59.5429H64.6614V55.7011L67.6212 59.5429H70.8971ZM17.9839 59.5429L14.1887 54.7246L17.8738 50.1258H14.7242L11.7482 53.9993V50.1258H9.00783V59.5429H11.7482V55.7011L14.7242 59.5429H17.9839ZM124 59.5429V50.1258H121.182V59.5429H124ZM109.212 56.5979C109.212 55.6059 108.819 54.9758 107.937 54.4092C107.528 54.1411 106.835 53.9683 105.874 53.7164C104.52 53.3699 103.827 53.1971 103.827 52.6926C103.827 52.2672 104.204 51.9842 104.929 51.9842C105.764 51.9842 106.142 52.2989 106.157 53.0235H108.898C108.85 51.1023 107.465 49.9522 104.992 49.9522C102.472 49.9522 101.038 51.0861 101.038 52.881C101.038 54.3775 102.016 55.2756 104.11 55.8267C105.605 56.2204 106.409 56.346 106.409 56.9443C106.409 57.4488 105.953 57.7317 105.118 57.7317C104.236 57.7317 103.81 57.2907 103.81 56.4088V56.377H100.945C101.023 58.7237 102.425 59.842 105.181 59.842C107.764 59.8427 109.212 58.6136 109.212 56.5979ZM100.473 59.5429V57.1489H97.3392V50.1258H94.5515V59.5429H100.473ZM59.5115 59.5429V50.1258H56.8657V55.3067L54.2354 50.1258H51.4167V59.5429H54.0625V54.4565L56.7239 59.5429H59.5115ZM90.4092 54.8657C90.4092 56.5668 89.686 57.5588 88.7088 57.5588C87.5912 57.5588 86.9132 56.6296 86.9132 54.9285C86.9132 53.2112 87.623 52.2361 88.5987 52.2361C89.717 52.2361 90.4092 53.1653 90.4092 54.8657ZM93.2752 54.9292C93.2752 53.4172 92.7876 52.1733 91.8739 51.2596C91.0237 50.4094 89.8899 49.9522 88.5832 49.9522C87.2603 49.9522 86.1427 50.4087 85.3391 51.2907C84.4571 52.2509 84.0479 53.4172 84.0479 54.865C84.0479 56.377 84.5192 57.5892 85.4647 58.5191C86.3 59.3855 87.4021 59.842 88.7088 59.842C90.048 59.842 91.1656 59.3538 91.9692 58.4718C92.8342 57.5433 93.2752 56.3622 93.2752 54.9292ZM80.5039 53.3855C80.5039 54.0783 80.1264 54.4403 79.4018 54.4403H78.2377V52.2827H79.3553C80.1109 52.2834 80.5039 52.6771 80.5039 53.3855ZM83.2916 53.5118C83.2916 51.3535 81.9538 50.1258 79.4498 50.1258H75.4811V59.5429H78.2687V56.6458H80.1109C81.9835 56.6451 83.2916 55.3384 83.2916 53.5118ZM37.1496 56.4723C37.1496 57.0861 36.7559 57.369 35.9685 57.369H34.3782V55.5903H35.953C36.7559 55.5903 37.1496 55.8577 37.1496 56.4723ZM36.8342 53.0235C36.8342 53.5908 36.4723 53.7954 35.7166 53.7954H34.3782V52.2679H35.7011C36.4723 52.2672 36.8187 52.4718 36.8342 53.0235ZM39.9683 56.6296C39.9683 55.5431 39.4011 54.7557 38.4408 54.3464C39.1964 53.952 39.5584 53.3544 39.5584 52.536C39.5584 51.6385 39.1329 50.9294 38.251 50.4412C37.8728 50.2211 37.2117 50.1265 36.2514 50.1265H31.6216V59.5436H35.984C37.4798 59.5436 38.5036 59.4025 39.2755 58.536C39.732 58.0153 39.9683 57.3697 39.9683 56.6296ZM46.3465 56.3149H44.5043L45.4328 53.0553L46.3465 56.3149ZM50.1262 59.5429L46.9138 50.1258H43.9533L40.7409 59.5429H43.6224L43.9688 58.299H46.8821L47.2285 59.5429H50.1262ZM24.1893 54.8657C24.1893 56.5668 23.4647 57.5588 22.4882 57.5588C21.3699 57.5588 20.677 56.6296 20.677 54.9285C20.677 53.2112 21.4016 52.2361 22.3781 52.2361C23.4957 52.2361 24.1893 53.1653 24.1893 54.8657ZM27.0552 54.9292C27.0552 53.4172 26.567 52.1733 25.6378 51.2596C24.8031 50.4094 23.6693 49.9522 22.3619 49.9522C21.039 49.9522 19.9214 50.4087 19.1177 51.2907C18.2358 52.2509 17.8259 53.4172 17.8259 54.865C17.8259 56.377 18.2986 57.5892 19.2278 58.5191C20.078 59.3855 21.1808 59.842 22.4875 59.842C23.8259 59.842 24.9442 59.3538 25.7471 58.4718C26.6143 57.5433 27.0552 56.3622 27.0552 54.9292ZM5.03908 53.3855C5.03908 54.0783 4.6609 54.4403 3.92077 54.4403H2.77142V52.2827H3.8735C4.64538 52.2834 5.03908 52.6771 5.03908 53.3855ZM7.82673 53.5118C7.82673 51.3535 6.48829 50.1258 3.98427 50.1258H0V59.5429H2.80317V56.6458H4.64538C6.50381 56.6451 7.82673 55.3384 7.82673 53.5118Z" fill="#2360A5"/>
</svg>
