<svg width="142" height="41" viewBox="0 0 142 41" fill="none" xmlns="http://www.w3.org/2000/svg">
<g clip-path="url(#clip0_207_317)">
<path d="M64.8112 0.531069C64.1581 0.530477 63.5113 0.658664 62.9078 0.908296C62.3043 1.15793 61.7559 1.52411 61.2941 1.98588C60.8322 2.44765 60.466 2.99596 60.2163 3.59942C59.9665 4.20289 59.8383 4.84967 59.8387 5.50276C59.8383 6.15586 59.9665 6.80264 60.2163 7.40611C60.466 8.00957 60.8322 8.55788 61.2941 9.01965C61.7559 9.48142 62.3043 9.8476 62.9078 10.0972C63.5113 10.3469 64.1581 10.475 64.8112 10.4745C67.5593 10.4745 69.8062 8.25164 69.8062 5.50276C69.8062 2.75389 67.5593 0.531069 64.8112 0.531069ZM83.9235 12.7963C79.4509 12.7963 74.8476 16.102 74.8476 20.8869C74.8476 26.0192 77.9815 27.881 81.9303 29.1185C87.8438 30.9728 89.5518 32.0242 89.5518 34.3949C89.5518 36.3866 87.9369 37.9595 84.8848 37.9595C81.3525 37.9595 78.2389 35.0898 77.8029 30.9241H75.3167V39.4604H77.7331C77.7331 39.4604 78.1458 38.1396 78.2487 37.8184C80.2824 39.3913 82.4204 40.0472 85.1197 40.0472C89.7755 40.0472 92.1889 38.1313 93.5855 36.0368C94.5971 34.5209 94.9798 32.9165 94.9693 30.9473C94.9528 27.9343 93.4211 25.3895 91.0527 24.0763C89.0378 22.9596 87.2322 22.4973 84.4631 21.6373C81.6947 20.7781 80.5938 19.3072 80.5938 17.8146C80.5938 16.4315 81.6572 14.719 84.7678 14.719C87.8754 14.719 90.249 17.5211 90.9124 20.7465H93.2808V13.3359H90.9124L90.6077 14.743C89.2479 13.7074 87.3643 12.7963 83.9235 12.7963ZM129.982 12.7963C125.509 12.7963 120.906 16.102 120.906 20.8869C120.906 26.0192 124.042 27.881 127.989 29.1185C133.905 30.9728 135.61 32.0242 135.61 34.3949C135.61 36.3866 133.993 37.9595 130.943 37.9595C127.409 37.9595 124.321 35.0898 123.885 30.9241H121.375V39.4604H123.792C123.792 39.4604 124.228 38.1396 124.33 37.8184C126.363 39.3913 128.478 40.0472 131.178 40.0472C135.834 40.0472 138.247 38.1313 139.644 36.0368C140.656 34.5209 141.038 32.9165 141.028 30.9473C141.013 27.9343 139.479 25.3895 137.111 24.0763C135.096 22.9596 133.291 22.4973 130.522 21.6373C127.753 20.7781 126.652 19.3072 126.652 17.8146C126.652 16.4315 127.741 14.719 130.85 14.719C133.959 14.719 136.306 17.5211 136.971 20.7465H139.339V13.3359H136.971C136.971 13.3359 136.735 14.4368 136.666 14.743C135.306 13.7074 133.421 12.7963 129.982 12.7963ZM0.882324 13.3352V15.3291H4.09498V29.9387C4.09498 32.6253 4.36664 34.5825 5.4788 36.2004C6.74705 38.0458 9.38786 39.9999 14.3903 39.9999C20.3106 39.9999 22.3721 38.2326 23.56 36.2004C24.4846 34.6155 24.5919 32.6951 24.5919 29.6813V15.3291H27.8045V13.3352H18.9163V15.3291H22.1056V32.1668C22.1056 35.6834 19.7718 37.3261 17.2045 37.3261C14.9366 37.3261 13.775 36.6867 13.0065 35.6616C12.3146 34.7356 12.0925 33.4703 12.0925 31.7443V15.3298H15.3044V13.3359L0.882324 13.3352ZM29.493 13.3352V15.3291H32.1669V37.4672H28.9535V39.4604H38.0068V37.4672H34.6523V19.9256L48.6999 39.4604H52.6397V15.3291H55.8524V13.3352H46.9641V15.3291H50.1535V27.7812L39.7884 13.3352H29.493ZM57.7052 13.3352V15.3291H60.9179V37.4672H57.7052V39.4604H72.128V37.4672H68.9146V15.3291H72.1273V13.3352H57.7052ZM94.3832 13.3352V15.3291H97.2439C97.2439 15.3291 103.9 28.287 103.927 28.344V37.4679H100.269V39.4611H115.607V37.4679H111.925V28.344C111.953 28.2863 118.608 15.3291 118.608 15.3291H121.352V13.3352H113.003V15.3291H115.911L110.775 25.5299L105.945 15.3298H109.134V13.3359L94.3832 13.3352Z" fill="#D40F41"/>
</g>
<defs>
<clipPath id="clip0_207_317">
<rect width="141.643" height="40" fill="white" transform="translate(0.138672 0.0472412)"/>
</clipPath>
</defs>
</svg>
