<svg width="124" height="41" viewBox="0 0 124 41" fill="none" xmlns="http://www.w3.org/2000/svg">
<g clip-path="url(#clip0_207_319)">
<path d="M15.8743 0.0507812H16.9641C20.7475 0.133029 24.4692 1.65461 27.1422 4.34822C26.1553 5.35576 25.1477 6.32217 24.1813 7.3297C22.6803 5.97261 20.8708 4.92396 18.8969 4.55384C15.9771 3.93698 12.8311 4.49216 10.3843 6.15767C7.71122 7.90543 5.90177 10.8664 5.51109 14.0329C5.07929 17.1583 5.96345 20.4482 7.99908 22.8745C9.95246 25.2391 12.9339 26.7196 16.0182 26.8224C18.8969 26.9869 21.8989 26.1027 23.9963 24.0877C25.6412 22.6689 26.402 20.5099 26.6487 18.4126C23.2355 18.4126 19.8222 18.4331 16.4089 18.4126V14.1768H30.7817C31.5219 18.721 30.4527 23.8409 26.9983 27.0897C24.6954 29.3926 21.5083 30.7497 18.2595 31.017C15.1135 31.3255 11.8647 30.7292 9.0683 29.2076C5.71671 27.4187 3.04366 24.3961 1.7277 20.8389C0.493982 17.5695 0.47342 13.8684 1.62489 10.5785C2.67354 7.57644 4.68861 4.92396 7.27941 3.07338C9.76741 1.24337 12.79 0.235839 15.8743 0.0507812Z" fill="#3780FF"/>
<path d="M98.3276 1.12H102.728V30.4824C101.268 30.4824 99.7875 30.503 98.3276 30.4618C98.3482 20.6949 98.3276 10.9075 98.3276 1.12Z" fill="#38B137"/>
<path d="M40.5691 11.2981C43.2832 10.7841 46.2236 11.3598 48.4648 12.9842C50.5005 14.4235 51.9192 16.6853 52.351 19.1528C52.9062 22.0109 52.2071 25.1363 50.3565 27.3981C48.362 29.9272 45.0927 31.2843 41.9056 31.0787C38.9858 30.9142 36.1483 29.4543 34.421 27.0691C32.4677 24.4372 31.9947 20.8183 33.064 17.734C34.1332 14.4235 37.1558 11.8944 40.5691 11.2981ZM41.1859 15.2049C40.0756 15.4928 39.0475 16.1302 38.3073 17.0349C36.3127 19.4201 36.4361 23.3063 38.6362 25.527C39.8905 26.8018 41.7822 27.3981 43.53 27.0485C45.1544 26.7607 46.5731 25.6709 47.3545 24.2316C48.7116 21.7847 48.3209 18.4125 46.2442 16.5003C44.9076 15.2666 42.9542 14.7525 41.1859 15.2049Z" fill="#FA3913"/>
<path d="M62.3648 11.2982C65.4697 10.7019 68.8624 11.5655 71.1859 13.745C74.9693 17.1378 75.3805 23.4914 72.1523 27.3982C70.1989 29.8656 67.0324 31.2227 63.907 31.0787C60.9255 30.9965 57.9852 29.516 56.2168 27.0692C54.2223 24.3755 53.7905 20.6744 54.9214 17.5284C56.0523 14.3208 59.0133 11.8739 62.3648 11.2982ZM62.9817 15.2049C61.8714 15.4928 60.8433 16.1302 60.103 17.0144C58.1291 19.3584 58.2113 23.183 60.3292 25.4242C61.5835 26.7607 63.5369 27.4187 65.3463 27.0486C66.9502 26.7402 68.3895 25.671 69.1708 24.2316C70.5074 21.7642 70.1167 18.392 68.0194 16.4798C66.6828 15.2461 64.7295 14.7526 62.9817 15.2049Z" fill="#FCBD06"/>
<path d="M80.8497 12.4907C83.2144 11.0103 86.3603 10.599 88.91 11.8739C89.7119 12.2234 90.3699 12.8197 91.0073 13.416C91.0279 12.8608 91.0073 12.2851 91.0279 11.7094C92.4055 11.7299 93.7832 11.7094 95.1814 11.7299V29.8656C95.1608 32.6003 94.4617 35.4995 92.4878 37.494C90.3288 39.6941 87.0183 40.3727 84.0368 39.9203C80.8497 39.4474 78.0739 37.1239 76.8402 34.1836C78.0739 33.5873 79.3693 33.1143 80.6441 32.5592C81.3638 34.2452 82.8237 35.6846 84.6537 36.0136C86.4837 36.3426 88.6016 35.8902 89.7942 34.3686C91.069 32.8059 91.069 30.6675 91.0073 28.7552C90.0615 29.6805 88.9717 30.503 87.6557 30.8114C84.7976 31.6133 81.6517 30.6263 79.4515 28.6935C77.2308 26.7607 75.9149 23.7792 76.0382 20.8183C76.0999 17.4667 77.9916 14.2385 80.8497 12.4907ZM85.1061 15.1227C83.8518 15.3283 82.6797 16.0274 81.8778 16.9938C79.945 19.2967 79.945 22.9773 81.8984 25.2391C83.0087 26.5756 84.7976 27.3159 86.5248 27.1308C88.1492 26.9663 89.6502 25.9382 90.4522 24.5195C91.8092 22.1137 91.5831 18.8444 89.753 16.747C88.6221 15.4516 86.8127 14.8142 85.1061 15.1227Z" fill="#3780FF"/>
<path d="M108.012 13.5394C110.48 11.2365 114.284 10.4551 117.45 11.6683C120.452 12.7992 122.364 15.6573 123.331 18.5976C118.869 20.4482 114.427 22.2782 109.966 24.1288C110.582 25.3008 111.528 26.37 112.803 26.8018C114.592 27.4393 116.73 27.2131 118.231 26.0205C118.828 25.5681 119.301 24.9718 119.753 24.3961C120.884 25.1569 122.015 25.8971 123.146 26.6579C121.542 29.0637 118.848 30.7497 115.949 31.017C112.741 31.4077 109.328 30.174 107.251 27.6654C103.838 23.7176 104.167 17.0966 108.012 13.5394ZM110.212 17.3434C109.513 18.3509 109.225 19.5846 109.246 20.7978C112.227 19.564 115.209 18.3303 118.19 17.0761C117.697 15.9246 116.504 15.2255 115.291 15.0404C113.338 14.6909 111.302 15.7395 110.212 17.3434Z" fill="#FA3913"/>
</g>
<defs>
<clipPath id="clip0_207_319">
<rect width="122.549" height="40" fill="white" transform="translate(0.781738 0.0472412)"/>
</clipPath>
</defs>
</svg>
