<svg width="189" height="41" viewBox="0 0 189 41" fill="none" xmlns="http://www.w3.org/2000/svg">
<g clip-path="url(#clip0_207_311)">
<path d="M188.139 18.1434V14.8501H184.049V9.73014L183.912 9.77253L180.07 10.9478L179.995 10.9709V14.8502H173.932V12.6891C173.932 11.6828 174.157 10.9127 174.6 10.3991C175.04 9.89172 175.67 9.63376 176.474 9.63376C177.051 9.63376 177.649 9.76981 178.251 10.0381L178.402 10.1055V6.63713L178.331 6.61105C177.77 6.40924 177.006 6.30762 176.059 6.30762C174.867 6.30762 173.783 6.56721 172.837 7.08168C171.892 7.59688 171.148 8.33236 170.627 9.26747C170.107 10.2015 169.844 11.2803 169.844 12.4741V14.8501H166.996V18.1434H169.844V32.0177H173.932V18.1434H179.995V26.9603C179.995 30.5915 181.707 32.4317 185.085 32.4317C185.64 32.4317 186.225 32.3666 186.821 32.2393C187.428 32.1085 187.842 31.9779 188.085 31.8384L188.139 31.8065V28.4827L187.973 28.5927C187.751 28.7405 187.475 28.8613 187.151 28.9512C186.826 29.0426 186.554 29.0885 186.343 29.0885C185.552 29.0885 184.967 28.8753 184.603 28.4544C184.236 28.0298 184.05 27.2873 184.05 26.2486V18.1434H188.139ZM157.866 29.089C156.383 29.089 155.213 28.597 154.388 27.6278C153.559 26.6538 153.139 25.2651 153.139 23.5006C153.139 21.6802 153.559 20.2555 154.389 19.2642C155.214 18.2795 156.372 17.7797 157.833 17.7797C159.251 17.7797 160.379 18.257 161.187 19.1992C162 20.1462 162.412 21.5596 162.412 23.4012C162.412 25.2654 162.024 26.6974 161.26 27.6554C160.501 28.6061 159.359 29.089 157.866 29.089ZM158.048 14.4365C155.217 14.4365 152.969 15.266 151.366 16.902C149.764 18.5381 148.951 20.8024 148.951 23.6323C148.951 26.3203 149.744 28.4823 151.308 30.0575C152.872 31.6331 155.001 32.4313 157.634 32.4313C160.378 32.4313 162.582 31.5902 164.185 29.9316C165.787 28.2747 166.599 26.0319 166.599 23.268C166.599 20.5381 165.837 18.3599 164.334 16.7953C162.83 15.2299 160.715 14.4365 158.048 14.4365ZM142.36 14.4365C140.434 14.4365 138.841 14.929 137.625 15.9002C136.4 16.8772 135.779 18.1584 135.779 19.7089C135.779 20.5149 135.913 21.2308 136.177 21.838C136.443 22.4472 136.853 22.9836 137.399 23.4338C137.94 23.8803 138.776 24.3481 139.884 24.824C140.815 25.2071 141.509 25.5312 141.95 25.7866C142.382 26.037 142.688 26.2886 142.86 26.5337C143.028 26.7735 143.113 27.1018 143.113 27.5068C143.113 28.6602 142.25 29.2214 140.472 29.2214C139.813 29.2214 139.061 29.0838 138.237 28.8124C137.42 28.5451 136.648 28.1537 135.949 27.6519L135.779 27.5302V31.4661L135.841 31.4951C136.42 31.7621 137.149 31.9873 138.009 32.1645C138.867 32.3418 139.646 32.432 140.323 32.432C142.413 32.432 144.096 31.9371 145.323 30.9602C146.559 29.9765 147.185 28.6649 147.185 27.0608C147.185 25.9036 146.848 24.9113 146.184 24.1109C145.524 23.3171 144.378 22.5884 142.781 21.9442C141.508 21.4333 140.693 21.0092 140.356 20.6837C140.032 20.3692 139.867 19.9245 139.867 19.3613C139.867 18.862 140.071 18.4621 140.488 18.1382C140.908 17.8126 141.494 17.6471 142.228 17.6471C142.909 17.6471 143.606 17.7547 144.299 17.9655C144.991 18.1764 145.6 18.4588 146.107 18.8043L146.274 18.9184V15.1848L146.21 15.1573C145.742 14.9564 145.124 14.7845 144.374 14.645C143.627 14.5064 142.949 14.4365 142.36 14.4365ZM125.122 29.089C123.639 29.089 122.468 28.597 121.644 27.6278C120.814 26.6538 120.395 25.2654 120.395 23.5006C120.395 21.6802 120.815 20.2555 121.645 19.2642C122.469 18.2795 123.628 17.7797 125.089 17.7797C126.506 17.7797 127.635 18.257 128.443 19.1992C129.256 20.1462 129.668 21.5596 129.668 23.4012C129.668 25.2654 129.28 26.6974 128.515 27.6554C127.756 28.6061 126.615 29.089 125.122 29.089ZM125.304 14.4365C122.473 14.4365 120.224 15.266 118.622 16.902C117.02 18.5381 116.207 20.8024 116.207 23.6323C116.207 26.3214 117 28.4823 118.564 30.0575C120.128 31.6331 122.257 32.4313 124.89 32.4313C127.634 32.4313 129.838 31.5902 131.441 29.9316C133.043 28.2747 133.855 26.0319 133.855 23.268C133.855 20.5381 133.093 18.3599 131.589 16.7953C130.085 15.2299 127.97 14.4365 125.304 14.4365ZM110.001 17.8231V14.8501H105.963V32.0174H110.001V23.2356C110.001 21.7424 110.34 20.5156 111.008 19.589C111.667 18.6735 112.546 18.2095 113.62 18.2095C113.983 18.2095 114.392 18.2695 114.834 18.3882C115.271 18.5061 115.589 18.6342 115.775 18.7689L115.945 18.8919V14.8207L115.88 14.7926C115.504 14.6329 114.972 14.5522 114.299 14.5522C113.284 14.5522 112.376 14.8783 111.598 15.5203C110.915 16.0846 110.421 16.8583 110.044 17.8231H110.001ZM98.7312 14.4365C96.8785 14.4365 95.226 14.8338 93.8205 15.6169C92.412 16.4018 91.3227 17.5224 90.5816 18.9474C89.8438 20.3689 89.4692 22.0293 89.4692 23.8811C89.4692 25.5031 89.8324 26.9916 90.5503 28.3035C91.2686 29.6176 92.2852 30.6457 93.5721 31.3587C94.8572 32.0708 96.3425 32.4318 97.987 32.4318C99.9061 32.4318 101.545 32.0482 102.858 31.2915L102.911 31.261V27.5614L102.742 27.6853C102.147 28.1188 101.482 28.4648 100.766 28.714C100.052 28.9631 99.4016 29.089 98.831 29.089C97.2464 29.089 95.9744 28.5932 95.051 27.6157C94.1257 26.6369 93.6565 25.2625 93.6565 23.5331C93.6565 21.7927 94.1458 20.383 95.1101 19.3428C96.0715 18.3057 97.3459 17.7797 98.8976 17.7797C100.225 17.7797 101.518 18.2291 102.742 19.1167L102.911 19.2397V15.3415L102.857 15.3107C102.396 15.0529 101.768 14.8401 100.989 14.6787C100.212 14.5176 99.4527 14.4365 98.7312 14.4365ZM86.6879 14.8502H82.6497V32.0174H86.6879V14.8502ZM84.7101 7.53692C84.0455 7.53692 83.4658 7.76318 82.9895 8.21153C82.5113 8.66115 82.2687 9.22726 82.2687 9.89535C82.2687 10.5529 82.5084 11.1087 82.9821 11.5464C83.4527 11.9828 84.0342 12.204 84.7103 12.204C85.3862 12.204 85.9699 11.9828 86.4461 11.5471C86.9254 11.1087 87.1685 10.5531 87.1685 9.89535C87.1685 9.25062 86.932 8.69032 86.4659 8.22965C86.0001 7.76988 85.4092 7.53692 84.7101 7.53692ZM74.6344 13.5836V32.0174H78.7556V8.06244H73.0517L65.8016 25.8554L58.7658 8.06244H52.8296V32.0172H56.7025V13.5818H56.8354L64.265 32.0174H67.1878L74.5014 13.5836H74.6344Z" fill="#DADADA"/>
<path d="M19.8702 19.0546H0.873047V0.0574951H19.8702V19.0546Z" fill="#F1511B"/>
<path d="M40.8449 19.0546H21.8481V0.0574951H40.8449V19.0546Z" fill="#80CC28"/>
<path d="M19.8696 40.037H0.873047V21.04H19.8696V40.037Z" fill="#00ADEF"/>
<path d="M40.8449 40.037H21.8481V21.04H40.8449V40.037Z" fill="#FBBC09"/>
</g>
<defs>
<clipPath id="clip0_207_311">
<rect width="187.266" height="40" fill="white" transform="translate(0.873047 0.0472412)"/>
</clipPath>
</defs>
</svg>
