<svg width="262" height="439" viewBox="0 0 262 439" fill="none" xmlns="http://www.w3.org/2000/svg">
<path opacity="0.04" d="M315.431 187.114C486.009 250.02 228.236 438.958 202.46 314.399C189.637 252.419 69.4915 290.749 73.1034 226.814C76.7152 162.878 130.809 168.393 184.517 137.063C251.42 97.6899 270.267 170.46 315.431 187.114Z" stroke="url(#paint0_linear_179_1367)" stroke-width="1.37" stroke-miterlimit="10"/>
<path opacity="0.07" d="M316.752 183.91C476.781 249.9 236.704 435.65 202.514 317.188C185.663 258.797 67.4552 283.79 74.679 221.976C81.8401 160.211 134.465 160.757 187.019 134.892C252.548 102.636 273.159 165.936 316.752 183.91Z" stroke="url(#paint1_linear_179_1367)" stroke-width="1.37" stroke-miterlimit="10"/>
<path opacity="0.11" d="M318.077 180.705C467.516 249.47 245.315 432.477 202.568 319.976C181.769 265.238 65.4141 276.817 76.2543 217.133C86.9736 157.517 138.019 153.023 189.49 132.721C253.586 107.452 276.014 161.352 318.077 180.705Z" stroke="url(#paint2_linear_179_1367)" stroke-width="1.37" stroke-miterlimit="10"/>
<path opacity="0.15" d="M319.397 177.514C458.242 248.678 254.114 429.425 202.622 322.778C177.969 271.705 63.3779 269.839 77.8254 212.295C92.1253 154.836 141.551 145.289 191.983 130.551C254.584 112.263 278.825 156.702 319.397 177.514Z" stroke="url(#paint3_linear_179_1367)" stroke-width="1.37" stroke-miterlimit="10"/>
<path opacity="0.19" d="M320.717 174.301C448.991 247.519 263.124 426.395 202.675 325.553C174.286 278.218 61.3367 262.866 79.4006 207.457C97.2721 152.15 145.055 137.542 194.471 128.38C255.546 117.061 281.608 151.976 320.717 174.301Z" stroke="url(#paint4_linear_179_1367)" stroke-width="1.37" stroke-miterlimit="10"/>
<path opacity="0.23" d="M322.037 171.096C439.807 245.943 272.357 423.369 202.729 328.341C170.718 284.667 59.3002 255.893 80.9894 202.614C102.433 149.465 148.541 129.772 196.968 126.209C256.477 121.832 284.379 147.164 322.037 171.096Z" stroke="url(#paint5_linear_179_1367)" stroke-width="1.37" stroke-miterlimit="10"/>
<path opacity="0.26" d="M323.358 167.891C430.739 243.947 281.855 420.258 202.783 331.129C167.268 291.103 57.2642 248.919 82.5519 197.753C107.571 146.757 151.979 121.953 199.439 124.016C257.382 126.563 287.15 142.25 323.358 167.891Z" stroke="url(#paint6_linear_179_1367)" stroke-width="1.37" stroke-miterlimit="10"/>
<path opacity="0.3" d="M324.678 164.687C421.841 241.526 291.558 417 202.836 333.922C163.929 297.463 55.2228 241.964 84.1224 192.938C112.718 144.099 155.425 114.134 201.923 121.868C258.277 131.244 289.951 137.233 324.678 164.687Z" stroke="url(#paint7_linear_179_1367)" stroke-width="1.37" stroke-miterlimit="10"/>
<path opacity="0.34" d="M325.999 161.487C413.163 238.706 301.382 413.536 202.89 336.711C160.617 303.729 53.1866 234.969 85.6981 188.095C117.865 141.413 158.871 106.252 204.407 119.697C259.176 135.89 292.802 132.077 325.999 161.487Z" stroke="url(#paint8_linear_179_1367)" stroke-width="1.37" stroke-miterlimit="10"/>
<path opacity="0.38" d="M327.319 158.268C404.749 235.501 311.332 409.83 202.944 339.485C157.363 309.919 51.1414 227.995 87.2737 183.256C123.017 138.728 162.345 98.3298 206.896 117.54C260.103 140.455 295.757 126.8 327.319 158.268Z" stroke="url(#paint9_linear_179_1367)" stroke-width="1.37" stroke-miterlimit="10"/>
<path opacity="0.41" d="M328.635 155.077C396.688 232.01 321.304 405.909 202.988 342.287C154.114 316.006 49.1002 221.022 88.8578 178.418C128.172 136.042 165.84 90.3811 209.384 115.356C261.052 145.007 298.844 121.393 328.635 155.077Z" stroke="url(#paint10_linear_179_1367)" stroke-width="1.37" stroke-miterlimit="10"/>
<path opacity="0.45" d="M329.978 151.877C389.008 228.282 331.28 401.747 203.051 345.076C150.864 322.008 47.0728 214.045 90.42 173.576C133.311 133.361 169.38 82.4189 211.864 113.185C262.068 149.541 302.13 115.861 329.978 151.877Z" stroke="url(#paint11_linear_179_1367)" stroke-width="1.37" stroke-miterlimit="10"/>
<path opacity="0.49" d="M331.284 148.672C381.739 224.424 341.193 397.41 203.105 347.864C147.574 327.942 45.0316 207.054 91.9951 168.737C138.462 130.694 172.947 74.4564 214.347 111.001C263.11 154.075 305.665 110.213 331.284 148.672Z" stroke="url(#paint12_linear_179_1367)" stroke-width="1.37" stroke-miterlimit="10"/>
<path opacity="0.53" d="M332.605 145.468C374.923 220.575 351.013 392.912 203.159 350.652C144.236 333.819 42.9954 200.099 93.5709 163.895C143.609 127.991 176.546 66.4945 216.832 108.844C264.185 158.618 309.51 104.48 332.605 145.468Z" stroke="url(#paint13_linear_179_1367)" stroke-width="1.37" stroke-miterlimit="10"/>
<path opacity="0.56" d="M333.925 142.263C368.554 216.869 360.752 388.293 203.212 353.441C140.866 339.651 40.9589 193.121 95.1462 159.056C148.756 125.309 180.185 58.5498 219.316 106.691C265.286 163.192 313.708 98.7148 333.925 142.263Z" stroke="url(#paint14_linear_179_1367)" stroke-width="1.37" stroke-miterlimit="10"/>
<path opacity="0.6" d="M335.246 139.063C362.619 213.458 370.384 383.593 203.262 356.229C137.442 345.456 38.9181 186.152 96.7398 154.218C153.908 122.624 183.797 50.6144 221.8 104.502C266.423 167.748 318.287 92.9724 335.246 139.063Z" stroke="url(#paint15_linear_179_1367)" stroke-width="1.37" stroke-miterlimit="10"/>
<path d="M245.834 362.45C123.786 610.597 -29.484 167.56 131.99 172.68C212.853 175.24 185.323 -13.4552 264.427 1.88752C343.53 17.2302 315.105 95.4297 344.036 183.239C380.182 292.893 277.384 298.327 245.834 362.45Z" stroke="url(#paint16_linear_179_1367)" stroke-width="1.37" stroke-miterlimit="10"/>
<g style="mix-blend-mode:hard-light" opacity="0.94">
<path d="M249.308 365.104C125.966 597.635 -27.8057 180.481 128.647 172.107C206.377 167.949 194.252 -14.7846 269.784 5.28895C345.316 25.3625 323.519 102.367 345.947 187.361C374.309 293.251 281.868 303.729 249.308 365.104Z" stroke="url(#paint17_linear_179_1367)" stroke-width="1.37" stroke-miterlimit="10"/>
</g>
<g style="mix-blend-mode:hard-light" opacity="0.88">
<path d="M252.772 367.758C128.455 584.655 -26.4093 193.537 125.295 171.539C199.77 160.739 203.172 -16.1138 275.137 8.6905C347.07 33.3964 331.625 109.358 347.849 191.438C368.061 293.69 286.411 309.068 252.772 367.758Z" stroke="url(#paint18_linear_179_1367)" stroke-width="1.37" stroke-miterlimit="10"/>
</g>
<g style="mix-blend-mode:hard-light" opacity="0.81">
<path d="M256.236 370.417C131.301 571.676 -25.2635 206.812 121.938 170.971C193.061 153.65 212.092 -17.4564 280.49 12.0833C348.843 41.4528 339.887 116.287 349.751 195.538C362.01 294.048 291.039 314.377 256.236 370.417Z" stroke="url(#paint19_linear_179_1367)" stroke-width="1.37" stroke-miterlimit="10"/>
</g>
<g style="mix-blend-mode:hard-light" opacity="0.75">
<path d="M259.709 373.071C134.537 558.737 -24.2967 220.378 118.586 170.398C186.276 146.721 221.012 -18.7724 285.838 15.4936C350.611 49.509 348.162 123.188 351.631 199.633C355.977 294.37 295.707 319.653 259.709 373.071Z" stroke="url(#paint20_linear_179_1367)" stroke-width="1.37" stroke-miterlimit="10"/>
</g>
<g style="mix-blend-mode:hard-light" opacity="0.69">
<path d="M263.16 375.725C138.212 545.869 -23.415 234.293 115.233 169.843C179.464 139.967 229.932 -20.1016 291.191 18.8952C352.379 57.5921 356.456 130.067 353.551 203.742C349.966 294.666 300.487 324.899 263.16 375.725Z" stroke="url(#paint21_linear_179_1367)" stroke-width="1.37" stroke-miterlimit="10"/>
</g>
<g style="mix-blend-mode:hard-light" opacity="0.63">
<path d="M266.624 378.379C142.356 533.127 -22.5065 248.544 111.881 169.256C172.67 133.393 238.852 -21.4309 296.544 22.2967C354.146 65.6618 364.781 136.919 355.453 207.833C343.995 294.939 305.361 330.136 266.624 378.379Z" stroke="url(#paint22_linear_179_1367)" stroke-width="1.37" stroke-miterlimit="10"/>
</g>
<g style="mix-blend-mode:hard-light" opacity="0.56">
<path d="M270.088 381.033C147.006 520.563 -21.4682 263.139 108.515 168.688C165.925 126.974 247.759 -22.7602 301.866 25.6982C355.937 73.736 373.141 143.763 357.355 211.932C338.074 295.189 310.365 335.381 270.088 381.033Z" stroke="url(#paint23_linear_179_1367)" stroke-width="1.37" stroke-miterlimit="10"/>
</g>
<g style="mix-blend-mode:hard-light" opacity="0.5">
<path d="M273.552 383.687C152.149 508.269 -20.2104 278.007 105.172 168.115C159.328 120.673 256.692 -24.0939 307.246 29.0953C357.682 81.8057 381.542 150.597 359.258 216.023C332.215 295.444 315.494 340.658 273.552 383.687Z" stroke="url(#paint24_linear_179_1367)" stroke-width="1.37" stroke-miterlimit="10"/>
</g>
<g style="mix-blend-mode:hard-light" opacity="0.44">
<path d="M277.017 386.346C157.806 496.265 -18.6798 293.081 101.82 167.546C152.784 114.456 265.612 -25.4191 312.598 32.501C359.45 89.8795 389.992 157.454 361.16 220.127C326.397 295.708 320.767 346.006 277.017 386.346Z" stroke="url(#paint25_linear_179_1367)" stroke-width="1.37" stroke-miterlimit="10"/>
</g>
<g style="mix-blend-mode:hard-light" opacity="0.38">
<path d="M280.481 389C163.929 484.673 -16.8626 308.272 98.4674 166.978C146.38 108.279 274.533 -26.7483 317.947 35.9026C361.218 97.9538 398.478 164.328 363.058 224.227C320.614 295.999 326.191 351.471 280.481 389Z" stroke="url(#paint26_linear_179_1367)" stroke-width="1.37" stroke-miterlimit="10"/>
</g>
<g style="mix-blend-mode:hard-light" opacity="0.31">
<path d="M283.945 391.654C170.495 473.56 -14.7634 323.512 95.1152 166.405C140.083 102.112 283.453 -28.0774 323.3 39.2954C362.986 106.015 406.996 171.23 364.96 228.318C314.877 296.335 331.768 357.124 283.945 391.654Z" stroke="url(#paint27_linear_179_1367)" stroke-width="1.37" stroke-miterlimit="10"/>
</g>
<g style="mix-blend-mode:hard-light" opacity="0.25">
<path d="M287.409 394.308C177.356 463.006 -12.4137 338.747 91.7628 165.837C133.879 95.931 292.382 -29.4066 328.635 42.7059C364.736 114.098 415.513 178.19 366.844 232.427C309.161 296.72 337.51 363.032 287.409 394.308Z" stroke="url(#paint28_linear_179_1367)" stroke-width="1.37" stroke-miterlimit="10"/>
</g>
<g style="mix-blend-mode:hard-light" opacity="0.19">
<path d="M290.873 396.963C184.419 453.07 -9.8583 353.933 88.4058 165.269C127.756 89.7189 301.293 -30.7357 334.006 46.1076C366.526 122.168 424.075 185.181 368.768 236.522C303.45 297.15 343.405 369.289 290.873 396.963Z" stroke="url(#paint29_linear_179_1367)" stroke-width="1.37" stroke-miterlimit="10"/>
</g>
<g style="mix-blend-mode:hard-light" opacity="0.13">
<path d="M294.338 399.616C191.459 443.819 -7.12788 369.043 85.0537 164.696C121.696 83.4661 310.213 -32.0652 339.377 49.509C368.312 130.242 432.628 192.208 370.707 240.622C297.753 297.624 349.344 375.998 294.338 399.616Z" stroke="url(#paint30_linear_179_1367)" stroke-width="1.37" stroke-miterlimit="10"/>
</g>
<g style="mix-blend-mode:hard-light" opacity="0.06">
<path d="M297.802 402.275C198.253 435.207 -4.26342 384.063 81.7014 164.127C115.69 77.1686 319.133 -33.3947 344.707 52.9103C370.058 138.311 441.132 199.266 372.564 244.721C292.001 298.13 355.319 383.244 297.802 402.275Z" stroke="url(#paint31_linear_179_1367)" stroke-width="1.37" stroke-miterlimit="10"/>
</g>
<path opacity="0.03" d="M109.146 302.015C-159.593 270.103 159.932 -74.0923 235.58 89.7274C273.208 171.208 437.233 79.496 451.43 169.01C465.627 258.524 384.814 268.371 315.821 328.954C229.999 404.924 180.238 310.442 109.146 302.015Z" stroke="url(#paint32_linear_179_1367)" stroke-width="1.37" stroke-miterlimit="10"/>
<path opacity="0.05" d="M108.193 306.862C-146.206 267.239 148.524 -66.8593 234.654 85.8875C277.061 161.079 442.327 88.4834 450.602 176.216C458.967 263.868 381.829 280.052 312.849 332.749C226.848 398.444 177.356 317.635 108.193 306.862Z" stroke="url(#paint33_linear_179_1367)" stroke-width="1.37" stroke-miterlimit="10"/>
<path opacity="0.07" d="M107.235 311.718C-132.658 264.79 136.847 -59.7386 233.75 82.0562C280.799 150.924 447.47 97.4661 449.797 183.417C452.259 269.266 378.991 291.9 309.877 336.554C223.904 392.124 174.519 324.877 107.235 311.718Z" stroke="url(#paint34_linear_179_1367)" stroke-width="1.37" stroke-miterlimit="10"/>
<path opacity="0.1" d="M106.282 316.57C-118.985 262.83 124.856 -52.7206 232.797 78.2206C284.326 140.733 452.554 106.444 448.946 190.61C445.545 274.61 376.189 303.729 306.906 340.358C220.959 385.8 171.771 332.194 106.282 316.57Z" stroke="url(#paint35_linear_179_1367)" stroke-width="1.37" stroke-miterlimit="10"/>
<path opacity="0.13" d="M105.324 321.421C-105.213 261.384 112.521 -45.6938 231.87 74.3849C287.704 130.564 457.656 115.423 448.136 197.807C438.849 279.981 373.441 315.563 303.951 344.162C218.085 379.485 169.089 339.606 105.324 321.421Z" stroke="url(#paint36_linear_179_1367)" stroke-width="1.37" stroke-miterlimit="10"/>
<path opacity="0.15" d="M104.366 326.273C-91.3966 260.521 99.8502 -38.5504 230.944 70.5449C290.918 120.458 462.758 124.401 447.29 204.995C432.122 285.347 370.706 327.419 300.961 347.958C215.261 373.197 166.462 347.143 104.366 326.273Z" stroke="url(#paint37_linear_179_1367)" stroke-width="1.37" stroke-miterlimit="10"/>
<path opacity="0.18" d="M103.413 331.125C-77.5846 260.274 86.8797 -31.1923 230.013 66.7137C293.979 110.468 467.865 133.402 446.462 212.196C425.426 290.718 368.017 339.306 297.99 351.758C212.481 366.957 163.866 354.792 103.413 331.125Z" stroke="url(#paint38_linear_179_1367)" stroke-width="1.37" stroke-miterlimit="10"/>
<path opacity="0.2" d="M102.455 335.976C-63.8575 260.668 73.681 -23.5344 229.086 62.878C296.943 100.608 472.972 142.362 445.634 219.389C418.7 296.085 365.336 351.252 295.018 355.558C209.729 360.781 161.275 362.611 102.455 335.976Z" stroke="url(#paint39_linear_179_1367)" stroke-width="1.37" stroke-miterlimit="10"/>
<path opacity="0.23" d="M101.502 340.828C-50.2872 261.715 60.3254 -15.5276 228.164 59.0421C299.856 90.9001 478.079 151.34 444.811 226.581C411.986 301.455 362.699 363.256 292.046 359.357C206.99 354.671 158.652 370.618 101.502 340.828Z" stroke="url(#paint40_linear_179_1367)" stroke-width="1.37" stroke-miterlimit="10"/>
<path opacity="0.25" d="M100.544 345.68C-36.9765 263.389 46.9608 -7.16257 227.233 55.2064C302.743 81.3311 483.181 160.318 443.978 233.787C405.277 306.83 360.032 375.318 289.074 363.166C204.233 348.629 155.949 378.836 100.544 345.68Z" stroke="url(#paint41_linear_179_1367)" stroke-width="1.37" stroke-miterlimit="10"/>
<path opacity="0.28" d="M99.5907 350.532C-24.0193 265.632 33.6144 1.53408 226.302 51.371C305.661 71.8966 488.288 169.297 443.15 240.971C398.563 312.193 357.333 387.425 286.116 366.957C201.435 342.668 153.102 387.291 99.5907 350.532Z" stroke="url(#paint42_linear_179_1367)" stroke-width="1.37" stroke-miterlimit="10"/>
<path opacity="0.3" d="M98.6329 355.383C-11.5187 268.371 20.3707 10.5256 225.376 47.5352C308.624 62.5646 493.39 178.275 442.322 248.168C391.854 317.559 354.594 399.554 283.126 370.762C198.593 336.701 150.027 395.991 98.6329 355.383Z" stroke="url(#paint43_linear_179_1367)" stroke-width="1.37" stroke-miterlimit="10"/>
<path opacity="0.33" d="M97.6885 360.235C0.426926 271.432 7.27921 19.75 224.449 43.6905C311.663 53.3044 498.497 187.244 441.494 255.351C385.141 322.934 351.806 411.701 280.154 374.552C195.706 330.771 146.639 404.947 97.6885 360.235Z" stroke="url(#paint44_linear_179_1367)" stroke-width="1.37" stroke-miterlimit="10"/>
<path opacity="0.35" d="M96.7219 365.086C11.7238 274.677 -5.6733 29.1534 223.519 39.8638C314.76 44.1381 503.599 196.231 440.671 262.552C378.432 328.296 348.982 423.866 277.164 378.361C192.753 324.845 142.84 414.14 96.7219 365.086Z" stroke="url(#paint45_linear_179_1367)" stroke-width="1.37" stroke-miterlimit="10"/>
<path opacity="0.38" d="M95.764 369.938C22.2998 277.895 -18.4514 38.6732 222.592 36.0505C317.951 35.0032 508.706 205.232 439.843 269.772C371.718 333.689 346.122 436.044 274.21 382.184C189.767 318.91 138.534 423.521 95.764 369.938Z" stroke="url(#paint46_linear_179_1367)" stroke-width="1.37" stroke-miterlimit="10"/>
<path opacity="0.4" d="M94.8106 374.794C32.1194 280.831 -31.0686 48.2737 221.665 32.1925C321.201 25.8549 513.813 214.215 439.015 276.946C365.004 339.033 343.235 448.16 271.238 385.961C186.755 312.962 133.651 433.005 94.8106 374.794Z" stroke="url(#paint47_linear_179_1367)" stroke-width="1.37" stroke-miterlimit="10"/>
<defs>
<linearGradient id="paint0_linear_179_1367" x1="73.0236" y1="125.535" x2="363.5" y2="367.834" gradientUnits="userSpaceOnUse">
<stop stop-color="#1813BF"/>
<stop offset="0.463542" stop-color="#954DC8"/>
<stop offset="1" stop-color="#FF8153"/>
</linearGradient>
<linearGradient id="paint1_linear_179_1367" x1="74.3613" y1="125.877" x2="363.683" y2="364.951" gradientUnits="userSpaceOnUse">
<stop stop-color="#1813BF"/>
<stop offset="0.463542" stop-color="#954DC8"/>
<stop offset="1" stop-color="#FF8153"/>
</linearGradient>
<linearGradient id="paint2_linear_179_1367" x1="75.5431" y1="126.105" x2="363.895" y2="362.058" gradientUnits="userSpaceOnUse">
<stop stop-color="#1813BF"/>
<stop offset="0.463542" stop-color="#954DC8"/>
<stop offset="1" stop-color="#FF8153"/>
</linearGradient>
<linearGradient id="paint3_linear_179_1367" x1="76.5708" y1="126.233" x2="364.127" y2="359.181" gradientUnits="userSpaceOnUse">
<stop stop-color="#1813BF"/>
<stop offset="0.463542" stop-color="#954DC8"/>
<stop offset="1" stop-color="#FF8153"/>
</linearGradient>
<linearGradient id="paint4_linear_179_1367" x1="77.4552" y1="126.179" x2="364.422" y2="356.237" gradientUnits="userSpaceOnUse">
<stop stop-color="#1813BF"/>
<stop offset="0.463542" stop-color="#954DC8"/>
<stop offset="1" stop-color="#FF8153"/>
</linearGradient>
<linearGradient id="paint5_linear_179_1367" x1="78.2109" y1="125.712" x2="365.03" y2="352.947" gradientUnits="userSpaceOnUse">
<stop stop-color="#1813BF"/>
<stop offset="0.463542" stop-color="#954DC8"/>
<stop offset="1" stop-color="#FF8153"/>
</linearGradient>
<linearGradient id="paint6_linear_179_1367" x1="78.8138" y1="123.897" x2="366.78" y2="348.204" gradientUnits="userSpaceOnUse">
<stop stop-color="#1813BF"/>
<stop offset="0.463542" stop-color="#954DC8"/>
<stop offset="1" stop-color="#FF8153"/>
</linearGradient>
<linearGradient id="paint7_linear_179_1367" x1="79.2961" y1="120.657" x2="369.685" y2="341.861" gradientUnits="userSpaceOnUse">
<stop stop-color="#1813BF"/>
<stop offset="0.463542" stop-color="#954DC8"/>
<stop offset="1" stop-color="#FF8153"/>
</linearGradient>
<linearGradient id="paint8_linear_179_1367" x1="79.662" y1="116.801" x2="372.926" y2="334.908" gradientUnits="userSpaceOnUse">
<stop stop-color="#1813BF"/>
<stop offset="0.463542" stop-color="#954DC8"/>
<stop offset="1" stop-color="#FF8153"/>
</linearGradient>
<linearGradient id="paint9_linear_179_1367" x1="79.9111" y1="112.634" x2="376.222" y2="327.745" gradientUnits="userSpaceOnUse">
<stop stop-color="#1813BF"/>
<stop offset="0.463542" stop-color="#954DC8"/>
<stop offset="1" stop-color="#FF8153"/>
</linearGradient>
<linearGradient id="paint10_linear_179_1367" x1="80.0562" y1="108.254" x2="379.561" y2="320.5" gradientUnits="userSpaceOnUse">
<stop stop-color="#1813BF"/>
<stop offset="0.463542" stop-color="#954DC8"/>
<stop offset="1" stop-color="#FF8153"/>
</linearGradient>
<linearGradient id="paint11_linear_179_1367" x1="80.0876" y1="103.753" x2="382.875" y2="313.335" gradientUnits="userSpaceOnUse">
<stop stop-color="#1813BF"/>
<stop offset="0.463542" stop-color="#954DC8"/>
<stop offset="1" stop-color="#FF8153"/>
</linearGradient>
<linearGradient id="paint12_linear_179_1367" x1="80.0192" y1="99.1584" x2="386.209" y2="306.251" gradientUnits="userSpaceOnUse">
<stop stop-color="#1813BF"/>
<stop offset="0.463542" stop-color="#954DC8"/>
<stop offset="1" stop-color="#FF8153"/>
</linearGradient>
<linearGradient id="paint13_linear_179_1367" x1="79.8529" y1="94.5073" x2="389.596" y2="299.336" gradientUnits="userSpaceOnUse">
<stop stop-color="#1813BF"/>
<stop offset="0.463542" stop-color="#954DC8"/>
<stop offset="1" stop-color="#FF8153"/>
</linearGradient>
<linearGradient id="paint14_linear_179_1367" x1="79.5916" y1="89.8176" x2="393.074" y2="292.621" gradientUnits="userSpaceOnUse">
<stop stop-color="#1813BF"/>
<stop offset="0.463542" stop-color="#954DC8"/>
<stop offset="1" stop-color="#FF8153"/>
</linearGradient>
<linearGradient id="paint15_linear_179_1367" x1="79.2443" y1="85.0774" x2="396.705" y2="286.087" gradientUnits="userSpaceOnUse">
<stop stop-color="#1813BF"/>
<stop offset="0.463542" stop-color="#954DC8"/>
<stop offset="1" stop-color="#FF8153"/>
</linearGradient>
<linearGradient id="paint16_linear_179_1367" x1="62.2528" y1="1" x2="464.578" y2="171.51" gradientUnits="userSpaceOnUse">
<stop stop-color="#1813BF"/>
<stop offset="0.463542" stop-color="#954DC8"/>
<stop offset="1" stop-color="#FF8153"/>
</linearGradient>
<linearGradient id="paint17_linear_179_1367" x1="62.399" y1="3.74902" x2="462.757" y2="175.182" gradientUnits="userSpaceOnUse">
<stop stop-color="#1813BF"/>
<stop offset="0.463542" stop-color="#954DC8"/>
<stop offset="1" stop-color="#FF8153"/>
</linearGradient>
<linearGradient id="paint18_linear_179_1367" x1="62.4192" y1="6.30859" x2="461.049" y2="178.846" gradientUnits="userSpaceOnUse">
<stop stop-color="#1813BF"/>
<stop offset="0.463542" stop-color="#954DC8"/>
<stop offset="1" stop-color="#FF8153"/>
</linearGradient>
<linearGradient id="paint19_linear_179_1367" x1="62.3307" y1="8.66431" x2="459.739" y2="182.76" gradientUnits="userSpaceOnUse">
<stop stop-color="#1813BF"/>
<stop offset="0.463542" stop-color="#954DC8"/>
<stop offset="1" stop-color="#FF8153"/>
</linearGradient>
<linearGradient id="paint20_linear_179_1367" x1="62.1658" y1="10.8418" x2="458.967" y2="187.093" gradientUnits="userSpaceOnUse">
<stop stop-color="#1813BF"/>
<stop offset="0.463542" stop-color="#954DC8"/>
<stop offset="1" stop-color="#FF8153"/>
</linearGradient>
<linearGradient id="paint21_linear_179_1367" x1="61.962" y1="12.811" x2="459.73" y2="192.906" gradientUnits="userSpaceOnUse">
<stop stop-color="#1813BF"/>
<stop offset="0.463542" stop-color="#954DC8"/>
<stop offset="1" stop-color="#FF8153"/>
</linearGradient>
<linearGradient id="paint22_linear_179_1367" x1="61.7626" y1="14.5815" x2="462.094" y2="200.368" gradientUnits="userSpaceOnUse">
<stop stop-color="#1813BF"/>
<stop offset="0.463542" stop-color="#954DC8"/>
<stop offset="1" stop-color="#FF8153"/>
</linearGradient>
<linearGradient id="paint23_linear_179_1367" x1="61.598" y1="16.1541" x2="464.644" y2="207.879" gradientUnits="userSpaceOnUse">
<stop stop-color="#1813BF"/>
<stop offset="0.463542" stop-color="#954DC8"/>
<stop offset="1" stop-color="#FF8153"/>
</linearGradient>
<linearGradient id="paint24_linear_179_1367" x1="61.5032" y1="17.5247" x2="467.243" y2="215.198" gradientUnits="userSpaceOnUse">
<stop stop-color="#1813BF"/>
<stop offset="0.463542" stop-color="#954DC8"/>
<stop offset="1" stop-color="#FF8153"/>
</linearGradient>
<linearGradient id="paint25_linear_179_1367" x1="61.4722" y1="18.7063" x2="469.864" y2="222.295" gradientUnits="userSpaceOnUse">
<stop stop-color="#1813BF"/>
<stop offset="0.463542" stop-color="#954DC8"/>
<stop offset="1" stop-color="#FF8153"/>
</linearGradient>
<linearGradient id="paint26_linear_179_1367" x1="61.488" y1="19.6868" x2="472.512" y2="229.116" gradientUnits="userSpaceOnUse">
<stop stop-color="#1813BF"/>
<stop offset="0.463542" stop-color="#954DC8"/>
<stop offset="1" stop-color="#FF8153"/>
</linearGradient>
<linearGradient id="paint27_linear_179_1367" x1="61.5248" y1="20.4651" x2="475.203" y2="235.661" gradientUnits="userSpaceOnUse">
<stop stop-color="#1813BF"/>
<stop offset="0.463542" stop-color="#954DC8"/>
<stop offset="1" stop-color="#FF8153"/>
</linearGradient>
<linearGradient id="paint28_linear_179_1367" x1="61.533" y1="21.0552" x2="477.922" y2="241.95" gradientUnits="userSpaceOnUse">
<stop stop-color="#1813BF"/>
<stop offset="0.463542" stop-color="#954DC8"/>
<stop offset="1" stop-color="#FF8153"/>
</linearGradient>
<linearGradient id="paint29_linear_179_1367" x1="61.4662" y1="21.4436" x2="480.725" y2="248.053" gradientUnits="userSpaceOnUse">
<stop stop-color="#1813BF"/>
<stop offset="0.463542" stop-color="#954DC8"/>
<stop offset="1" stop-color="#FF8153"/>
</linearGradient>
<linearGradient id="paint30_linear_179_1367" x1="61.2844" y1="21.636" x2="483.589" y2="253.961" gradientUnits="userSpaceOnUse">
<stop stop-color="#1813BF"/>
<stop offset="0.463542" stop-color="#954DC8"/>
<stop offset="1" stop-color="#FF8153"/>
</linearGradient>
<linearGradient id="paint31_linear_179_1367" x1="60.9453" y1="21.635" x2="486.47" y2="259.659" gradientUnits="userSpaceOnUse">
<stop stop-color="#1813BF"/>
<stop offset="0.463542" stop-color="#954DC8"/>
<stop offset="1" stop-color="#FF8153"/>
</linearGradient>
<linearGradient id="paint32_linear_179_1367" x1="3.45386" y1="45.7415" x2="402.569" y2="413.168" gradientUnits="userSpaceOnUse">
<stop stop-color="#1813BF"/>
<stop offset="0.463542" stop-color="#954DC8"/>
<stop offset="1" stop-color="#FF8153"/>
</linearGradient>
<linearGradient id="paint33_linear_179_1367" x1="6.93054" y1="46.1519" x2="405.058" y2="408.904" gradientUnits="userSpaceOnUse">
<stop stop-color="#1813BF"/>
<stop offset="0.463542" stop-color="#954DC8"/>
<stop offset="1" stop-color="#FF8153"/>
</linearGradient>
<linearGradient id="paint34_linear_179_1367" x1="10.4083" y1="46.4663" x2="407.75" y2="404.911" gradientUnits="userSpaceOnUse">
<stop stop-color="#1813BF"/>
<stop offset="0.463542" stop-color="#954DC8"/>
<stop offset="1" stop-color="#FF8153"/>
</linearGradient>
<linearGradient id="paint35_linear_179_1367" x1="13.8579" y1="46.6711" x2="410.563" y2="401.254" gradientUnits="userSpaceOnUse">
<stop stop-color="#1813BF"/>
<stop offset="0.463542" stop-color="#954DC8"/>
<stop offset="1" stop-color="#FF8153"/>
</linearGradient>
<linearGradient id="paint36_linear_179_1367" x1="17.2515" y1="46.7903" x2="413.451" y2="397.861" gradientUnits="userSpaceOnUse">
<stop stop-color="#1813BF"/>
<stop offset="0.463542" stop-color="#954DC8"/>
<stop offset="1" stop-color="#FF8153"/>
</linearGradient>
<linearGradient id="paint37_linear_179_1367" x1="20.5558" y1="46.8354" x2="416.375" y2="394.65" gradientUnits="userSpaceOnUse">
<stop stop-color="#1813BF"/>
<stop offset="0.463542" stop-color="#954DC8"/>
<stop offset="1" stop-color="#FF8153"/>
</linearGradient>
<linearGradient id="paint38_linear_179_1367" x1="23.741" y1="46.8127" x2="419.332" y2="391.679" gradientUnits="userSpaceOnUse">
<stop stop-color="#1813BF"/>
<stop offset="0.463542" stop-color="#954DC8"/>
<stop offset="1" stop-color="#FF8153"/>
</linearGradient>
<linearGradient id="paint39_linear_179_1367" x1="26.7625" y1="46.6941" x2="422.383" y2="388.909" gradientUnits="userSpaceOnUse">
<stop stop-color="#1813BF"/>
<stop offset="0.463542" stop-color="#954DC8"/>
<stop offset="1" stop-color="#FF8153"/>
</linearGradient>
<linearGradient id="paint40_linear_179_1367" x1="29.5804" y1="46.4351" x2="426.017" y2="386.236" gradientUnits="userSpaceOnUse">
<stop stop-color="#1813BF"/>
<stop offset="0.463542" stop-color="#954DC8"/>
<stop offset="1" stop-color="#FF8153"/>
</linearGradient>
<linearGradient id="paint41_linear_179_1367" x1="32.1487" y1="45.9595" x2="434.105" y2="382.919" gradientUnits="userSpaceOnUse">
<stop stop-color="#1813BF"/>
<stop offset="0.463542" stop-color="#954DC8"/>
<stop offset="1" stop-color="#FF8153"/>
</linearGradient>
<linearGradient id="paint42_linear_179_1367" x1="34.4008" y1="45.1643" x2="442.838" y2="379.397" gradientUnits="userSpaceOnUse">
<stop stop-color="#1813BF"/>
<stop offset="0.463542" stop-color="#954DC8"/>
<stop offset="1" stop-color="#FF8153"/>
</linearGradient>
<linearGradient id="paint43_linear_179_1367" x1="36.2719" y1="43.9265" x2="451.967" y2="375.596" gradientUnits="userSpaceOnUse">
<stop stop-color="#1813BF"/>
<stop offset="0.463542" stop-color="#954DC8"/>
<stop offset="1" stop-color="#FF8153"/>
</linearGradient>
<linearGradient id="paint44_linear_179_1367" x1="37.6995" y1="42.093" x2="461.376" y2="371.409" gradientUnits="userSpaceOnUse">
<stop stop-color="#1813BF"/>
<stop offset="0.463542" stop-color="#954DC8"/>
<stop offset="1" stop-color="#FF8153"/>
</linearGradient>
<linearGradient id="paint45_linear_179_1367" x1="38.6" y1="39.5242" x2="471.018" y2="366.748" gradientUnits="userSpaceOnUse">
<stop stop-color="#1813BF"/>
<stop offset="0.463542" stop-color="#954DC8"/>
<stop offset="1" stop-color="#FF8153"/>
</linearGradient>
<linearGradient id="paint46_linear_179_1367" x1="38.942" y1="36.0457" x2="480.927" y2="361.43" gradientUnits="userSpaceOnUse">
<stop stop-color="#1813BF"/>
<stop offset="0.463542" stop-color="#954DC8"/>
<stop offset="1" stop-color="#FF8153"/>
</linearGradient>
<linearGradient id="paint47_linear_179_1367" x1="38.7047" y1="32.0364" x2="490.643" y2="355.985" gradientUnits="userSpaceOnUse">
<stop stop-color="#1813BF"/>
<stop offset="0.463542" stop-color="#954DC8"/>
<stop offset="1" stop-color="#FF8153"/>
</linearGradient>
</defs>
</svg>
