<svg width="142" height="40" viewBox="0 0 142 40" fill="none" xmlns="http://www.w3.org/2000/svg">
<g clip-path="url(#clip0_201_21)">
<path d="M64.6723 0.483858C64.0192 0.483266 63.3724 0.611453 62.7689 0.861085C62.1654 1.11072 61.617 1.4769 61.1552 1.93867C60.6933 2.40044 60.3271 2.94874 60.0773 3.55221C59.8276 4.15568 59.6993 4.80246 59.6998 5.45555C59.6993 6.10865 59.8276 6.75543 60.0773 7.35889C60.3271 7.96236 60.6933 8.51066 61.1552 8.97244C61.617 9.43421 62.1654 9.80039 62.7689 10.05C63.3724 10.2997 64.0192 10.4278 64.6723 10.4272C67.4204 10.4272 69.6672 8.20443 69.6672 5.45555C69.6672 2.70667 67.4204 0.483858 64.6723 0.483858ZM83.7846 12.7491C79.312 12.7491 74.7087 16.0548 74.7087 20.8397C74.7087 25.972 77.8426 27.8338 81.7914 29.0713C87.7049 30.9256 89.4129 31.977 89.4129 34.3477C89.4129 36.3393 87.798 37.9123 84.7459 37.9123C81.2136 37.9123 78.1 35.0426 77.664 30.8769H75.1777V39.4132H77.5942C77.5942 39.4132 78.0069 38.0924 78.1097 37.7712C80.1434 39.3441 82.2815 40 84.9808 40C89.6366 40 92.05 38.0841 93.4466 35.9896C94.4582 34.4737 94.8409 32.8693 94.8304 30.9001C94.8139 27.8871 93.2822 25.3423 90.9138 24.0291C88.8989 22.9124 87.0933 22.4501 84.3242 21.5901C81.5558 20.7308 80.4549 19.26 80.4549 17.7673C80.4549 16.3843 81.5183 14.6718 84.6288 14.6718C87.7364 14.6718 90.1101 17.4739 90.7735 20.6993H93.1419V13.2887H90.7735L90.4688 14.6958C89.109 13.6602 87.2254 12.7491 83.7846 12.7491ZM129.843 12.7491C125.37 12.7491 120.767 16.0548 120.767 20.8397C120.767 25.972 123.903 27.8338 127.85 29.0713C133.766 30.9256 135.471 31.977 135.471 34.3477C135.471 36.3393 133.854 37.9123 130.804 37.9123C127.27 37.9123 124.182 35.0426 123.746 30.8769H121.236V39.4132H123.653C123.653 39.4132 124.089 38.0924 124.192 37.7712C126.224 39.3441 128.339 40 131.039 40C135.695 40 138.108 38.0841 139.505 35.9896C140.517 34.4737 140.899 32.8693 140.889 30.9001C140.874 27.8871 139.34 25.3423 136.972 24.0291C134.957 22.9124 133.152 22.4501 130.383 21.5901C127.614 20.7308 126.513 19.26 126.513 17.7673C126.513 16.3843 127.602 14.6718 130.711 14.6718C133.82 14.6718 136.167 17.4739 136.832 20.6993H139.2V13.2887H136.832C136.832 13.2887 136.596 14.3896 136.527 14.6958C135.168 13.6602 133.282 12.7491 129.843 12.7491ZM0.743408 13.2879V15.2819H3.95606V29.8915C3.95606 32.5781 4.22772 34.5353 5.33988 36.1532C6.60813 37.9986 9.24895 39.9527 14.2514 39.9527C20.1717 39.9527 22.2331 38.1854 23.4211 36.1532C24.3456 34.5683 24.453 32.6479 24.453 29.6341V15.2819H27.6656V13.2879H18.7773V15.2819H21.9667V32.1196C21.9667 35.6362 19.6328 37.2789 17.0656 37.2789C14.7977 37.2789 13.636 36.6395 12.8676 35.6144C12.1757 34.6884 11.9535 33.4231 11.9535 31.6971V15.2826H15.1655V13.2887L0.743408 13.2879ZM29.3541 13.2879V15.2819H32.0279V37.42H28.8145V39.4132H37.8679V37.42H34.5134V19.8783L48.561 39.4132H52.5008V15.2819H55.7135V13.2879H46.8252V15.2819H50.0146V27.734L39.6495 13.2879H29.3541ZM57.5663 13.2879V15.2819H60.779V37.42H57.5663V39.4132H71.9891V37.42H68.7757V15.2819H71.9884V13.2879H57.5663ZM94.2443 13.2879V15.2819H97.105C97.105 15.2819 103.761 28.2398 103.788 28.2968V37.4207H100.13V39.4139H115.468V37.4207H111.786V28.2968C111.814 28.239 118.469 15.2819 118.469 15.2819H121.213V13.2879H112.864V15.2819H115.772L110.636 25.4827L105.806 15.2826H108.995V13.2887L94.2443 13.2879Z" fill="#D40F41"/>
</g>
<defs>
<clipPath id="clip0_201_21">
<rect width="141.643" height="40" fill="white"/>
</clipPath>
</defs>
</svg>
