<svg width="69" height="40" viewBox="0 0 69 40" fill="none" xmlns="http://www.w3.org/2000/svg">
<g clip-path="url(#clip0_201_14)">
<path d="M19.4578 14.5273C19.4578 15.3504 19.5468 16.0178 19.7025 16.5072C19.8805 16.9967 20.103 17.5306 20.4144 18.109C20.5257 18.287 20.5702 18.465 20.5702 18.6207C20.5702 18.8432 20.4367 19.0656 20.1475 19.2881L18.7459 20.2225C18.5457 20.356 18.3455 20.4227 18.1675 20.4227C17.945 20.4227 17.7226 20.3115 17.5001 20.1112C17.1886 19.7775 16.9217 19.4216 16.6992 19.0656C16.4767 18.6874 16.2543 18.2647 16.0096 17.7531C14.2743 19.7998 12.0941 20.8231 9.46895 20.8231C7.60021 20.8231 6.10966 20.2892 5.01956 19.2214C3.92946 18.1535 3.37329 16.7297 3.37329 14.9499C3.37329 13.059 4.0407 11.5239 5.39776 10.3671C6.75483 9.21024 8.55683 8.63181 10.8483 8.63181C11.6047 8.63181 12.3833 8.69855 13.2064 8.80979C14.0296 8.92103 14.875 9.099 15.7648 9.29922V7.6752C15.7648 5.98443 15.4089 4.80534 14.7192 4.11568C14.0073 3.42603 12.806 3.09232 11.093 3.09232C10.3143 3.09232 9.51345 3.18131 8.69031 3.38154C7.86717 3.58176 7.06628 3.82647 6.28764 4.13793C5.93169 4.29366 5.66473 4.38265 5.509 4.42714C5.35327 4.47164 5.24203 4.49388 5.15305 4.49388C4.84159 4.49388 4.68586 4.27141 4.68586 3.80423V2.71413C4.68586 2.35818 4.73035 2.09121 4.84159 1.93548C4.95282 1.77976 5.15305 1.62403 5.4645 1.4683C6.24315 1.06785 7.17752 0.734149 8.26762 0.467186C9.35772 0.177976 10.5146 0.0444939 11.7381 0.0444939C14.3855 0.0444939 16.321 0.645161 17.5668 1.8465C18.7904 3.04783 19.4133 4.87208 19.4133 7.31924V14.5273H19.4578ZM10.4256 17.9088C11.1597 17.9088 11.9161 17.7753 12.717 17.5083C13.5179 17.2414 14.2298 16.7519 14.8305 16.0845C15.1864 15.6618 15.4534 15.1947 15.5869 14.6607C15.7203 14.1268 15.8093 13.4816 15.8093 12.7253V11.7909C15.1642 11.6352 14.4745 11.5017 13.7626 11.4127C13.0507 11.3237 12.3611 11.2792 11.6714 11.2792C10.1809 11.2792 9.09075 11.5684 8.35661 12.1691C7.62246 12.7697 7.26651 13.6151 7.26651 14.7275C7.26651 15.7731 7.53347 16.5517 8.08964 17.0857C8.62357 17.6418 9.40221 17.9088 10.4256 17.9088ZM28.2899 20.3115C27.8894 20.3115 27.6225 20.2447 27.4445 20.089C27.2665 19.9555 27.1108 19.6441 26.9773 19.2214L21.7493 2.02447C21.6158 1.57953 21.549 1.29032 21.549 1.13459C21.549 0.778643 21.727 0.578421 22.083 0.578421H24.2632C24.6859 0.578421 24.9751 0.645161 25.1308 0.80089C25.3088 0.934372 25.4423 1.24583 25.5757 1.66852L29.3132 16.396L32.7837 1.66852C32.895 1.22358 33.0285 0.934372 33.2064 0.80089C33.3844 0.667408 33.6959 0.578421 34.0963 0.578421H35.8761C36.2988 0.578421 36.588 0.645161 36.7659 0.80089C36.9439 0.934372 37.0997 1.24583 37.1886 1.66852L40.7037 16.574L44.5524 1.66852C44.6859 1.22358 44.8416 0.934372 44.9973 0.80089C45.1753 0.667408 45.4645 0.578421 45.8649 0.578421H47.9339C48.2899 0.578421 48.4901 0.756396 48.4901 1.13459C48.4901 1.24583 48.4678 1.35706 48.4456 1.49055C48.4233 1.62403 48.3788 1.802 48.2899 2.04672L42.9283 19.2436C42.7949 19.6885 42.6391 19.9778 42.4612 20.1112C42.2832 20.2447 41.994 20.3337 41.6158 20.3337H39.7025C39.2799 20.3337 38.9906 20.267 38.8127 20.1112C38.6347 19.9555 38.479 19.6663 38.39 19.2214L34.9417 4.87208L31.5157 19.1991C31.4044 19.6441 31.271 19.9333 31.093 20.089C30.915 20.2447 30.6035 20.3115 30.2031 20.3115H28.2899ZM56.8772 20.9121C55.7203 20.9121 54.5635 20.7786 53.4512 20.5117C52.3388 20.2447 51.4712 19.9555 50.8928 19.6218C50.5368 19.4216 50.2921 19.1991 50.2031 18.9989C50.1141 18.7987 50.0696 18.5762 50.0696 18.376V17.2414C50.0696 16.7742 50.2476 16.5517 50.5813 16.5517C50.7148 16.5517 50.8483 16.574 50.9817 16.6185C51.1152 16.663 51.3154 16.7519 51.5379 16.8409C52.2943 17.1746 53.1175 17.4416 53.9851 17.6196C54.875 17.7976 55.7426 17.8865 56.6325 17.8865C58.034 17.8865 59.1241 17.6418 59.8805 17.1524C60.6369 16.663 61.0374 15.9511 61.0374 15.0389C61.0374 14.416 60.8371 13.9043 60.4367 13.4816C60.0362 13.059 59.2799 12.6808 58.1898 12.3248L54.9639 11.3237C53.3399 10.812 52.1386 10.0556 51.4044 9.05451C50.6703 8.07564 50.2921 6.98554 50.2921 5.8287C50.2921 4.89433 50.4923 4.07119 50.8928 3.35929C51.2932 2.64739 51.8271 2.02447 52.4945 1.53504C53.1619 1.02336 53.9183 0.645161 54.8082 0.378198C55.6981 0.111235 56.6325 0 57.6113 0C58.1008 0 58.6124 0.0222469 59.1019 0.0889878C59.6136 0.155729 60.0807 0.244716 60.5479 0.333704C60.9929 0.444939 61.4156 0.556174 61.816 0.689655C62.2164 0.823137 62.5279 0.956619 62.7504 1.0901C63.0618 1.26808 63.2843 1.44605 63.4178 1.64627C63.5513 1.82425 63.618 2.06897 63.618 2.38042V3.42603C63.618 3.89321 63.44 4.13793 63.1063 4.13793C62.9284 4.13793 62.6391 4.04894 62.2609 3.87097C60.9929 3.29255 59.5691 3.00334 57.9895 3.00334C56.7215 3.00334 55.7203 3.20356 55.0307 3.62625C54.341 4.04894 53.9851 4.6941 53.9851 5.60623C53.9851 6.22914 54.2076 6.76307 54.6525 7.18576C55.0974 7.60846 55.9206 8.03115 57.0997 8.40935L60.2587 9.41046C61.8605 9.92214 63.0173 10.634 63.707 11.5462C64.3966 12.4583 64.7304 13.5039 64.7304 14.6607C64.7304 15.6174 64.5301 16.485 64.1519 17.2414C63.7515 17.9978 63.2176 18.6652 62.5279 19.1991C61.8382 19.7553 61.0151 20.1557 60.0585 20.4449C59.0574 20.7564 58.0118 20.9121 56.8772 20.9121Z" fill="#F5F5F5"/>
<path fill-rule="evenodd" clip-rule="evenodd" d="M61.0819 31.7241C53.7626 37.1301 43.1286 40 33.9851 40C21.1708 40 9.62468 35.2614 0.903877 27.386C0.214222 26.763 0.837136 25.9177 1.66027 26.4071C11.093 31.8798 22.7281 35.1946 34.7637 35.1946C42.8839 35.1946 51.8049 33.5039 60.014 30.0334C61.2376 29.4772 62.2832 30.8342 61.0819 31.7241Z" fill="#FF9900"/>
<path fill-rule="evenodd" clip-rule="evenodd" d="M64.1297 28.2536C63.1953 27.0523 57.945 27.6752 55.5646 27.9644C54.8527 28.0534 54.7414 27.4305 55.3866 26.9633C59.569 24.0267 66.4433 24.8721 67.2442 25.8509C68.0451 26.852 67.0218 33.7263 63.1063 37.0189C62.5056 37.5306 61.9272 37.2636 62.1942 36.5962C63.084 34.3937 65.064 29.4327 64.1297 28.2536Z" fill="#FF9900"/>
</g>
<defs>
<clipPath id="clip0_201_14">
<rect width="68.2594" height="40" fill="white"/>
</clipPath>
</defs>
</svg>
