<svg width="181" height="32" viewBox="0 0 181 32" fill="none" xmlns="http://www.w3.org/2000/svg">
<g clip-path="url(#clip0_201_30)">
<path d="M24.6324 14.7277C24.5572 13.5711 24.2565 12.4145 23.6549 11.412L18.5419 2.23614C18.166 1.54217 17.8652 0.771084 17.7148 0L17.4892 0.385542C16.211 2.62169 16.211 5.4747 17.4892 7.71084L21.6248 15.0361C22.903 17.2723 22.903 20.1253 21.6248 22.3614L21.3992 22.747C21.2488 21.9759 20.948 21.2048 20.5721 20.5108L16.8125 13.8024L14.4064 9.48434C14.0304 8.79036 13.7297 8.01928 13.5793 7.24819L13.3537 7.63374C12.0755 9.86988 12.0755 12.6458 13.3537 14.959L17.4892 22.2843C18.7675 24.5205 18.7675 27.3735 17.4892 29.6096L17.2637 29.9952C17.1133 29.2241 16.8125 28.453 16.4366 27.759L11.2484 18.5831C10.5716 17.3494 10.2709 15.9614 10.2709 14.5735C4.7819 16.0386 0.947144 19.2 0.947144 22.8241C0.947144 27.9133 8.31589 32 17.414 32C26.5122 32 33.8809 27.9133 33.8809 22.8241C33.9561 19.3542 30.1966 16.1928 24.6324 14.7277ZM40.197 30.3807C40.2722 29.0699 40.4226 28.2217 40.7985 27.1422C42.5279 27.9904 44.7837 28.3759 46.4379 28.3759C49.2952 28.3759 50.9494 27.4506 50.9494 25.5229C50.9494 23.6723 49.7463 22.8241 46.889 21.5133L45.31 20.8964C42.3776 19.5855 40.4226 17.8892 40.4226 14.5735C40.4226 10.9494 42.9039 8.63614 47.8665 8.63614C49.8967 8.63614 51.7765 8.94458 53.5059 9.56145C53.4307 10.7952 53.2051 11.7976 52.9043 12.7229C51.2501 12.106 49.22 11.7976 47.7913 11.7976C45.0844 11.7976 43.8814 12.8771 43.8814 14.5735C43.8814 16.1928 45.0844 17.1952 47.265 18.1205L48.9192 18.8145C52.8292 20.5108 54.4834 22.3614 54.4834 25.4458C54.4834 29.0699 51.7765 31.6145 46.5131 31.6145C44.0318 31.6145 41.9264 31.2289 40.197 30.3807ZM71.1006 15.1904V31.0747H67.9426L67.7922 29.147C66.8899 30.5349 65.6117 31.4602 63.4311 31.4602C59.3708 31.4602 56.5887 28.3759 56.5887 23.0554C56.5887 17.5036 59.5212 14.2651 65.2357 14.2651C67.4915 14.3422 69.3712 14.5735 71.1006 15.1904ZM67.717 27.4506V17.5036C67.0403 17.3494 66.2132 17.3494 65.2357 17.3494C61.7017 17.3494 60.0475 19.5855 60.0475 23.1325C60.0475 26.3711 61.3258 28.6843 64.3334 28.6843C65.7621 28.6072 66.8147 28.1446 67.717 27.4506ZM88.545 20.4337V31.0747H85.1614V21.0506C85.1614 18.506 84.3343 17.3494 80.9507 17.3494C80.1236 17.3494 79.2213 17.4265 78.2438 17.5807V31.0747H74.8602V15.1904C77.0408 14.6506 79.4469 14.2651 81.0259 14.2651C86.7404 14.3422 88.545 16.5783 88.545 20.4337ZM98.0191 28.5301C98.9966 28.5301 99.9741 28.3759 100.651 28.0675C100.576 28.9928 100.425 30.0723 100.275 30.9976C99.3726 31.3831 98.3199 31.5373 97.4176 31.5373C94.1092 31.5373 92.0038 29.9952 92.0038 26.1398V9.40723C93.0565 9.02169 94.3348 8.86747 95.3874 8.86747V14.8819H100.801C100.726 15.9614 100.651 16.9639 100.5 17.8892H95.3874V25.6771C95.3874 27.6819 96.3649 28.5301 98.0191 28.5301ZM116.291 15.1904V31.0747H113.133L112.982 29.147C112.08 30.5349 110.802 31.4602 108.621 31.4602C104.561 31.4602 101.779 28.3759 101.779 23.0554C101.779 17.5036 104.711 14.2651 110.426 14.2651C112.681 14.3422 114.486 14.5735 116.291 15.1904ZM112.832 27.4506V17.5036C112.155 17.3494 111.328 17.3494 110.351 17.3494C106.817 17.3494 105.162 19.5855 105.162 23.1325C105.162 26.3711 106.441 28.6843 109.448 28.6843C110.877 28.6072 112.005 28.1446 112.832 27.4506ZM133.735 20.4337V31.0747H130.276V21.0506C130.276 18.506 129.449 17.3494 126.065 17.3494C125.238 17.3494 124.336 17.4265 123.359 17.5807V31.0747H119.975V15.1904C122.156 14.6506 124.562 14.2651 126.141 14.2651C131.855 14.3422 133.735 16.5783 133.735 20.4337ZM150.954 8.86747V31.0747H147.796L147.645 29.0699C146.743 30.5349 145.465 31.4602 143.209 31.4602C139.149 31.4602 136.367 28.3759 136.367 23.0554C136.367 17.5036 139.299 14.2651 145.014 14.2651C145.916 14.2651 146.743 14.3422 147.57 14.4964V9.25301C148.623 8.94458 149.826 8.86747 150.954 8.86747ZM147.57 27.4506V17.6578C146.668 17.5036 145.766 17.3494 144.863 17.3494C141.48 17.3494 139.901 19.5084 139.901 23.1325C139.901 26.3711 141.179 28.6843 144.187 28.6843C145.54 28.6072 146.668 28.1446 147.57 27.4506ZM168.097 24.2892H157.195C157.646 27.1422 159.225 28.453 162.308 28.453C164.188 28.453 166.067 28.0675 167.721 27.2193C167.571 28.1446 167.421 29.3783 167.195 30.3807C165.616 31.0747 164.037 31.3831 162.157 31.3831C156.443 31.3831 153.736 28.1446 153.736 22.747C153.736 18.0434 155.841 14.2651 161.255 14.2651C166.142 14.2651 168.248 17.5036 168.248 21.5133C168.248 22.5928 168.248 23.3639 168.097 24.2892ZM157.195 21.359H164.864C164.864 18.7373 163.511 17.1952 161.18 17.1952C158.699 17.2723 157.42 18.6602 157.195 21.359ZM180.053 14.4964C180.053 15.5759 179.902 16.8096 179.752 17.5036C178.925 17.4265 178.173 17.3494 177.196 17.3494C176.368 17.3494 175.541 17.4265 174.714 17.5036V31.0747H171.331V15.1904C172.759 14.6506 175.241 14.2651 177.12 14.2651C178.098 14.3422 179.301 14.3422 180.053 14.4964Z" fill="#EA1D25"/>
</g>
<defs>
<clipPath id="clip0_201_30">
<rect width="181" height="32" fill="white"/>
</clipPath>
</defs>
</svg>
