<svg width="123" height="40" viewBox="0 0 123 40" fill="none" xmlns="http://www.w3.org/2000/svg">
<g clip-path="url(#clip0_201_23)">
<path d="M15.0924 0.00354004H16.1822C19.9656 0.0857877 23.6873 1.60737 26.3604 4.30098C25.3734 5.30851 24.3659 6.27493 23.3995 7.28246C21.8984 5.92537 20.089 4.87671 18.115 4.5066C15.1952 3.88974 12.0493 4.44491 9.6024 6.11043C6.92935 7.85819 5.11991 10.8191 4.72923 13.9856C4.29743 17.1111 5.18159 20.401 7.21722 22.8273C9.1706 25.1919 12.1521 26.6723 15.2364 26.7752C18.115 26.9397 21.1171 26.0555 23.2144 24.0404C24.8593 22.6216 25.6201 20.4626 25.8669 18.3653C22.4536 18.3653 19.0403 18.3859 15.627 18.3653V14.1296H29.9998C30.7401 18.6738 29.6708 23.7937 26.2164 27.0425C23.9135 29.3454 20.7264 30.7025 17.4776 30.9698C14.3316 31.2782 11.0829 30.6819 8.28644 29.1603C4.93485 27.3715 2.2618 24.3489 0.945836 20.7916C-0.287879 17.5223 -0.308441 13.8211 0.843027 10.5312C1.89168 7.5292 3.90675 4.87671 6.49755 3.02614C8.98555 1.19613 12.0081 0.188597 15.0924 0.00354004Z" fill="#3780FF"/>
<path d="M97.5457 1.07275H101.946V30.4352C100.486 30.4352 99.0056 30.4557 97.5457 30.4146C97.5662 20.6477 97.5457 10.8602 97.5457 1.07275Z" fill="#38B137"/>
<path d="M39.7873 11.2509C42.5015 10.7369 45.4418 11.3126 47.6831 12.937C49.7187 14.3763 51.1375 16.6381 51.5693 19.1056C52.1245 21.9637 51.4254 25.0891 49.5748 27.3509C47.5803 29.88 44.3109 31.2371 41.1238 31.0315C38.2041 30.867 35.3665 29.4071 33.6393 27.0219C31.6859 24.39 31.213 20.7711 32.2822 17.6868C33.3514 14.3763 36.374 11.8472 39.7873 11.2509ZM40.4042 15.1577C39.2938 15.4455 38.2657 16.083 37.5255 16.9877C35.531 19.3729 35.6544 23.2591 37.8545 25.4798C39.1088 26.7546 41.0005 27.3509 42.7482 27.0013C44.3726 26.7135 45.7914 25.6237 46.5728 24.1844C47.9298 21.7375 47.5392 18.3653 45.4624 16.4531C44.1259 15.2194 42.1725 14.7053 40.4042 15.1577Z" fill="#FA3913"/>
<path d="M61.583 11.2509C64.6878 10.6546 68.0806 11.5182 70.404 13.6978C74.1874 17.0905 74.5987 23.4441 71.3705 27.3509C69.4171 29.8183 66.2505 31.1754 63.1251 31.0315C60.1437 30.9492 57.2033 29.4688 55.435 27.0219C53.4405 24.3283 53.0087 20.6271 54.1396 17.4812C55.2705 14.2735 58.2314 11.8266 61.583 11.2509ZM62.1998 15.1577C61.0895 15.4455 60.0614 16.0829 59.3212 16.9671C57.3472 19.3112 57.4295 23.1357 59.5474 25.3769C60.8016 26.7135 62.755 27.3714 64.5645 27.0013C66.1683 26.6929 67.6076 25.6237 68.389 24.1843C69.7255 21.7169 69.3348 18.3448 67.2375 16.4325C65.901 15.1988 63.9476 14.7053 62.1998 15.1577Z" fill="#FCBD06"/>
<path d="M80.0681 12.4435C82.4327 10.963 85.5787 10.5518 88.1284 11.8266C88.9303 12.1762 89.5883 12.7725 90.2257 13.3688C90.2463 12.8136 90.2257 12.2379 90.2463 11.6621C91.6239 11.6827 93.0016 11.6621 94.3998 11.6827V29.8183C94.3792 32.553 93.6801 35.4523 91.7062 37.4468C89.5472 39.6469 86.2367 40.3254 83.2552 39.8731C80.0681 39.4002 77.2923 37.0767 76.0585 34.1363C77.2923 33.54 78.5877 33.0671 79.8625 32.5119C80.5822 34.198 82.0421 35.6373 83.8721 35.9663C85.7021 36.2953 87.82 35.843 89.0126 34.3214C90.2874 32.7587 90.2874 30.6202 90.2257 28.708C89.2799 29.6333 88.1901 30.4557 86.8741 30.7642C84.016 31.5661 80.87 30.5791 78.6699 28.6463C76.4492 26.7135 75.1333 23.732 75.2566 20.7711C75.3183 17.4195 77.21 14.1913 80.0681 12.4435ZM84.3244 15.0754C83.0702 15.281 81.8981 15.9801 81.0962 16.9465C79.1634 19.2495 79.1634 22.9301 81.1168 25.1919C82.2271 26.5284 84.016 27.2686 85.7432 27.0836C87.3676 26.9191 88.8686 25.891 89.6705 24.4722C91.0276 22.0665 90.8014 18.7971 88.9714 16.6998C87.8405 15.4044 86.0311 14.767 84.3244 15.0754Z" fill="#3780FF"/>
<path d="M107.23 13.4922C109.698 11.1892 113.502 10.4079 116.668 11.621C119.67 12.7519 121.583 15.61 122.549 18.5504C118.087 20.401 113.646 22.231 109.184 24.0816C109.801 25.2536 110.746 26.3228 112.021 26.7546C113.81 27.392 115.949 27.1658 117.45 25.9732C118.046 25.5209 118.519 24.9246 118.971 24.3489C120.102 25.1096 121.233 25.8499 122.364 26.6107C120.76 29.0164 118.067 30.7025 115.167 30.9698C111.96 31.3605 108.546 30.1268 106.47 27.6182C103.056 23.6703 103.385 17.0494 107.23 13.4922ZM109.431 17.2961C108.731 18.3037 108.444 19.5374 108.464 20.7505C111.446 19.5168 114.427 18.2831 117.409 17.0288C116.915 15.8773 115.722 15.1782 114.509 14.9932C112.556 14.6436 110.52 15.6923 109.431 17.2961Z" fill="#FA3913"/>
</g>
<defs>
<clipPath id="clip0_201_23">
<rect width="122.549" height="40" fill="white"/>
</clipPath>
</defs>
</svg>
