<svg width="292" height="281" viewBox="0 0 292 281" fill="none" xmlns="http://www.w3.org/2000/svg">
<path opacity="0.04" d="M201.718 119.758C310.337 159.815 146.194 280.125 129.781 200.809C121.616 161.343 45.1102 185.75 47.4102 145.038C49.7101 104.325 84.1552 107.837 118.355 87.8866C160.957 62.8152 172.958 109.153 201.718 119.758Z" stroke="url(#paint0_linear_133_2118)" stroke-width="1.37" stroke-miterlimit="10"/>
<path opacity="0.07" d="M202.558 117.718C304.46 159.738 151.586 278.019 129.815 202.585C119.085 165.404 43.8133 181.318 48.4132 141.957C52.9732 102.627 86.4835 102.975 119.948 86.5044C161.675 65.9644 174.799 106.272 202.558 117.718Z" stroke="url(#paint1_linear_133_2118)" stroke-width="1.37" stroke-miterlimit="10"/>
<path opacity="0.11" d="M203.402 115.677C298.56 159.464 157.069 275.998 129.849 204.36C116.605 169.505 42.5135 176.878 49.4162 138.873C56.242 100.911 88.7462 98.0498 121.521 85.1222C162.336 69.0311 176.617 103.354 203.402 115.677Z" stroke="url(#paint2_linear_133_2118)" stroke-width="1.37" stroke-miterlimit="10"/>
<path opacity="0.15" d="M204.242 113.645C292.655 158.96 162.672 274.054 129.883 206.145C114.185 173.623 41.2168 172.435 50.4166 135.792C59.5223 99.2041 90.9949 93.1251 123.109 83.74C162.972 72.0949 178.407 100.393 204.242 113.645Z" stroke="url(#paint3_linear_133_2118)" stroke-width="1.37" stroke-miterlimit="10"/>
<path opacity="0.19" d="M205.083 111.599C286.764 158.222 168.41 272.125 129.917 207.912C111.84 177.77 39.9173 167.995 51.4199 132.712C62.8 97.4941 93.2266 88.1917 124.693 82.3578C163.585 75.1501 180.18 97.383 205.083 111.599Z" stroke="url(#paint4_linear_133_2118)" stroke-width="1.37" stroke-miterlimit="10"/>
<path opacity="0.23" d="M205.924 109.558C280.916 157.219 174.289 270.198 129.951 209.687C109.568 181.877 38.6203 163.554 52.4314 129.628C66.0857 95.7841 95.4464 83.2441 126.283 80.9755C164.177 78.1882 181.944 94.3192 205.924 109.558Z" stroke="url(#paint5_linear_133_2118)" stroke-width="1.37" stroke-miterlimit="10"/>
<path opacity="0.26" d="M206.765 107.517C275.142 155.947 180.337 268.217 129.986 211.463C107.371 185.975 37.3237 159.114 53.4262 126.533C69.3577 94.0597 97.6354 78.265 127.857 79.5789C164.753 81.2005 183.708 91.1898 206.765 107.517Z" stroke="url(#paint6_linear_133_2118)" stroke-width="1.37" stroke-miterlimit="10"/>
<path opacity="0.3" d="M207.605 105.477C269.476 154.406 186.515 266.143 130.02 213.241C105.245 190.025 36.0238 154.685 54.4263 123.466C72.6349 92.3669 99.8296 73.2861 129.438 78.2109C165.323 84.1817 185.492 87.995 207.605 105.477Z" stroke="url(#paint7_linear_133_2118)" stroke-width="1.37" stroke-miterlimit="10"/>
<path opacity="0.34" d="M208.446 103.439C263.95 152.61 192.771 263.937 130.054 215.017C103.136 194.015 34.7272 150.231 55.4296 120.382C75.9125 90.657 102.024 68.2674 131.02 76.8288C165.896 87.1401 187.308 84.7119 208.446 103.439Z" stroke="url(#paint8_linear_133_2118)" stroke-width="1.37" stroke-miterlimit="10"/>
<path opacity="0.38" d="M209.287 101.39C258.592 150.57 199.107 261.577 130.088 216.784C101.064 197.956 33.4249 145.79 56.4329 117.301C79.193 88.9468 104.236 63.2227 132.605 75.4549C166.486 90.0469 189.189 81.3516 209.287 101.39Z" stroke="url(#paint9_linear_133_2118)" stroke-width="1.37" stroke-miterlimit="10"/>
<path opacity="0.41" d="M210.125 99.3579C253.459 148.347 205.457 259.08 130.117 218.568C98.9951 201.833 32.1255 141.35 57.4421 114.221C82.4765 87.2369 106.462 58.1612 134.19 74.0642C167.09 92.9454 191.156 77.9088 210.125 99.3579Z" stroke="url(#paint10_linear_133_2118)" stroke-width="1.37" stroke-miterlimit="10"/>
<path opacity="0.45" d="M210.98 97.3203C248.568 145.973 211.809 256.43 130.157 220.343C96.9255 205.654 30.834 136.907 58.4363 111.137C85.7478 85.5298 108.716 53.0911 135.768 72.682C167.737 95.8326 193.247 74.3863 210.98 97.3203Z" stroke="url(#paint11_linear_133_2118)" stroke-width="1.37" stroke-miterlimit="10"/>
<path opacity="0.49" d="M211.812 95.2796C243.94 143.516 218.122 253.668 130.191 222.119C94.8308 209.434 29.5344 132.455 59.4394 108.056C89.0281 83.8312 110.987 48.0209 137.35 71.2912C168.401 98.7196 195.498 70.7896 211.812 95.2796Z" stroke="url(#paint12_linear_133_2118)" stroke-width="1.37" stroke-miterlimit="10"/>
<path opacity="0.53" d="M212.653 93.2389C239.599 141.065 224.375 250.804 130.225 223.894C92.7048 213.175 28.2377 128.026 60.4427 104.972C92.3057 82.1097 113.279 42.9507 138.932 69.9174C169.085 101.612 197.947 67.1386 212.653 93.2389Z" stroke="url(#paint13_linear_133_2118)" stroke-width="1.37" stroke-miterlimit="10"/>
<path opacity="0.56" d="M213.494 91.1983C235.544 138.705 230.577 247.863 130.26 225.67C90.559 216.889 26.9413 123.583 61.4463 101.892C95.5836 80.4025 115.596 37.8919 140.514 68.5465C169.786 104.525 200.62 63.4678 213.494 91.1983Z" stroke="url(#paint14_linear_133_2118)" stroke-width="1.37" stroke-miterlimit="10"/>
<path opacity="0.6" d="M214.334 89.1606C231.765 136.533 236.709 244.87 130.29 227.445C88.3784 220.585 25.6413 119.145 62.4605 98.8107C98.8635 78.6925 117.896 32.8389 142.095 67.1529C170.51 107.426 203.535 59.8113 214.334 89.1606Z" stroke="url(#paint15_linear_133_2118)" stroke-width="1.37" stroke-miterlimit="10"/>
<path d="M157.4 231.407C79.6834 389.42 -17.9149 107.307 84.9074 110.567C136.398 112.197 118.868 -7.9588 169.239 1.811C219.61 11.5808 201.509 61.376 219.932 117.29C242.948 187.115 177.49 190.575 157.4 231.407Z" stroke="url(#paint16_linear_133_2118)" stroke-width="1.37" stroke-miterlimit="10"/>
<g style="mix-blend-mode:hard-light" opacity="0.94">
<path d="M159.612 233.097C81.0714 381.166 -16.8461 115.535 82.7785 110.202C132.274 107.555 124.554 -8.80521 172.65 3.97704C220.747 16.7593 206.868 65.7935 221.149 119.915C239.209 187.343 180.345 194.015 159.612 233.097Z" stroke="url(#paint17_linear_133_2118)" stroke-width="1.37" stroke-miterlimit="10"/>
</g>
<g style="mix-blend-mode:hard-light" opacity="0.88">
<path d="M161.817 234.787C82.6558 372.901 -15.957 123.848 80.6437 109.84C128.068 102.963 130.234 -9.65175 176.059 6.14295C221.864 21.875 212.029 70.2451 222.36 122.511C235.231 187.622 183.238 197.415 161.817 234.787Z" stroke="url(#paint18_linear_133_2118)" stroke-width="1.37" stroke-miterlimit="10"/>
</g>
<g style="mix-blend-mode:hard-light" opacity="0.81">
<path d="M164.024 236.48C84.4687 364.636 -15.2272 132.301 78.5065 109.478C123.796 98.4487 135.914 -10.5068 179.468 8.3032C222.993 27.0049 217.29 74.6569 223.571 125.122C231.378 187.85 186.185 200.795 164.024 236.48Z" stroke="url(#paint19_linear_133_2118)" stroke-width="1.37" stroke-miterlimit="10"/>
</g>
<g style="mix-blend-mode:hard-light" opacity="0.75">
<path d="M166.235 238.17C86.5288 356.397 -14.612 140.939 76.3714 109.113C119.475 94.037 141.594 -11.3446 182.873 10.475C224.118 32.135 222.559 79.0517 224.768 127.73C227.535 188.056 189.157 204.155 166.235 238.17Z" stroke="url(#paint20_linear_133_2118)" stroke-width="1.37" stroke-miterlimit="10"/>
</g>
<g style="mix-blend-mode:hard-light" opacity="0.69">
<path d="M168.432 239.86C88.8685 348.203 -14.0507 149.8 74.2366 108.76C115.137 89.7364 147.274 -12.191 186.282 12.6411C225.244 37.2822 227.84 83.4322 225.991 130.346C223.708 188.244 192.201 207.496 168.432 239.86Z" stroke="url(#paint21_linear_133_2118)" stroke-width="1.37" stroke-miterlimit="10"/>
</g>
<g style="mix-blend-mode:hard-light" opacity="0.63">
<path d="M170.638 241.55C91.5081 340.089 -13.4717 158.874 72.1024 108.387C110.811 85.5497 152.954 -13.0375 189.691 14.807C226.37 42.4206 233.142 87.7955 227.202 132.951C219.906 188.418 195.305 210.83 170.638 241.55Z" stroke="url(#paint22_linear_133_2118)" stroke-width="1.37" stroke-miterlimit="10"/>
</g>
<g style="mix-blend-mode:hard-light" opacity="0.56">
<path d="M172.844 243.24C94.469 332.089 -12.8107 168.168 69.959 108.025C106.516 81.4628 158.625 -13.884 193.079 16.973C227.51 47.562 238.465 92.1531 228.413 135.561C216.136 188.577 198.491 214.17 172.844 243.24Z" stroke="url(#paint23_linear_133_2118)" stroke-width="1.37" stroke-miterlimit="10"/>
</g>
<g style="mix-blend-mode:hard-light" opacity="0.5">
<path d="M175.05 244.93C97.7436 324.26 -12.0099 177.636 67.83 107.66C102.315 77.45 164.314 -14.7332 196.505 19.1362C228.621 52.7006 243.815 96.5051 229.624 138.166C212.405 188.74 201.757 217.53 175.05 244.93Z" stroke="url(#paint24_linear_133_2118)" stroke-width="1.37" stroke-miterlimit="10"/>
</g>
<g style="mix-blend-mode:hard-light" opacity="0.44">
<path d="M177.256 246.623C101.346 316.616 -11.0351 187.235 65.6955 107.298C98.1484 73.4913 169.994 -15.5769 199.913 21.3049C229.747 57.8419 249.196 100.871 230.836 140.78C208.7 188.908 205.115 220.936 177.256 246.623Z" stroke="url(#paint25_linear_133_2118)" stroke-width="1.37" stroke-miterlimit="10"/>
</g>
<g style="mix-blend-mode:hard-light" opacity="0.38">
<path d="M179.462 248.313C105.245 309.235 -9.87774 196.908 63.5611 106.936C94.0703 69.5584 175.674 -16.4233 203.319 23.471C230.873 62.9834 254.599 105.249 232.045 143.39C205.018 189.093 208.569 224.416 179.462 248.313Z" stroke="url(#paint26_linear_133_2118)" stroke-width="1.37" stroke-miterlimit="10"/>
</g>
<g style="mix-blend-mode:hard-light" opacity="0.31">
<path d="M181.668 250.003C109.426 302.158 -8.54148 206.612 61.426 106.571C90.06 65.631 181.354 -17.2698 206.728 25.6312C231.999 68.1162 260.023 109.644 233.255 145.995C201.364 189.307 212.12 228.015 181.668 250.003Z" stroke="url(#paint27_linear_133_2118)" stroke-width="1.37" stroke-miterlimit="10"/>
</g>
<g style="mix-blend-mode:hard-light" opacity="0.25">
<path d="M183.874 251.693C113.795 295.438 -7.04513 216.313 59.2915 106.209C86.11 61.6952 187.04 -18.1163 210.125 27.8029C233.113 73.2633 265.446 114.075 234.455 148.612C197.725 189.552 215.776 231.777 183.874 251.693Z" stroke="url(#paint28_linear_133_2118)" stroke-width="1.37" stroke-miterlimit="10"/>
</g>
<g style="mix-blend-mode:hard-light" opacity="0.19">
<path d="M186.079 253.383C118.292 289.111 -5.41788 225.983 57.1539 105.847C82.2111 57.7394 192.714 -18.9626 213.545 29.969C234.253 78.4019 270.898 118.527 235.681 151.219C194.088 189.826 219.53 235.762 186.079 253.383Z" stroke="url(#paint29_linear_133_2118)" stroke-width="1.37" stroke-miterlimit="10"/>
</g>
<g style="mix-blend-mode:hard-light" opacity="0.13">
<path d="M188.285 255.073C122.775 283.22 -3.67921 235.605 55.0194 105.483C78.3523 53.7579 198.394 -19.8091 216.965 32.135C235.39 83.5433 276.345 123.002 236.915 153.83C190.46 190.128 223.312 240.034 188.285 255.073Z" stroke="url(#paint30_linear_133_2118)" stroke-width="1.37" stroke-miterlimit="10"/>
</g>
<g style="mix-blend-mode:hard-light" opacity="0.06">
<path d="M190.491 256.766C127.102 277.737 -1.85509 245.17 52.8849 105.121C74.5278 49.7479 204.075 -20.6556 220.359 34.3009C236.502 88.6818 281.76 127.496 238.098 156.441C186.798 190.45 227.117 244.648 190.491 256.766Z" stroke="url(#paint31_linear_133_2118)" stroke-width="1.37" stroke-miterlimit="10"/>
</g>
<path opacity="0.03" d="M70.3609 192.923C-100.765 172.603 102.7 -46.5706 150.871 57.7451C174.831 109.629 279.277 51.23 288.318 108.23C297.358 165.23 245.898 171.5 201.965 210.078C147.317 258.453 115.63 198.29 70.3609 192.923Z" stroke="url(#paint32_linear_133_2118)" stroke-width="1.37" stroke-miterlimit="10"/>
<path opacity="0.05" d="M69.754 196.01C-92.24 170.779 95.4354 -41.965 150.281 55.2998C177.285 103.18 282.521 56.9528 287.79 112.819C293.117 168.633 243.997 178.939 200.073 212.494C145.31 254.327 113.795 202.87 69.754 196.01Z" stroke="url(#paint33_linear_133_2118)" stroke-width="1.37" stroke-miterlimit="10"/>
<path opacity="0.07" d="M69.1441 199.102C-83.6131 169.22 87.9997 -37.4307 149.705 52.8601C179.664 96.7131 285.795 62.6727 287.277 117.404C288.845 172.07 242.19 186.482 198.181 214.917C143.435 250.302 111.988 207.481 69.1441 199.102Z" stroke="url(#paint34_linear_133_2118)" stroke-width="1.37" stroke-miterlimit="10"/>
<path opacity="0.1" d="M68.5366 202.192C-74.9067 167.972 80.3641 -32.9618 149.098 50.4178C181.91 90.2237 289.033 68.3899 286.736 121.984C284.57 175.473 240.406 194.015 196.288 217.339C141.559 246.275 110.238 212.141 68.5366 202.192Z" stroke="url(#paint35_linear_133_2118)" stroke-width="1.37" stroke-miterlimit="10"/>
<path opacity="0.13" d="M67.9273 205.281C-66.1367 167.051 72.5101 -28.4875 148.508 47.9752C184.062 83.7484 292.282 74.1068 286.22 126.567C280.306 178.893 238.657 201.55 194.407 219.762C139.73 242.254 108.531 216.86 67.9273 205.281Z" stroke="url(#paint36_linear_133_2118)" stroke-width="1.37" stroke-miterlimit="10"/>
<path opacity="0.15" d="M67.3168 208.37C-57.3394 166.501 64.4411 -23.9387 147.918 45.53C186.108 77.3132 295.531 79.8241 285.681 131.144C276.022 182.31 236.915 209.1 192.503 222.179C137.931 238.25 106.858 221.66 67.3168 208.37Z" stroke="url(#paint37_linear_133_2118)" stroke-width="1.37" stroke-miterlimit="10"/>
<path opacity="0.18" d="M66.7103 211.46C-48.5437 166.344 56.1824 -19.2534 147.325 43.0903C188.058 70.9519 298.783 85.5553 285.154 135.73C271.759 185.73 235.202 216.67 190.611 224.598C136.162 234.277 105.205 226.531 66.7103 211.46Z" stroke="url(#paint38_linear_133_2118)" stroke-width="1.37" stroke-miterlimit="10"/>
<path opacity="0.2" d="M66.1004 214.549C-39.8028 166.595 47.7777 -14.3771 146.735 40.6478C189.944 64.6733 302.035 91.261 284.627 140.31C267.476 189.147 233.495 224.276 188.719 227.018C134.409 230.344 103.555 231.509 66.1004 214.549Z" stroke="url(#paint39_linear_133_2118)" stroke-width="1.37" stroke-miterlimit="10"/>
<path opacity="0.23" d="M65.4933 217.639C-31.1616 167.262 39.2733 -9.27846 146.148 38.2054C191.8 58.4917 305.287 96.9781 284.103 144.889C263.201 192.567 231.816 231.92 186.826 229.438C132.665 226.454 101.885 236.608 65.4933 217.639Z" stroke="url(#paint40_linear_133_2118)" stroke-width="1.37" stroke-miterlimit="10"/>
<path opacity="0.25" d="M64.8832 220.728C-22.6859 168.328 30.763 -3.95171 145.555 35.763C193.638 52.3985 308.535 102.695 283.572 149.478C258.928 195.99 230.118 239.601 184.934 231.863C130.909 222.606 100.163 241.841 64.8832 220.728Z" stroke="url(#paint41_linear_133_2118)" stroke-width="1.37" stroke-miterlimit="10"/>
<path opacity="0.28" d="M64.2762 223.817C-14.4351 169.756 22.2644 1.58581 144.963 33.3206C195.496 46.3907 311.787 108.412 283.045 154.052C254.653 199.404 228.399 247.31 183.05 234.277C129.128 218.81 98.3508 247.224 64.2762 223.817Z" stroke="url(#paint42_linear_133_2118)" stroke-width="1.37" stroke-miterlimit="10"/>
<path opacity="0.3" d="M63.6662 226.907C-6.47511 171.5 13.8311 7.31144 144.373 30.8781C197.383 40.4484 315.036 114.129 282.518 158.635C250.381 202.821 226.655 255.033 181.146 236.699C127.318 215.011 96.3928 252.765 63.6662 226.907Z" stroke="url(#paint43_linear_133_2118)" stroke-width="1.37" stroke-miterlimit="10"/>
<path opacity="0.33" d="M63.065 229.996C1.13164 173.449 5.49498 13.1853 143.783 28.43C199.318 34.5518 318.288 119.841 281.991 163.209C246.106 206.244 224.879 262.768 179.254 239.113C125.48 211.235 94.2354 258.468 63.065 229.996Z" stroke="url(#paint44_linear_133_2118)" stroke-width="1.37" stroke-miterlimit="10"/>
<path opacity="0.35" d="M62.4493 233.086C8.32496 175.516 -2.75299 19.1732 143.19 25.9932C201.29 28.715 321.537 125.564 281.466 167.795C241.834 209.659 223.081 270.515 177.35 241.539C123.599 207.461 91.8157 264.322 62.4493 233.086Z" stroke="url(#paint45_linear_133_2118)" stroke-width="1.37" stroke-miterlimit="10"/>
<path opacity="0.38" d="M61.8394 236.175C15.0595 177.565 -10.8898 25.2352 142.6 23.5651C203.322 22.8982 324.789 131.295 280.939 172.392C237.559 213.093 221.26 278.27 175.469 243.973C121.698 203.682 89.074 270.295 61.8394 236.175Z" stroke="url(#paint46_linear_133_2118)" stroke-width="1.37" stroke-miterlimit="10"/>
<path opacity="0.4" d="M61.2325 239.267C21.3125 179.434 -18.9238 31.3483 142.01 21.1082C205.391 17.0726 328.041 137.015 280.412 176.96C233.284 216.496 219.422 285.984 173.577 246.378C119.78 199.894 85.9648 276.334 61.2325 239.267Z" stroke="url(#paint47_linear_133_2118)" stroke-width="1.37" stroke-miterlimit="10"/>
<defs>
<linearGradient id="paint0_linear_133_2118" x1="47.3594" y1="80.5463" x2="232.326" y2="234.835" gradientUnits="userSpaceOnUse">
<stop stop-color="#1813BF"/>
<stop offset="0.463542" stop-color="#954DC8"/>
<stop offset="1" stop-color="#FF8153"/>
</linearGradient>
<linearGradient id="paint1_linear_133_2118" x1="48.2109" y1="80.7637" x2="232.443" y2="232.999" gradientUnits="userSpaceOnUse">
<stop stop-color="#1813BF"/>
<stop offset="0.463542" stop-color="#954DC8"/>
<stop offset="1" stop-color="#FF8153"/>
</linearGradient>
<linearGradient id="paint2_linear_133_2118" x1="48.9634" y1="80.9092" x2="232.578" y2="231.157" gradientUnits="userSpaceOnUse">
<stop stop-color="#1813BF"/>
<stop offset="0.463542" stop-color="#954DC8"/>
<stop offset="1" stop-color="#FF8153"/>
</linearGradient>
<linearGradient id="paint3_linear_133_2118" x1="49.6177" y1="80.991" x2="232.725" y2="229.325" gradientUnits="userSpaceOnUse">
<stop stop-color="#1813BF"/>
<stop offset="0.463542" stop-color="#954DC8"/>
<stop offset="1" stop-color="#FF8153"/>
</linearGradient>
<linearGradient id="paint4_linear_133_2118" x1="50.1812" y1="80.9561" x2="232.913" y2="227.451" gradientUnits="userSpaceOnUse">
<stop stop-color="#1813BF"/>
<stop offset="0.463542" stop-color="#954DC8"/>
<stop offset="1" stop-color="#FF8153"/>
</linearGradient>
<linearGradient id="paint5_linear_133_2118" x1="50.6621" y1="80.6591" x2="233.3" y2="225.356" gradientUnits="userSpaceOnUse">
<stop stop-color="#1813BF"/>
<stop offset="0.463542" stop-color="#954DC8"/>
<stop offset="1" stop-color="#FF8153"/>
</linearGradient>
<linearGradient id="paint6_linear_133_2118" x1="51.0459" y1="79.5032" x2="234.415" y2="222.335" gradientUnits="userSpaceOnUse">
<stop stop-color="#1813BF"/>
<stop offset="0.463542" stop-color="#954DC8"/>
<stop offset="1" stop-color="#FF8153"/>
</linearGradient>
<linearGradient id="paint7_linear_133_2118" x1="51.353" y1="77.4397" x2="236.264" y2="218.296" gradientUnits="userSpaceOnUse">
<stop stop-color="#1813BF"/>
<stop offset="0.463542" stop-color="#954DC8"/>
<stop offset="1" stop-color="#FF8153"/>
</linearGradient>
<linearGradient id="paint8_linear_133_2118" x1="51.5859" y1="74.9846" x2="238.328" y2="213.869" gradientUnits="userSpaceOnUse">
<stop stop-color="#1813BF"/>
<stop offset="0.463542" stop-color="#954DC8"/>
<stop offset="1" stop-color="#FF8153"/>
</linearGradient>
<linearGradient id="paint9_linear_133_2118" x1="51.7446" y1="72.3309" x2="240.427" y2="209.308" gradientUnits="userSpaceOnUse">
<stop stop-color="#1813BF"/>
<stop offset="0.463542" stop-color="#954DC8"/>
<stop offset="1" stop-color="#FF8153"/>
</linearGradient>
<linearGradient id="paint10_linear_133_2118" x1="51.8374" y1="69.5424" x2="242.553" y2="204.694" gradientUnits="userSpaceOnUse">
<stop stop-color="#1813BF"/>
<stop offset="0.463542" stop-color="#954DC8"/>
<stop offset="1" stop-color="#FF8153"/>
</linearGradient>
<linearGradient id="paint11_linear_133_2118" x1="51.8569" y1="66.676" x2="244.664" y2="200.132" gradientUnits="userSpaceOnUse">
<stop stop-color="#1813BF"/>
<stop offset="0.463542" stop-color="#954DC8"/>
<stop offset="1" stop-color="#FF8153"/>
</linearGradient>
<linearGradient id="paint12_linear_133_2118" x1="51.8135" y1="63.7505" x2="246.787" y2="195.621" gradientUnits="userSpaceOnUse">
<stop stop-color="#1813BF"/>
<stop offset="0.463542" stop-color="#954DC8"/>
<stop offset="1" stop-color="#FF8153"/>
</linearGradient>
<linearGradient id="paint13_linear_133_2118" x1="51.7075" y1="60.7885" x2="248.943" y2="191.218" gradientUnits="userSpaceOnUse">
<stop stop-color="#1813BF"/>
<stop offset="0.463542" stop-color="#954DC8"/>
<stop offset="1" stop-color="#FF8153"/>
</linearGradient>
<linearGradient id="paint14_linear_133_2118" x1="51.5415" y1="57.8024" x2="251.158" y2="186.941" gradientUnits="userSpaceOnUse">
<stop stop-color="#1813BF"/>
<stop offset="0.463542" stop-color="#954DC8"/>
<stop offset="1" stop-color="#FF8153"/>
</linearGradient>
<linearGradient id="paint15_linear_133_2118" x1="51.3198" y1="54.7839" x2="253.469" y2="182.781" gradientUnits="userSpaceOnUse">
<stop stop-color="#1813BF"/>
<stop offset="0.463542" stop-color="#954DC8"/>
<stop offset="1" stop-color="#FF8153"/>
</linearGradient>
<linearGradient id="paint16_linear_133_2118" x1="40.5005" y1="1.24585" x2="296.69" y2="109.822" gradientUnits="userSpaceOnUse">
<stop stop-color="#1813BF"/>
<stop offset="0.463542" stop-color="#954DC8"/>
<stop offset="1" stop-color="#FF8153"/>
</linearGradient>
<linearGradient id="paint17_linear_133_2118" x1="40.5937" y1="2.99646" x2="295.53" y2="112.16" gradientUnits="userSpaceOnUse">
<stop stop-color="#1813BF"/>
<stop offset="0.463542" stop-color="#954DC8"/>
<stop offset="1" stop-color="#FF8153"/>
</linearGradient>
<linearGradient id="paint18_linear_133_2118" x1="40.6064" y1="4.62622" x2="294.443" y2="114.493" gradientUnits="userSpaceOnUse">
<stop stop-color="#1813BF"/>
<stop offset="0.463542" stop-color="#954DC8"/>
<stop offset="1" stop-color="#FF8153"/>
</linearGradient>
<linearGradient id="paint19_linear_133_2118" x1="40.5503" y1="6.1261" x2="293.609" y2="116.985" gradientUnits="userSpaceOnUse">
<stop stop-color="#1813BF"/>
<stop offset="0.463542" stop-color="#954DC8"/>
<stop offset="1" stop-color="#FF8153"/>
</linearGradient>
<linearGradient id="paint20_linear_133_2118" x1="40.4448" y1="7.51282" x2="293.116" y2="119.745" gradientUnits="userSpaceOnUse">
<stop stop-color="#1813BF"/>
<stop offset="0.463542" stop-color="#954DC8"/>
<stop offset="1" stop-color="#FF8153"/>
</linearGradient>
<linearGradient id="paint21_linear_133_2118" x1="40.3149" y1="8.76685" x2="293.602" y2="123.446" gradientUnits="userSpaceOnUse">
<stop stop-color="#1813BF"/>
<stop offset="0.463542" stop-color="#954DC8"/>
<stop offset="1" stop-color="#FF8153"/>
</linearGradient>
<linearGradient id="paint22_linear_133_2118" x1="40.1885" y1="9.89417" x2="295.108" y2="128.197" gradientUnits="userSpaceOnUse">
<stop stop-color="#1813BF"/>
<stop offset="0.463542" stop-color="#954DC8"/>
<stop offset="1" stop-color="#FF8153"/>
</linearGradient>
<linearGradient id="paint23_linear_133_2118" x1="40.0835" y1="10.8955" x2="296.732" y2="132.98" gradientUnits="userSpaceOnUse">
<stop stop-color="#1813BF"/>
<stop offset="0.463542" stop-color="#954DC8"/>
<stop offset="1" stop-color="#FF8153"/>
</linearGradient>
<linearGradient id="paint24_linear_133_2118" x1="40.0229" y1="11.7683" x2="298.386" y2="137.641" gradientUnits="userSpaceOnUse">
<stop stop-color="#1813BF"/>
<stop offset="0.463542" stop-color="#954DC8"/>
<stop offset="1" stop-color="#FF8153"/>
</linearGradient>
<linearGradient id="paint25_linear_133_2118" x1="40.0034" y1="12.5209" x2="300.056" y2="142.16" gradientUnits="userSpaceOnUse">
<stop stop-color="#1813BF"/>
<stop offset="0.463542" stop-color="#954DC8"/>
<stop offset="1" stop-color="#FF8153"/>
</linearGradient>
<linearGradient id="paint26_linear_133_2118" x1="40.0137" y1="13.1453" x2="301.742" y2="146.504" gradientUnits="userSpaceOnUse">
<stop stop-color="#1813BF"/>
<stop offset="0.463542" stop-color="#954DC8"/>
<stop offset="1" stop-color="#FF8153"/>
</linearGradient>
<linearGradient id="paint27_linear_133_2118" x1="40.0366" y1="13.6406" x2="303.455" y2="150.671" gradientUnits="userSpaceOnUse">
<stop stop-color="#1813BF"/>
<stop offset="0.463542" stop-color="#954DC8"/>
<stop offset="1" stop-color="#FF8153"/>
</linearGradient>
<linearGradient id="paint28_linear_133_2118" x1="40.042" y1="14.0164" x2="305.187" y2="154.676" gradientUnits="userSpaceOnUse">
<stop stop-color="#1813BF"/>
<stop offset="0.463542" stop-color="#954DC8"/>
<stop offset="1" stop-color="#FF8153"/>
</linearGradient>
<linearGradient id="paint29_linear_133_2118" x1="39.9995" y1="14.2637" x2="306.971" y2="158.562" gradientUnits="userSpaceOnUse">
<stop stop-color="#1813BF"/>
<stop offset="0.463542" stop-color="#954DC8"/>
<stop offset="1" stop-color="#FF8153"/>
</linearGradient>
<linearGradient id="paint30_linear_133_2118" x1="39.8838" y1="14.3862" x2="308.796" y2="162.324" gradientUnits="userSpaceOnUse">
<stop stop-color="#1813BF"/>
<stop offset="0.463542" stop-color="#954DC8"/>
<stop offset="1" stop-color="#FF8153"/>
</linearGradient>
<linearGradient id="paint31_linear_133_2118" x1="39.668" y1="14.3857" x2="310.63" y2="165.952" gradientUnits="userSpaceOnUse">
<stop stop-color="#1813BF"/>
<stop offset="0.463542" stop-color="#954DC8"/>
<stop offset="1" stop-color="#FF8153"/>
</linearGradient>
<linearGradient id="paint32_linear_133_2118" x1="3.05908" y1="29.7361" x2="257.204" y2="263.703" gradientUnits="userSpaceOnUse">
<stop stop-color="#1813BF"/>
<stop offset="0.463542" stop-color="#954DC8"/>
<stop offset="1" stop-color="#FF8153"/>
</linearGradient>
<linearGradient id="paint33_linear_133_2118" x1="5.27295" y1="29.9973" x2="258.789" y2="260.987" gradientUnits="userSpaceOnUse">
<stop stop-color="#1813BF"/>
<stop offset="0.463542" stop-color="#954DC8"/>
<stop offset="1" stop-color="#FF8153"/>
</linearGradient>
<linearGradient id="paint34_linear_133_2118" x1="7.4873" y1="30.1975" x2="260.503" y2="258.444" gradientUnits="userSpaceOnUse">
<stop stop-color="#1813BF"/>
<stop offset="0.463542" stop-color="#954DC8"/>
<stop offset="1" stop-color="#FF8153"/>
</linearGradient>
<linearGradient id="paint35_linear_133_2118" x1="9.68359" y1="30.328" x2="262.294" y2="256.116" gradientUnits="userSpaceOnUse">
<stop stop-color="#1813BF"/>
<stop offset="0.463542" stop-color="#954DC8"/>
<stop offset="1" stop-color="#FF8153"/>
</linearGradient>
<linearGradient id="paint36_linear_133_2118" x1="11.8452" y1="30.4037" x2="264.134" y2="253.955" gradientUnits="userSpaceOnUse">
<stop stop-color="#1813BF"/>
<stop offset="0.463542" stop-color="#954DC8"/>
<stop offset="1" stop-color="#FF8153"/>
</linearGradient>
<linearGradient id="paint37_linear_133_2118" x1="13.9487" y1="30.4325" x2="265.995" y2="251.911" gradientUnits="userSpaceOnUse">
<stop stop-color="#1813BF"/>
<stop offset="0.463542" stop-color="#954DC8"/>
<stop offset="1" stop-color="#FF8153"/>
</linearGradient>
<linearGradient id="paint38_linear_133_2118" x1="15.9775" y1="30.418" x2="267.879" y2="250.019" gradientUnits="userSpaceOnUse">
<stop stop-color="#1813BF"/>
<stop offset="0.463542" stop-color="#954DC8"/>
<stop offset="1" stop-color="#FF8153"/>
</linearGradient>
<linearGradient id="paint39_linear_133_2118" x1="17.9014" y1="30.3424" x2="269.821" y2="248.255" gradientUnits="userSpaceOnUse">
<stop stop-color="#1813BF"/>
<stop offset="0.463542" stop-color="#954DC8"/>
<stop offset="1" stop-color="#FF8153"/>
</linearGradient>
<linearGradient id="paint40_linear_133_2118" x1="19.6958" y1="30.1776" x2="272.135" y2="246.553" gradientUnits="userSpaceOnUse">
<stop stop-color="#1813BF"/>
<stop offset="0.463542" stop-color="#954DC8"/>
<stop offset="1" stop-color="#FF8153"/>
</linearGradient>
<linearGradient id="paint41_linear_133_2118" x1="21.3311" y1="29.8749" x2="277.285" y2="244.441" gradientUnits="userSpaceOnUse">
<stop stop-color="#1813BF"/>
<stop offset="0.463542" stop-color="#954DC8"/>
<stop offset="1" stop-color="#FF8153"/>
</linearGradient>
<linearGradient id="paint42_linear_133_2118" x1="22.7651" y1="29.3683" x2="282.846" y2="242.198" gradientUnits="userSpaceOnUse">
<stop stop-color="#1813BF"/>
<stop offset="0.463542" stop-color="#954DC8"/>
<stop offset="1" stop-color="#FF8153"/>
</linearGradient>
<linearGradient id="paint43_linear_133_2118" x1="23.9565" y1="28.5802" x2="288.659" y2="239.778" gradientUnits="userSpaceOnUse">
<stop stop-color="#1813BF"/>
<stop offset="0.463542" stop-color="#954DC8"/>
<stop offset="1" stop-color="#FF8153"/>
</linearGradient>
<linearGradient id="paint44_linear_133_2118" x1="24.8657" y1="27.4127" x2="294.651" y2="237.111" gradientUnits="userSpaceOnUse">
<stop stop-color="#1813BF"/>
<stop offset="0.463542" stop-color="#954DC8"/>
<stop offset="1" stop-color="#FF8153"/>
</linearGradient>
<linearGradient id="paint45_linear_133_2118" x1="25.439" y1="25.777" x2="300.79" y2="234.144" gradientUnits="userSpaceOnUse">
<stop stop-color="#1813BF"/>
<stop offset="0.463542" stop-color="#954DC8"/>
<stop offset="1" stop-color="#FF8153"/>
</linearGradient>
<linearGradient id="paint46_linear_133_2118" x1="25.6567" y1="23.562" x2="307.1" y2="230.758" gradientUnits="userSpaceOnUse">
<stop stop-color="#1813BF"/>
<stop offset="0.463542" stop-color="#954DC8"/>
<stop offset="1" stop-color="#FF8153"/>
</linearGradient>
<linearGradient id="paint47_linear_133_2118" x1="25.5059" y1="21.0088" x2="313.287" y2="227.29" gradientUnits="userSpaceOnUse">
<stop stop-color="#1813BF"/>
<stop offset="0.463542" stop-color="#954DC8"/>
<stop offset="1" stop-color="#FF8153"/>
</linearGradient>
</defs>
</svg>
