<svg width="151" height="151" viewBox="0 0 151 151" fill="none" xmlns="http://www.w3.org/2000/svg">
<g clip-path="url(#clip0_179_2984)">
<path d="M129.51 34.1282C129.859 32.66 130.034 31.154 130.034 29.6292C130.034 18.8975 121.303 10.1666 110.571 10.1666C102.786 10.1666 95.8264 14.8659 92.7633 21.7764C86.7813 12.752 76.7382 7.28772 65.7219 7.28772C52.7055 7.28772 40.925 15.1381 35.8499 27.0034C32.7769 25.7752 29.5281 25.1539 26.1678 25.1539C11.7387 25.1542 0 36.8929 0 51.322C0 57.0664 1.82725 62.5179 5.28389 67.0876C8.31021 71.0887 12.4914 74.1758 17.1766 75.8971C17.0196 76.8973 16.9403 77.9071 16.9403 78.9138C16.9403 89.6458 25.6713 98.3767 36.4033 98.3767C39.5236 98.3767 42.5701 97.6337 45.318 96.2141C49.8081 104.434 58.4942 109.649 67.9434 109.649C78.084 109.649 87.1763 103.731 91.3479 94.6708C94.8882 97.8151 99.4654 99.5769 104.262 99.5769C109.142 99.5769 113.81 97.7619 117.406 94.4661C120.532 91.5999 122.618 87.8319 123.389 83.7125C124.27 83.8064 125.148 83.8541 126.016 83.8541C139.793 83.8541 151.001 72.6458 151.001 58.8693C151 46.3127 141.721 35.8327 129.51 34.1282ZM126.016 80.4252C124.771 80.4252 123.497 80.311 122.229 80.0864C121.757 80.0031 121.271 80.1207 120.89 80.4112C120.509 80.7019 120.267 81.1388 120.222 81.6161C119.453 89.9006 112.591 96.148 104.261 96.148C99.5491 96.148 95.0936 94.0835 92.0364 90.4835C91.6363 90.0127 91.0143 89.7932 90.4077 89.9091C89.8011 90.025 89.3036 90.4584 89.1058 91.0434C86.0321 100.121 77.5271 106.221 67.9428 106.221C59.2033 106.221 51.2167 101.074 47.5962 93.1083C47.3898 92.6539 46.9958 92.3124 46.5171 92.1722C46.359 92.1259 46.1969 92.1033 46.0357 92.1033C45.7082 92.1033 45.3842 92.1969 45.1037 92.3786C42.5088 94.0594 39.5003 94.9479 36.4033 94.9479C27.562 94.9479 20.3692 87.7548 20.3692 78.9138C20.3692 77.6537 20.5201 76.387 20.8181 75.1492C21.031 74.2639 20.5149 73.3665 19.6426 73.1056C10.096 70.25 3.42887 61.2921 3.42887 51.322C3.42887 38.7836 13.6298 28.5831 26.1678 28.5831C29.6285 28.5831 32.9515 29.3405 36.0443 30.8341C36.4811 31.045 36.9869 31.0611 37.4364 30.878C37.886 30.6949 38.2364 30.3301 38.4017 29.874C42.5516 18.4154 53.5305 10.7166 65.7215 10.7166C76.7584 10.7166 86.7032 16.8495 91.6757 26.7215C92.0032 27.372 92.7068 27.7437 93.4279 27.6504C94.15 27.5565 94.7339 27.0164 94.8844 26.3039C96.437 18.9401 103.034 13.5955 110.571 13.5955C119.413 13.5955 126.605 20.7882 126.605 29.6292C126.605 31.489 126.288 33.3142 125.662 35.0537C125.479 35.5639 125.547 36.1307 125.848 36.5823C126.148 37.0339 126.643 37.3171 127.184 37.3459C138.616 37.9566 147.571 47.4107 147.571 58.8693C147.571 70.7551 137.901 80.4252 126.016 80.4252Z" fill="url(#paint0_linear_179_2984)"/>
<path d="M70.2576 40.4517C70.1866 40.4507 70.1166 40.4504 70.046 40.4504C61.5479 40.4504 54.5698 47.3023 54.446 55.8206C54.4011 58.9293 55.2686 61.9436 56.9552 64.5379C59.182 67.963 60.3587 71.8863 60.3587 75.8837V78.337C60.3587 83.6782 64.7038 88.0232 70.045 88.0232C75.3861 88.0232 79.7312 83.6782 79.7312 78.337V75.8857C79.7312 71.9535 80.9333 67.9904 83.2077 64.4247C84.8025 61.9244 85.6456 59.029 85.6456 56.0517C85.6456 47.5632 78.7426 40.5652 70.2576 40.4517ZM76.3023 78.3367C76.3023 81.7872 73.4951 84.594 70.045 84.594C66.5948 84.594 63.7876 81.7868 63.7876 78.3367V75.8833C63.7876 75.1797 63.7526 74.4785 63.6909 73.7811H76.4031C76.3387 74.4816 76.3023 75.1835 76.3023 75.8854V78.3367ZM80.3172 62.5803C78.7519 65.034 77.6303 67.6602 76.9764 70.3522H71.7594V63.9903L76.3777 59.974C77.092 59.3527 77.1678 58.2699 76.5464 57.5553C75.9251 56.8411 74.842 56.7656 74.1277 57.3866L70.0453 60.9369L65.9629 57.3866C65.2483 56.7653 64.1655 56.8407 63.5442 57.5553C62.9229 58.2699 62.9983 59.3527 63.7129 59.974L68.3309 63.9903V70.3522H63.1337C62.4905 67.6516 61.3812 65.0543 59.8304 62.6688C58.5161 60.6471 57.8396 58.2963 57.8749 55.87C57.9712 49.2242 63.4156 43.8793 70.047 43.8793C70.1015 43.8793 70.1571 43.8796 70.2119 43.8803C76.8317 43.9687 82.2171 49.4289 82.2171 56.0511C82.2168 58.3741 81.5598 60.6317 80.3172 62.5803Z" fill="url(#paint1_linear_179_2984)"/>
<path d="M70.0452 35.8633C70.992 35.8633 71.7597 35.0956 71.7597 34.1489V25.7649C71.7597 24.8182 70.992 24.0505 70.0452 24.0505C69.0985 24.0505 68.3308 24.8182 68.3308 25.7649V34.1489C68.3308 35.0956 69.0985 35.8633 70.0452 35.8633Z" fill="url(#paint2_linear_179_2984)"/>
<path d="M52.0245 43.5631L44.7639 39.371C43.9434 38.8975 42.8952 39.1783 42.422 39.9985C41.9484 40.8187 42.2293 41.8669 43.0495 42.3404L50.3101 46.5325C50.5803 46.6886 50.8748 46.7626 51.1656 46.7626C51.7581 46.7626 52.3345 46.4551 52.652 45.9051C53.1255 45.0849 52.8447 44.0367 52.0245 43.5631Z" fill="url(#paint3_linear_179_2984)"/>
<path d="M97.0409 69.5533L89.7802 65.3612C88.9601 64.8876 87.9115 65.1688 87.4383 65.9886C86.9648 66.8088 87.2456 67.857 88.0658 68.3306L95.3264 72.5227C95.5966 72.6787 95.8912 72.7528 96.182 72.7528C96.7745 72.7528 97.3509 72.4452 97.6684 71.8952C98.1419 71.0754 97.8611 70.0268 97.0409 69.5533Z" fill="url(#paint4_linear_179_2984)"/>
<path d="M50.3101 65.3615L43.0495 69.5537C42.2293 70.0272 41.9484 71.0754 42.422 71.8956C42.7395 72.4456 43.3155 72.7531 43.9084 72.7531C44.1991 72.7531 44.494 72.6791 44.7639 72.5231L52.0245 68.3309C52.8447 67.8574 53.1255 66.8092 52.652 65.989C52.1785 65.1692 51.1303 64.888 50.3101 65.3615Z" fill="url(#paint5_linear_179_2984)"/>
<path d="M95.3264 39.371L88.0658 43.5631C87.2456 44.0367 86.9648 45.0849 87.4383 45.9051C87.7558 46.4551 88.3319 46.7626 88.9247 46.7626C89.2155 46.7626 89.5104 46.6886 89.7802 46.5325L97.0409 42.3404C97.8611 41.8669 98.1419 40.8187 97.6684 39.9985C97.1948 39.179 96.147 38.8978 95.3264 39.371Z" fill="url(#paint6_linear_179_2984)"/>
<path d="M111.58 118.767C111.58 112.109 106.163 106.692 99.5056 106.692C92.8477 106.692 87.4312 112.109 87.4312 118.767C87.4312 125.425 92.8477 130.841 99.5056 130.841C106.163 130.841 111.58 125.425 111.58 118.767ZM99.5052 127.412C94.7381 127.412 90.8597 123.534 90.8597 118.767C90.8597 113.999 94.7381 110.121 99.5052 110.121C104.272 110.121 108.151 113.999 108.151 118.767C108.151 123.534 104.273 127.412 99.5052 127.412Z" fill="url(#paint7_linear_179_2984)"/>
<path d="M110.991 132.005C107.764 132.005 105.138 134.631 105.138 137.859C105.138 141.086 107.764 143.712 110.991 143.712C114.219 143.712 116.845 141.086 116.845 137.859C116.845 134.631 114.219 132.005 110.991 132.005ZM110.991 140.283C109.655 140.283 108.567 139.196 108.567 137.859C108.567 136.521 109.654 135.434 110.991 135.434C112.329 135.434 113.416 136.521 113.416 137.859C113.416 139.196 112.329 140.283 110.991 140.283Z" fill="url(#paint8_linear_179_2984)"/>
</g>
<defs>
<linearGradient id="paint0_linear_179_2984" x1="0" y1="7.28772" x2="130.934" y2="130.904" gradientUnits="userSpaceOnUse">
<stop stop-color="#1813BF"/>
<stop offset="0.463542" stop-color="#954DC8"/>
<stop offset="1" stop-color="#FF8153"/>
</linearGradient>
<linearGradient id="paint1_linear_179_2984" x1="54.4443" y1="40.4504" x2="97.9493" y2="58.7117" gradientUnits="userSpaceOnUse">
<stop stop-color="#1813BF"/>
<stop offset="0.463542" stop-color="#954DC8"/>
<stop offset="1" stop-color="#FF8153"/>
</linearGradient>
<linearGradient id="paint2_linear_179_2984" x1="68.3308" y1="24.0505" x2="73.7666" y2="25.0603" gradientUnits="userSpaceOnUse">
<stop stop-color="#1813BF"/>
<stop offset="0.463542" stop-color="#954DC8"/>
<stop offset="1" stop-color="#FF8153"/>
</linearGradient>
<linearGradient id="paint3_linear_179_2984" x1="42.1919" y1="39.1409" x2="51.9006" y2="47.856" gradientUnits="userSpaceOnUse">
<stop stop-color="#1813BF"/>
<stop offset="0.463542" stop-color="#954DC8"/>
<stop offset="1" stop-color="#FF8153"/>
</linearGradient>
<linearGradient id="paint4_linear_179_2984" x1="87.2083" y1="65.1312" x2="96.9168" y2="73.8463" gradientUnits="userSpaceOnUse">
<stop stop-color="#1813BF"/>
<stop offset="0.463542" stop-color="#954DC8"/>
<stop offset="1" stop-color="#FF8153"/>
</linearGradient>
<linearGradient id="paint5_linear_179_2984" x1="42.1919" y1="65.1315" x2="51.9005" y2="73.8467" gradientUnits="userSpaceOnUse">
<stop stop-color="#1813BF"/>
<stop offset="0.463542" stop-color="#954DC8"/>
<stop offset="1" stop-color="#FF8153"/>
</linearGradient>
<linearGradient id="paint6_linear_179_2984" x1="87.2083" y1="39.1412" x2="96.9166" y2="47.8564" gradientUnits="userSpaceOnUse">
<stop stop-color="#1813BF"/>
<stop offset="0.463542" stop-color="#954DC8"/>
<stop offset="1" stop-color="#FF8153"/>
</linearGradient>
<linearGradient id="paint7_linear_179_2984" x1="87.4312" y1="106.692" x2="115.527" y2="124.674" gradientUnits="userSpaceOnUse">
<stop stop-color="#1813BF"/>
<stop offset="0.463542" stop-color="#954DC8"/>
<stop offset="1" stop-color="#FF8153"/>
</linearGradient>
<linearGradient id="paint8_linear_179_2984" x1="105.138" y1="132.005" x2="118.759" y2="140.722" gradientUnits="userSpaceOnUse">
<stop stop-color="#1813BF"/>
<stop offset="0.463542" stop-color="#954DC8"/>
<stop offset="1" stop-color="#FF8153"/>
</linearGradient>
<clipPath id="clip0_179_2984">
<rect width="151" height="151" fill="white"/>
</clipPath>
</defs>
</svg>
