<svg width="220" height="220" viewBox="0 0 220 220" fill="none" xmlns="http://www.w3.org/2000/svg">
<path d="M177.989 79.9218C180.088 79.9223 182.145 79.3313 183.923 78.2168C185.702 77.1022 187.131 75.5092 188.046 73.6201C188.961 71.731 189.325 69.6224 189.097 67.5358C188.869 65.4492 188.057 63.4691 186.756 61.8223C185.454 60.1756 183.715 58.9289 181.738 58.225C179.76 57.5211 177.624 57.3885 175.575 57.8425C173.526 58.2965 171.646 59.3186 170.15 60.7917C168.655 62.2649 167.605 64.1295 167.121 66.1718H154.786C154.092 66.1682 153.424 66.4356 152.924 66.9172C152.424 67.3987 152.132 68.0563 152.109 68.75V81.6406H144.805V71.0406C144.791 70.5678 144.651 70.1072 144.399 69.707C144.147 69.3068 143.792 68.9816 143.371 68.7654L88.2379 39.4045C87.8572 39.203 87.4324 39.0989 87.0017 39.1014C86.5709 39.1038 86.1474 39.2128 85.769 39.4186L32.2355 68.7796C31.8351 69.0042 31.503 69.333 31.2745 69.731C31.0459 70.1291 30.9295 70.5817 30.9374 71.0406V104.918C30.9433 120.31 35.434 135.366 43.8604 148.246C52.2868 161.126 64.2838 171.272 78.3843 177.442L85.7956 180.684C86.1161 180.825 86.4627 180.898 86.8131 180.898C87.1627 180.898 87.5086 180.827 87.8293 180.687L96.1966 177.072C109.938 171.284 121.769 161.738 130.332 149.531H152.109V162.422C152.132 163.116 152.424 163.773 152.924 164.255C153.424 164.736 154.092 165.004 154.786 165H167.121C167.753 167.664 169.341 170.004 171.584 171.574C173.828 173.144 176.569 173.836 179.289 173.518C182.009 173.2 184.517 171.894 186.337 169.849C188.157 167.803 189.163 165.16 189.163 162.422C189.163 159.684 188.157 157.041 186.337 154.995C184.517 152.95 182.009 151.644 179.289 151.326C176.569 151.007 173.828 151.699 171.584 153.27C169.341 154.84 167.753 157.179 167.121 159.844H157.266V146.953C157.276 146.62 157.22 146.288 157.101 145.977C156.981 145.665 156.801 145.381 156.57 145.141C156.339 144.9 156.062 144.709 155.755 144.577C155.449 144.446 155.119 144.377 154.786 144.375H105.497C104.865 141.711 103.277 139.371 101.034 137.801C98.7905 136.231 96.0487 135.539 93.329 135.857C90.6093 136.175 88.1012 137.481 86.2809 139.526C84.4606 141.572 83.455 144.215 83.455 146.953C83.455 149.691 84.4606 152.334 86.2809 154.38C88.1012 156.425 90.6093 157.731 93.329 158.049C96.0487 158.367 98.7905 157.676 101.034 156.105C103.277 154.535 104.865 152.196 105.497 149.531H123.935C116.127 159.553 105.877 167.403 94.1672 172.331L86.8058 175.511L80.4499 172.718C67.268 166.949 56.0526 157.464 48.1751 145.423C40.2976 133.382 36.0993 119.307 36.0936 104.918V72.5677L87.1259 44.6101L139.648 72.5884V81.6406H105.497C104.865 78.9763 103.277 76.6368 101.034 75.0665C98.7905 73.4962 96.0487 72.8044 93.329 73.1225C90.6093 73.4406 88.1012 74.7464 86.2809 76.792C84.4606 78.8376 83.455 81.4805 83.455 84.2187C83.455 86.9569 84.4606 89.5998 86.2809 91.6454C88.1012 93.691 90.6093 94.9969 93.329 95.315C96.0487 95.6331 98.7905 94.9413 101.034 93.3709C103.277 91.8006 104.865 89.4612 105.497 86.7968H154.786C155.119 86.7948 155.449 86.726 155.755 86.5944C156.062 86.4629 156.339 86.2713 156.57 86.031C156.801 85.7907 156.981 85.5065 157.101 85.1953C157.22 84.884 157.276 84.552 157.266 84.2187V71.3281H167.121C167.704 73.7731 169.093 75.9507 171.065 77.5097C173.036 79.0687 175.475 79.9184 177.989 79.9218Z" fill="url(#paint0_linear_160_308)"/>
<path d="M156.075 104.414C153.486 104.418 150.978 105.319 148.979 106.964C146.98 108.61 145.614 110.897 145.112 113.438H78.9513C78.4253 110.751 76.9308 108.35 74.7516 106.693C72.5725 105.035 69.8604 104.235 67.1304 104.445C64.4004 104.655 61.8427 105.86 59.9428 107.832C58.0429 109.804 56.9332 112.404 56.8245 115.14C56.7157 117.876 57.6155 120.557 59.3529 122.673C61.0903 124.789 63.5443 126.194 66.249 126.62C68.9537 127.046 71.7206 126.464 74.0245 124.984C76.3284 123.505 78.0087 121.231 78.7463 118.594H145.317C145.877 120.597 146.986 122.404 148.517 123.812C150.049 125.219 151.943 126.171 153.986 126.561C156.03 126.95 158.141 126.761 160.083 126.015C162.025 125.269 163.72 123.996 164.977 122.338C166.234 120.681 167.004 118.706 167.199 116.635C167.395 114.564 167.008 112.48 166.083 110.617C165.157 108.754 163.73 107.186 161.962 106.09C160.194 104.994 158.155 104.414 156.075 104.414Z" fill="url(#paint1_linear_160_308)"/>
<defs>
<linearGradient id="paint0_linear_160_308" x1="30.937" y1="39.1013" x2="202.784" y2="161.826" gradientUnits="userSpaceOnUse">
<stop stop-color="#1813BF"/>
<stop offset="0.463542" stop-color="#954DC8"/>
<stop offset="1" stop-color="#FF8153"/>
</linearGradient>
<linearGradient id="paint1_linear_160_308" x1="56.8157" y1="104.412" x2="73.2745" y2="156.47" gradientUnits="userSpaceOnUse">
<stop stop-color="#1813BF"/>
<stop offset="0.463542" stop-color="#954DC8"/>
<stop offset="1" stop-color="#FF8153"/>
</linearGradient>
</defs>
</svg>
